<?xml version="1.0" encoding="utf-8"?>
<!-- Generator: Adobe Illustrator 26.3.1, SVG Export Plug-In . SVG Version: 6.00 Build 0)  -->
<svg version="1.1" id="Layer_1" xmlns="http://www.w3.org/2000/svg" xmlns:xlink="http://www.w3.org/1999/xlink" x="0px" y="0px"
	 viewBox="0 0 855.7 163.8" style="enable-background:new 0 0 855.7 163.8;" xml:space="preserve">
<style type="text/css">
	.st0{fill:#FFFEFE;}
	.st1{fill:#E72429;}
	.st2{fill:#E7252B;}
	.st3{fill:#A7A7AA;}
	.st4{fill:#A6A6A9;}
	.st5{fill:#E7262B;}
	.st6{fill:#E1212A;}
	.st7{fill:#E32E38;}
	.st8{fill:#A2A2A4;}
	.st9{fill:#E11E26;}
	.st10{fill:#E4141B;}
	.st11{fill:#959799;}
	.st12{fill:#E10E18;}
	.st13{fill:#929597;}
	.st14{fill:#E20712;}
	.st15{fill:#E2232D;}
	.st16{fill:#989A9C;}
	.st17{fill:#FEF8F9;}
	.st18{fill:#FEFEFE;}
	.st19{fill:#E72329;}
</style>
<path class="st0" d="M584.3,226.2c-185,0-369.7,0-554.3,0c0-97.8,0-195.6,0-293.3c264,0,528,0,792,0c0,97.8,0,195.6,0,293.3
	C742.9,226.2,663.8,226.2,584.3,226.2 M737.7,41.4c-0.2-0.1-0.5-0.3-0.7-0.3c0,0,0.1,0-0.1-0.5c-11.3-9.3-31.9-11-44.2-3.6
	c0,0,0,0-0.6,0.1c-1.4,0.8-2.7,1.6-4.1,2.5c0,0,0-0.1-0.4,0c-0.2,0.2-0.3,0.4-0.4,0.6c0,0,0-0.1-0.5,0c-0.6,0.5-1.1,1-1.7,1.6
	c0,0,0-0.1-0.5,0.1c-5.4,4.6-9.2,10.3-11.5,17.5c7.5,0,14.5-0.1,21.4,0c2.5,0,4.4-0.5,6.4-2.2c6.8-5.7,16.2-5.2,22.5,0.8
	c7.4,7.1,8.3,15.4,2.5,25.8c-6.2,7.4-15.4,9.6-22.7,4.8c-3.3-2.2-6.4-2.8-10.1-2.7c-3.6,0.1-7.3,0-10.9,0c-2.8,0-5.6,0-8.9,0
	c2.4,6,5.1,10.8,9.6,14.9c0.1,0.2,0.3,0.3,0.8,0.8c1.5,1.1,2.9,2.2,4.5,3.4c0,0,0.2,0,0.5,0.4c12.9,9.6,34.8,8.2,45.3,0.2
	c0,0,0,0.1,0.5,0c0.4-0.4,0.9-0.7,1.3-1.2c0,0,0.1,0.1,0.5-0.1c3.6-4,7.9-7.5,10.6-11.9c10.5-17.2,5-41-7.6-49.3c0,0,0.1,0-0.1-0.4
	c-0.2-0.1-0.5-0.3-0.7-0.3c0,0,0.1,0-0.1-0.4c-0.2-0.1-0.5-0.3-0.7-0.3C737.8,41.8,737.9,41.8,737.7,41.4 M277.8,103.9
	c0,0,0.1,0,0.4-0.1c0.2-0.1,0.3-0.3,0.4-0.6c0,0,0.1,0,0.5-0.2c0.5-0.7,1.1-1.5,1.5-2.2c0,0,0.1,0,0.5-0.2c0.6-1,1.2-1.9,1.7-2.9
	c4.6-9.3,2.6-20.4-4.5-25.6c0,0,0.1,0-0.2-0.5c-5.9-2.6-11.8-5.3-17.7-7.8c-3.4-1.5-7.1-2.4-10.4-4.1c-3-1.6-3.4-4.8-1.6-7
	c2.4-3,9.6-3.3,10.9,0c1.7,4.2,4.6,3.4,7.5,3.4c5.3,0,10.6,0,16.1,0c-0.6-7.2-3-13-8.2-17c-9.4-7.2-20-8.6-31.3-4.9c0,0,0-0.1-0.5,0
	c-2.7,1.3-5.5,2.3-8.1,3.9c-10.7,6.4-13.4,21.5-5.3,30.8c0.4,0.3,0.9,0.7,1.6,1.4c1.7,1.1,3.4,2.2,5.2,3.5c0,0,0.2,0,0.6,0.4
	c3.6,1.5,7.1,2.9,10.7,4.4c3.7,1.5,7.5,2.6,11,4.4c4.8,2.5,5.2,6,1.7,10.2c0,0,0,0-0.6,0.1c-4,2-7.8,1.6-11.5-1.3
	c-0.1-0.2-0.3-0.4-0.7-0.8c-0.3-0.6-0.7-1.3-1.1-2.5c-0.2-0.3-0.5-0.8-0.7-0.8c-7.2,0-14.4,0-21.8,0c1.2,10.9,6.8,18.7,16.4,22.3
	c12.9,4.9,25.7,4.1,36.9-5.4c0,0,0.1,0,0.4-0.1C277.6,104.4,277.7,104.2,277.8,103.9 M638.1,105.4c0,0,0.1,0,0.5-0.3
	c0.3-0.5,0.7-1,1.6-1.5c0.2,0.3,0.5,0.6,0.5,0.9c0.8,7.3-2.3,13-7.5,17.7c0,0-0.1-0.1-0.6,0c-6.9,3.2-13.6,2.9-20.3-0.8
	c0,0,0.1-0.1-0.1-0.5c-0.5-0.6-1-1.1-1.5-2.3c-1.2-0.6-2.4-1.7-3.6-1.7c-5-0.2-9.9-0.1-14.9-0.1c-2.8,0-5.6,0-9.1,0
	c1,2.1,1.6,3.3,2.1,5.1c0.9,1.8,1.8,3.7,2.7,6.1c2.6,2.6,5.1,5.2,7.7,7.7c0,0-0.1,0,0.2,0.5c10,6.9,21.2,8.3,32.9,6.6
	c4.7-0.7,9.1-2.6,14-4c0,0,0.3-0.1,0.9,0c4.4-3.2,8.8-6.4,13-9.8c0,0,0.3,0.2,0.7-0.1c0.3-0.5,0.6-1,0.8-1.5c0,0,0,0.1,0.5-0.2
	c1.6-4.7,3.1-9.4,4.9-14.7c0-8.8,0-17.6,0-26.6c-0.9,0-2,0-3.2,0c-7.5,0-15-0.1-22.5,0.1c-1.1,0-2.3,0.8-3.3,1.5
	c-6.3,4.6-15.1,5.1-21.3,0.7c-7.2-5.1-9.3-12.6-7.5-22.8c1-5.6,9.3-11.6,16.1-12.2c6-0.5,10.8,2,15.6,5.9c0.1,0,0.3-0.1,1,0.1
	c8.1-0.1,16.1-0.1,24.6-0.1c0.1,0,0.3-0.1,1-0.4c0-7.7,0-15.4,0.1-23.5c-0.5-0.2-1-0.3-2.2-0.6c-6.3,0-12.5,0.1-19.2-0.1
	c-0.7,1.6-1.4,3.2-2.1,4.8c-18.6-11-37.8-8.6-48.7,6c0,0,0-0.1-0.5,0.2c-4.2,5.2-7,11-8.1,17.5c-2.4,13.5-0.7,26.1,9.3,36.6
	c0,0-0.2,0.1-0.1,0.5c0.3,0.3,0.6,0.5,0.9,0.9c0,0,0,0,0.3,0.4c1.5,1.2,3,2.5,4.7,3.7c0,0,0,0.1,0.3,0.4c0.6,0.4,1.3,0.7,2.1,0.9
	c0,0-0.1,0.2,0.2,0.6c3.6,1.4,7,3.4,10.8,4.2c9.2,2,18.2,1.7,25.7-5.3c0,0,0.1-0.1,0.4-0.2C637.9,105.9,638,105.7,638.1,105.4
	 M221.1,77.3c-0.1-3-0.1-6.1-0.1-9.7c-1.4-10.2-5.4-19.1-13.5-25.7c0,0,0.1,0-0.2-0.5c-3.2-1.9-6.2-4.3-9.6-5.7
	c-14.5-6-28.2-4.4-40.7,5.5c0,0,0,0-0.5,0.1c-1.6,1.7-3.2,3.4-4.8,5.1c0,0,0-0.1-0.5,0.2c-0.6,0.9-1.2,1.9-1.8,2.8
	c0,0,0-0.1-0.5,0.2c-10.1,15.8-9.3,35.1,2.1,48.3c0.1,0.2,0.3,0.4,0.8,0.9c1.5,1.4,2.9,2.7,4.5,4.4c0.2,0.2,0.4,0.3,0.9,0.7
	c0.6,0.4,1.3,0.8,2,1.1c0,0-0.1,0,0.2,0.5c15.8,10,34.1,9.2,46.9-2.1c1.1-1.1,2.2-2.3,3.8-3.6c3-4.2,5.9-8.5,9.5-13.5
	c-6.3,0-11.2,0.3-16-0.1c-5.4-0.4-9.8,0.7-13.6,5.2c-7.2,4.2-13.8,2.6-19.9-2.1c-3.2-2.5-6-5.7-5-10.3c0,0,0.1,0,0.8,0.1
	c17.8,0,35.7-0.1,53.8,0.1C220.2,78.8,220.6,78.4,221.1,77.3 M722.6,68.6c-0.3-0.2-0.7-0.5-1.3-1.1c-4-3.5-8-7-12.7-11.1
	c0,3.2,0,5.5,0,8c-1.4,0-2.4,0-3.4,0c-26.5,0-53.1,0-79.6,0.1c-2.2,0-4.5,1-7.2,1.7c-4.9,3.2-4.3,11.6,1.3,14
	c0.5,0.1,1.1,0.2,2.2,0.7c1.2,0.1,2.5,0.2,3.7,0.2c27.6,0,55.2,0,83,0.7c0,2.1,0,4.2,0,7.3c1.8-1.9,2.8-3,4.3-4.1
	c3.8-3.3,7.6-6.5,11.9-10c0.8-0.7,1.5-1.5,2.5-2.3C725.6,71.2,724.1,70.1,722.6,68.6 M143.2,51.6c0.1-0.2,0.2-0.5,0.5-1.4
	c0-5.1,0-10.1,0-15.4c-3.9,0-7.3,0-10.7-0.3c0,0-0.3-0.2-0.2-0.9c0-7.9,0-15.8,0-23.8c-7.5,0-14.3,0-21.5-0.2c-0.3,0.2-0.5,0.4-1,1
	c0,0.1,0.1,0.3,0,1.1c0,7.6,0,15.3-0.6,23.1c-3.3,0.1-6.5,0.2-10.3,0.3c0,0.3-0.1,0.5-0.3,1.5c0,5,0,9.9,0,15c3.8,0,7.2,0,10.7,0.3
	c0.2,0.2,0.4,0.4,0.4,1.2c0,18.6,0.1,37.1,0.2,56.4c7.3,0,14.6,0,22,0c0.1-0.2,0.3-0.5,0.3-0.9c0-18.7-0.1-37.5,0.1-56.5
	c0-0.1,0-0.3,0.8-0.4C136.8,51.7,139.8,51.6,143.2,51.6 M284.5,35.1c0,0.3-0.1,0.5-0.2,1.5c0,5,0,9.9,0,15.3c3.9,0,7.5,0,11.1-0.1
	c0,0-0.1,0,0,0.6c0.1,0.5,0.1,1.1,0.1,2.3c0.1,1.5,0.1,3.1,0,5.3c0,3.3,0.1,6.6,0,10.5c0.1,2.3,0.1,4.5,0,7.4c0,1.1,0.1,2.1,0,3.8
	c0.1,1.3,0.1,2.6,0,4.5c0,3.8,0.1,7.6,0,11.9c0.1,0.6,0.1,1.1,0,2.2c0,0.6,0.1,1.1,0,2.3c0.1,0.6,0.1,1.1,0,2.2c0,0.6,0.1,1.1,0,2.1
	c0,0.1,0.1,0.2,0,0.9c0,0.3,0.1,0.7,0,1.5c0.2,0.2,0.5,0.3,1.4,0.7c6.8-0.1,13.6-0.2,20.9-0.4c0-0.5,0-1,0.1-2.2c0-2.1,0-4.2,0-6.4
	c0.1-16.4,0.1-32.9,0.1-49.3c0,0,0,0.1,0.7,0c3.3,0,6.6,0,9.8,0c0-5.9,0-11.2,0-16.9c-3.6,0-7.1,0-10.5-0.3c0,0-0.2-0.2-0.1-0.9
	c0-7.3-0.1-14.6,0-22.3c-0.2-0.5-0.5-1-1.4-1.7c-6.8,0-13.6,0.1-20.8,0.1c-0.1,0.7-0.2,1.3-0.4,2.7c0,7,0.1,14.1,0,21.5
	c0,0.3,0,0.5-0.7,0.9C291.5,34.9,288.2,35,284.5,35.1 M564,47.8c-12.9-16.2-34.4-17.2-49.5-8.3c-23.7,13.9-25.9,46.2-4.7,63.6
	c13.7,11.2,33.8,11.7,47.7,1c2.5-2,4.7-4.4,6.8-6c0,1.4-0.1,2.7-0.1,4.1c0,8.5,0,8.5,8.6,7.8c0.2,0,0.4-0.2,0.7-0.4
	c0.1-0.3,0.3-0.7,0.3-1c0-32,0-64,0-96c0-0.8-1-1.5-2.2-2.3c-1.8,0-3.6,0-6,0c-0.5,0.7-1.4,1.4-1.4,2.1
	C564.3,24.3,564.4,36.1,564,47.8 M330.9,70.2c0,0.9,0,1.8,0,2.6c0,16.4,9.5,30.4,25,36.3c14.6,5.5,31.4,3.3,42.3-10
	c0.4-0.5,1-0.8,2-1.5c0,4.4,0,8.3,0,12.6c1.6,0,2.9,0,4.3,0c5.3,0,5.3,0,5.3-5.3c0-21.5,0-43.1,0-64.6c0-1.3,0-2.7,0-4.2
	c-3.4,0-6.3,0-9.7,0c0,4,0,7.7,0,12.3c-13.4-15.6-29.3-17.8-46.6-10.6C339.7,43.5,332.3,54.7,330.9,70.2 M430.9,70.2
	c0.5-3.8,0.5-7.8,1.5-11.5c3.1-11.9,15.4-18.7,27.3-15.6c10.2,2.7,16.9,11.2,17.1,22.5c0.2,12.3,0.1,24.6,0.1,36.8
	c0,8.3,0,8.4,8.4,7.7c0.3,0,0.7-0.3,1.3-0.5c0-1,0-2.1,0-3.2c0-12.3,0.1-24.6,0-36.8c0-3.6-0.2-7.3-0.9-10.8
	c-3.4-16.1-16-25.8-34.3-24.5c-8.1,0.6-14.9,3.8-20.5,11c0-3.6,0-6.3,0-9c-3.4,0-6.5,0-9.3,0c0,24.8,0,49.3,0,73.7
	c3.3,0,6.2,0,9.4,0C430.9,96.7,430.9,83.8,430.9,70.2 M230.8,144.7c0.4-1,0.7-2,1.1-3c0.6,2.1,0.4,4,0.6,6c0.1,0.7,1.1,1.2,1.7,1.8
	c0.5-0.6,1.4-1.2,1.4-1.8c0.1-3.8,0.1-7.6,0.1-11.2c-7-2.1-5.1,4.7-7.8,6.7c-2.6-2.2-0.7-9.1-7.6-6.6c0,3.6-0.1,7.2,0.1,10.8
	c0,0.7,1,1.3,1.5,2c0.6-0.7,1.4-1.2,1.7-2c0.3-1.2,0.2-2.4,0.3-3.7c1.2,1.1,1.5,2.3,2.1,3.3c0.5,0.9,1.3,1.6,2,2.3
	c0.7-0.8,1.4-1.6,2-2.4C230.4,146.5,230.5,145.8,230.8,144.7 M265.7,143.7c0,1-0.2,2.1,0.1,3c0.3,1,1.1,1.8,1.7,2.7
	c0.5-0.9,1.4-1.8,1.5-2.8c0.3-1.6,0.1-3.3,0.1-5.2c3.7,2.3,3.2,9.1,9.7,7.7c0-3.9,0.1-7.6-0.1-11.2c0-0.7-1-1.3-1.6-2
	c-0.5,0.7-1.5,1.3-1.6,2c-0.2,1.7-0.1,3.5-0.1,5.6c-3.8-2.5-3.2-9.1-9.7-7.2C265.7,138.6,265.7,140.8,265.7,143.7 M131.6,143
	c0.9,1.4,1.8,2.7,2.6,4.1c1.2,2.3,2.9,2.8,5.4,1.7c0-3.7,0.1-7.3-0.1-10.9c0-0.7-1-1.3-1.6-2c-0.6,0.7-1.5,1.3-1.6,2
	c-0.2,1.7-0.1,3.5-0.1,5.7c-3.7-2.6-3.3-9-9.7-7.2c0,3.8-0.1,7.5,0.1,11.3c0,0.6,0.9,1.2,1.4,1.7c0.6-0.6,1.6-1.2,1.7-1.8
	c0.2-1.7,0.1-3.5,0.1-5.3C130.3,142.4,130.8,142.5,131.6,143 M212.4,149.5c3.6-1.2,5.1-3.7,4.9-7.4c-0.1-3.1-1.8-5.1-4.7-6.1
	c-3.1-1-6.4-0.6-8,2.2c-1.2,2.1-1.5,5.3-0.8,7.6C205,149.3,208.4,150.2,212.4,149.5 M239.2,146.6c0.5,0.9,1,1.9,1.5,2.8
	c0.9-1.6,1.9-3.1,3-5c4.6-0.7,6.4-2.3,5.7-5.3c-0.8-3.1-4.7-4.1-10.2-2.4C239.2,139.7,239.2,142.8,239.2,146.6 M111.1,147.4
	c0.1,0.6,0.1,1.3,0.2,1.9c0.8-0.1,2.1,0,2.4-0.5c2.6-3.9,4.9-3.3,7.4,0c0.4,0.5,1.7,0.4,3.4,0.7c-2-4.6-3.5-8.5-5.3-12.2
	c-1.1-2.2-2.7-2-3.8,0.3C114,140.7,112.7,143.8,111.1,147.4 M259.4,147.5c1.1,0.7,2.1,1.4,3.2,2.1c0.3-0.3,0.5-0.6,0.8-0.9
	c-1.6-3.7-3.1-7.5-4.8-11.2c-0.9-1.9-2.5-2.4-3.6-0.3c-1.9,3.8-3.5,7.8-5.7,12.8c2.1-0.8,3.6-0.8,3.9-1.5
	C254.5,145.4,256.8,146.5,259.4,147.5 M172.7,146c-0.8,0.6-1.5,1.1-2.5,1.9c3.2,2.3,6.2,2.8,8.3,0.4c4.6-5.3-2.2-6.1-4.7-8.9
	c2.4-0.7,4.1-1.1,5.8-1.6c-2.9-2.8-6-3-7.9-0.4c-4.1,5.7,3.3,5.5,5.7,9.1C175.4,146.4,174.3,146.3,172.7,146 M194.1,146.2
	c-0.4-1.9-1.4-3.9-1-5.7c0.2-0.8,3-1,4.6-1.5c1-0.3,1.9-0.7,3.3-1.2c-4.2-3-8-2.6-10.5,0.5c-2.3,2.8-2,6.9,0.7,9.5
	c2.9,2.8,6.3,2.7,10.1-0.8c-1.4-0.4-2.4-0.7-3.4-0.8C196.8,146.1,195.7,146.4,194.1,146.2 M165.1,140.3c0.7-0.5,1.5-0.9,2.1-1.5
	c0.6-0.5,1-1.1,1.5-1.6c-0.5-0.4-1.1-1.1-1.6-1.1c-2.6-0.1-5.2-0.1-7.9,0c-0.5,0-1.3,0.7-1.2,1c0.1,0.6,0.5,1.4,1,1.6
	c0.7,0.4,1.6,0.3,2.6,0.5c0,2.8-0.1,5.4,0.1,8c0.1,0.8,1.1,1.5,1.7,2.2c0.5-0.7,1.4-1.3,1.5-2.1
	C165.2,145.2,165.1,143.1,165.1,140.3 M288.7,145.5c1.4-3.1,2.8-6.2,4.2-9.3c-3.9-1.8-3.7,3.2-6,3.9c-2.7-4.3-2.7-4.3-5.8-3.6
	c0.7,1.2,1.6,2.3,2.1,3.5c0.9,2,1.7,4,2.5,6c0.5,1.1,1,2.1,1.5,3.2C287.7,148.3,288.2,147.2,288.7,145.5 M153.8,146.3
	c-0.2-2.8-0.4-5.6-0.8-8.4c-0.1-0.7-1-1.3-1.6-1.9c-0.5,0.5-1.5,1.1-1.5,1.6c-0.1,3.8-0.1,7.7-0.1,11.8c2.6,0,4.7,0.1,6.8-0.1
	c0.6-0.1,1.2-0.9,1.8-1.3c-0.6-0.5-1.1-1.1-1.8-1.4C156,146.3,155.2,146.5,153.8,146.3z"/>
<path class="st1" d="M662.5,59.2c-8.1,0.1-16.1,0.1-24.6-0.1c-0.6-0.4-0.8-0.6-1.1-1c-2.6-2-4.8-4.6-7.6-5.6
	c-8.4-2.9-15.4,0-21.1,6.5c-6.5,7.3-6.7,18.6-0.4,26.1c7.2,8.6,17.4,10.3,26.4,4.5c1.4-0.9,3.1-1.8,4.7-1.8c6.9-0.2,13.8,0,20.7-0.1
	c2.3,0,3,0.8,3,3.1c-0.1,7.5,0,15-0.3,22.8c-1.6,4.9-2.9,9.5-4.2,14.2c0,0,0-0.1-0.3,0c-0.5,0.6-0.7,1.2-1,1.7c0,0-0.3-0.2-0.4-0.1
	c-4.5,3.2-9,6.4-13.4,9.6c0,0-0.3,0.1-0.8,0.1c-1.2,0.1-2,0-2.7,0.2c-7.9,3-16.1,3.4-24.3,2.5c-5.4-0.6-10.6-3-15.9-4.6
	c-1.3-0.4-2.6-0.8-3.8-1.2c0,0,0.1,0,0-0.3c-2.6-2.8-5.1-5.4-7.6-8.1c-0.9-1.8-1.8-3.7-2.5-6.1c1.2-1.4,2.2-2.7,3.3-2.8
	c4.1-0.3,8.2-0.2,12.3-0.1c2.9,0.1,5.9,0.5,8.9,1c0.8,0.8,1.6,1.3,2.4,1.8c0,0-0.1,0.1-0.1,0.3c4.3,5,15.7,5.9,20.4,1.8
	c0.3-0.3,0.3-0.9,0.4-1.4c0,0,0.1,0.1,0.3,0.1c1.6-0.8,3.2-1.3,4.1-2.5c3.7-4.4,5.6-9.6,5.4-15.4c0-1-0.8-2-1.3-3
	c-1.1,0.7-2.1,1.4-3.4,2.4c-0.2,0.7-0.1,1.2-0.1,1.7c0,0-0.1,0-0.3,0c-0.3,0.2-0.4,0.5-0.4,0.7c0,0-0.1,0.1-0.4,0
	c-0.7,0-1.1-0.1-1.4,0.1c-9.8,6.6-20.1,5.4-30.5,1.8c-1.5-0.5-3.1-0.7-4.6-1c0,0,0.1-0.2,0-0.4c-0.8-0.5-1.5-0.7-2.3-1
	c0,0,0-0.1,0-0.3c-1.6-1.5-3.3-2.7-4.9-3.9c0,0,0,0-0.1-0.2c-0.4-0.5-0.7-0.8-1-1c0,0,0.2-0.1,0.2-0.3c-0.4-1-0.7-1.8-1.2-2.5
	c-8.8-13.1-9.4-27.1-4.1-41.6c1.3-3.4,3-6.7,4.6-10c0,0,0,0.1,0.3,0c7.1-5.7,14.1-10.7,23.5-11.6c7.9-0.8,15.1,0.1,21.5,4.9
	c1.5,1.1,3.2,1.9,4.7,2.9c0.4-2,0.8-3.9,1.5-5.9c6.6,0,12.9,0,19.2,0.3C662.5,44.1,662.5,51.7,662.5,59.2z"/>
<path class="st2" d="M157.1,103.6c-0.3,0-0.5-0.1-0.7-0.8c-1.6-1.8-3.1-3.1-4.7-4.5c-0.3,0-0.5-0.2-0.6-0.9c-0.4-1.2-0.6-2.1-1-2.8
	c-8-13.5-8.9-27.3-1.7-41.5c0.6-1.2,0.8-2.6,1.1-3.9c0,0,0,0.1,0.3,0c0.8-1,1.4-2,2-3c0,0,0,0.1,0.3,0c1.8-1.8,3.4-3.5,5-5.3
	c0,0,0,0,0.3,0c1.2-0.4,2.1-0.7,2.9-1.2c13.3-8,26.9-9,40.7-1.3c2.1,1.2,4.4,2.1,6.5,3.2c0,0-0.1,0,0,0.3c2.1,3.1,4.8,5.7,6.3,8.9
	c2.6,5.6,4.4,11.5,6.5,17.6c0,3.4,0,6.4-0.2,9.4c-0.2,0-0.5,0-0.9,0c-16.8,0-33.3,0-49.7,0c-1.4,0-2.8,0.6-4.2,0.9c0,0-0.1,0-0.5,0
	c-0.7,1.2-1.7,2.8-1.2,3.5c1.6,2.9,3.4,5.8,5.7,8.1c5.6,5.4,18,6.1,22.6,0.9c7.6-6.7,16.2-2.4,25.2-3.9c-1.6,2.7-2.5,4.3-3.4,5.8
	c-1.3,2.2-2.6,4.4-3.9,6.6c-1.1,1.1-2.2,2.3-3.9,3.5c-1.5,0.5-2.6,0.9-3.5,1.5c-11,6.7-22.5,8.1-34.6,3.3c-2.9-1.1-5.8-2.1-8.7-3.2
	c0,0,0.1,0,0-0.3C158.6,104.3,157.8,103.9,157.1,103.6 M198.6,63.4c-2.3-7.5-8.4-12.1-16.5-12.3c-8.4-0.2-14.4,4.1-17.3,13.1
	c0.7,0.3,1.5,0.9,2.2,0.9c9.7,0.1,19.4,0.1,29.1,0C196.9,65.2,197.7,64.4,198.6,63.4z"/>
<path class="st1" d="M692.7,37c0,0,0,0,0.4,0.1c1.3-0.1,2.3-0.2,3.2-0.6c11-4.3,21.9-3.9,32.7,0.8c2.7,1.2,5.4,2.5,8.1,3.7
	c0,0-0.1,0,0,0.2c0.3,0.3,0.5,0.4,0.8,0.6c0,0-0.1,0,0,0.2c0.3,0.3,0.5,0.4,0.8,0.6c0,0-0.1,0,0,0.2c0.3,0.3,0.5,0.4,0.8,0.6
	c0,0-0.1,0-0.1,0.2c1.5,2.2,3.1,4.1,4.5,6.1c10.5,14.4,8.6,39.3-4.8,50.8c-1.3,1.1-2.2,2.8-3.2,4.3c0,0-0.1-0.1-0.3-0.1
	c-0.7,0.4-1.1,0.8-1.5,1.3c0,0,0-0.1-0.3-0.1c-1.2,0.3-2.2,0.5-3.1,0.9c-9.7,4.3-19.8,4.7-30,2.6c-4.2-0.9-8.2-2.7-12.3-4.1
	c0,0-0.2,0-0.3-0.3c-1.6-1.4-3.1-2.5-4.6-3.5c-0.3,0-0.5-0.1-0.6-0.8c-0.6-1.5-1.1-2.6-1.8-3.6c-1.7-2.8-3.5-5.6-5.7-9.2
	c6,0,10.8,0.2,15.6,0c4.7-0.2,8.8,0.7,13,3.2c7.6,4.6,19.1,0.6,22.7-6.3c6.3-8.7,5.6-20.2-1.9-27.5c-6.6-6.4-16-8.3-25.3-0.7
	c-0.7,0.6-1.7,1.2-2.6,1.2c-7,0.1-13.9,0.1-21.7,0.1c2-3.5,3.6-6.4,5.3-9.2c1.4-2.3,3-4.4,4.6-6.6c0,0,0,0.1,0.3,0.1
	c0.8-0.6,1.3-1.1,1.9-1.7c0,0,0,0.1,0.2,0c0.3-0.3,0.5-0.5,0.7-0.7c0,0,0,0.1,0.3,0.1C690,38.7,691.3,37.9,692.7,37z"/>
<path class="st1" d="M247.4,91.5c0.2,0.1,0.4,0.2,0.7,0.8c3.2,5.1,9.8,5.2,12,0.6c0,0,0,0,0.3,0c4.8-2.5,4.8-7.2-0.1-10.6
	c-7.2-4.9-15.5-7.1-23.9-8.9c0,0-0.2,0-0.3-0.3c-1.8-1.4-3.6-2.5-5.3-3.5c-0.4-0.3-0.9-0.7-1.4-1.5c-0.2-1-0.1-1.6-0.3-1.9
	c-6.7-9.1-1.1-25.1,9.3-29c1.8-0.7,3.4-2.2,5.1-3.4c0,0,0,0.1,0.3,0.2c1.6,0,2.9,0.1,4.1-0.1c5.9-0.9,11.7-1,17.3,1
	c8.7,3.2,14.4,8.9,15.9,18.8c-5.5,0-10.8,0.2-16-0.1c-1.6-0.1-3.5-1.1-4.5-2.2c-3.6-4-10-4.3-13.1-0.2c-1.9,2.5-2.5,5.4,0.4,7.6
	c2.3,1.8,4.8,3.7,7.6,4.5c7.4,2.2,14.9,3.9,21.5,8.3c0.4,0.2,1,0.1,1.5,0.1c0,0-0.1,0,0,0.3c6.4,8.4,7.2,17.1,2.6,26.3
	c-0.3,0.6-0.1,1.5-0.2,2.2c0,0-0.1,0-0.3-0.1c-0.7,0.8-1.2,1.7-1.6,2.5c0,0-0.1,0-0.3,0c-0.3,0.3-0.4,0.5-0.5,0.8c0,0-0.1,0-0.3,0
	c-0.3,0.2-0.4,0.5-0.5,0.8c0,0-0.1,0-0.3-0.1c-2.4,1.1-4.5,2.5-6.8,3.4c-7.2,2.9-14.5,3.6-22.3,2.5c-10.3-1.5-18.4-7.8-21.6-17.6
	c-0.9-2.7-0.4-3.7,2.5-3.6c5.5,0.1,11,0.1,16.6,0.3C246,90.3,246.7,90.9,247.4,91.5z"/>
<path class="st3" d="M330.9,69.9c1.5-15.2,8.9-26.3,22.5-32.1c17.2-7.3,33.2-5.1,46.6,10.6c0-4.5,0-8.3,0-12.3c3.4,0,6.3,0,9.7,0
	c0,1.5,0,2.9,0,4.2c0,21.5,0,43.1,0,64.6c0,5.3,0,5.3-5.3,5.3c-1.3,0-2.7,0-4.3,0c0-4.3,0-8.2,0-12.6c-1,0.7-1.6,1-2,1.5
	c-11,13.3-27.8,15.5-42.3,10c-15.5-5.9-24.9-19.8-25-36.3C330.8,72,330.8,71.1,330.9,69.9 M375.2,102.8c0.9-0.2,1.7-0.4,2.6-0.6
	c12.5-3.4,19.8-11.8,22.1-24.4c2.2-11.9-3.7-24.7-13.7-30.8c-11.6-7.1-26.2-5.8-36.3,3.2c-9.1,8.2-12.3,23.9-7.1,35.3
	C347.1,94.8,356.8,104.6,375.2,102.8z"/>
<path class="st4" d="M564.5,97.5c-2.3,2.2-4.5,4.7-7,6.7c-13.9,10.7-34,10.2-47.7-1c-21.3-17.5-19.1-49.7,4.7-63.6
	c15.1-8.9,36.7-7.9,50,8.4c0.9-1.1,1.7-2.3,1.7-3.4c0.1-11.4,0.1-22.7,0.1-34.1c1.8,0,3.6,0,5.7,0.3c0.3,31.8,0.3,63.2,0.4,94.5
	c0,2.3-0.2,3.7-3.1,3.7c-2.8,0-3-1.4-2.9-3.5c0.1-1.7,0.2-3.5-0.1-5.2C566,99.2,565.1,98.4,564.5,97.5 M507.6,85.8
	c5.6,11.7,15.1,17.2,28,17.1c12.2-0.1,21.1-5.9,26.3-16.7c5.4-11.4,4.3-22.5-3.5-32.4c-7.5-9.6-17.7-13-29.4-10.7
	C509.8,46.8,499.8,66.8,507.6,85.8z"/>
<path class="st5" d="M133.1,51.8c0,0.1,0,0.3-0.5,0.6c-0.6,1.5-1,2.8-1,4.1c0,16.1-0.1,32.3,0,48.4c0,3.2-0.9,4.2-4,4
	c-3.7-0.2-7.5-0.3-11.2,0c-3.4,0.2-4.5-0.7-4.4-4.3c0.2-16.4,0.1-32.8,0.1-49.1c0-1-0.5-2-0.9-3c-0.2,0-0.6,0-0.6,0
	c-0.2-0.2-0.4-0.3-0.6-0.9c-0.3-0.7-0.5-1.2-0.8-1.3c-2.7-0.4-6.7,0.3-7.9-1.2c-1.4-1.8-0.4-5.5-0.5-8.4c0-0.5,0.1-1,0-1.5
	c-0.3-2.4,0.7-3.3,3.2-3.3c2.2,0,4.4-0.7,6.6-1.1c0-7.6,0-15.3,0.2-23c0.3,7.4,0.3,15,0.3,22.5c0.3,0,0.7,0,1,0
	c0-6.6,0.1-13.2,0-19.8c0-2.3,0.5-3.4,3.1-3.3c4.5,0.2,9,0.1,13.5,0c2.3-0.1,3.1,0.7,3.1,3c-0.1,5.6-0.1,11.2,0,16.9
	c0,1.2,0.8,2.3,1.2,3.5c0,0,0.3,0.2,0.4,0.6c3,0.9,7.2,0.5,8.3,2.1c1.4,2.2,0.3,6,0.6,9.1c0.3,3.2-0.9,4.1-4,4
	C136.5,50.2,134,48.8,133.1,51.8z"/>
<path class="st5" d="M295.5,34.8c0-0.3,0-0.5,0.3-0.8c0.5,0.1,0.8,0.2,1.1,0.4c0.1-0.2,0.2-0.4,0.2-0.7c0-6.5,0.1-13,0-19.5
	c-0.1-2.5,0.8-3.3,3.2-3.2c4.4,0.2,8.7,0.2,13.1,0c2.7-0.1,3.4,1,3.3,3.5c-0.1,5.5-0.1,11,0,16.5c0,1.1,0.8,2.3,1.3,3.4
	c0,0,0.2,0.2,0.4,0.6c3,0.9,7.2,0.5,8.3,2.1c1.4,2.2,0.3,6,0.6,9.1c0.3,3.2-0.9,4.1-4,4c-1.6-0.1-4.2-1.5-5,1.5c0,0,0-0.1-0.3,0
	c-0.6,1.4-1.2,2.8-1.2,4.1c-0.1,16.4-0.1,32.8,0,49.2c0,2.9-0.8,4-3.8,3.8c-3.7-0.2-7.5-0.3-11.3,0c-3.5,0.3-4.7-0.8-4.7-4.5
	c0.2-16.3,0.1-32.5,0-48.8c0-1.3-1-2.6-1.6-3.8c0,0,0.1,0,0.1-0.3c-2.2-0.6-4.4-1.2-6.6-1.2c-2.2,0-3.2-0.6-3.1-3
	c0.2-2.7,0.2-5.5,0-8.2c-0.1-2.4,0.7-3.2,3.2-3.2C291.1,35.8,293.3,35.1,295.5,34.8z"/>
<path class="st3" d="M430.9,70.5c0,13.3,0,26.2,0,39.4c-3.2,0-6.1,0-9.4,0c0-24.4,0-48.9,0-73.7c2.9,0,5.9,0,9.3,0c0,2.7,0,5.4,0,9
	c5.6-7.3,12.5-10.5,20.5-11c18.3-1.3,31,8.4,34.3,24.5c0.7,3.5,0.9,7.2,0.9,10.8c0.1,12.3,0,24.6,0,36.8c0,1.1,0,2.2,0,3.2
	c-0.6,0.3-1,0.5-1.3,0.5c-8.4,0.6-8.4,0.6-8.4-7.7c0-12.3,0.1-24.6-0.1-36.8c-0.2-11.2-6.9-19.8-17.1-22.5
	c-11.9-3.2-24.2,3.7-27.3,15.6C431.4,62.4,431.4,66.3,430.9,70.5z"/>
<path class="st6" d="M662.5,113.3c0-7.5-0.1-15,0-22.6c0-2.3-0.7-3.1-3-3.1c-6.9,0.1-13.8-0.1-20.7,0.1c-1.6,0-3.3,0.9-4.7,1.8
	c-9.1,5.8-19.2,4.2-26.4-4.5c-6.3-7.6-6.1-18.8,0.4-26.1c5.8-6.5,12.7-9.4,21.1-6.5c2.8,1,5,3.5,7.6,5.8c0.1,0.6,0.1,0.7,0.1,0.8
	c-4.4-3.7-9.2-6.3-15.2-5.8C615,54,606.6,60,605.6,65.6c-1.8,10.2,0.3,17.7,7.5,22.8c6.2,4.4,15,3.9,21.3-0.7c1-0.7,2.2-1.5,3.3-1.5
	c7.5-0.1,15-0.1,22.5-0.1c1.1,0,2.2,0,3.2,0c0,9,0,17.8-0.3,26.9C662.9,113.3,662.5,113.3,662.5,113.3z"/>
<path class="st7" d="M278.1,71.7c-0.4,0.2-1,0.4-1.4,0.1c-6.6-4.4-14.1-6.1-21.5-8.3c-2.7-0.8-5.3-2.8-7.6-4.5
	c-2.9-2.2-2.3-5.1-0.4-7.6c3.1-4.1,9.5-3.9,13.1,0.2c1.1,1.2,3,2.2,4.5,2.2c5.2,0.3,10.4,0.1,16,0.1c-1.5-9.9-7.2-15.7-15.9-18.8
	c-5.7-2.1-11.5-1.9-17.3-1c-1.2,0.2-2.5,0.1-4,0c10.9-3.8,21.5-2.3,30.9,4.9c5.2,4,7.6,9.8,8.2,17c-5.5,0-10.8,0-16.1,0
	c-2.9,0-5.8,0.8-7.5-3.4c-1.4-3.4-8.5-3-10.9,0c-1.8,2.3-1.4,5.4,1.6,7c3.3,1.7,7,2.7,10.4,4.1C266.2,66.2,272.1,68.9,278.1,71.7z"
	/>
<path class="st8" d="M564.4,97.8c0.7,0.5,1.7,1.4,1.8,2.3c0.3,1.7,0.2,3.5,0.1,5.2c-0.1,2.1,0.1,3.5,2.9,3.5c3,0,3.1-1.4,3.1-3.7
	c0-31.4,0-62.8,0-94.5c0.5,0.4,1.5,1.2,1.5,1.9c0.1,32,0.1,64,0,96c0,0.3-0.2,0.7-0.3,1c-0.3,0.2-0.5,0.4-0.7,0.4
	c-8.6,0.7-8.6,0.7-8.6-7.8C564.2,100.9,564.3,99.5,564.4,97.8z"/>
<path class="st9" d="M684.8,41.9c-1.3,2.1-2.9,4.3-4.3,6.6c-1.7,2.8-3.3,5.7-5.3,9.2c7.8,0,14.7,0,21.7-0.1c0.9,0,1.9-0.6,2.6-1.2
	c9.3-7.6,18.7-5.7,25.3,0.7c7.5,7.3,8.3,18.8,1.9,27.2c-0.3-0.3-0.3-0.5-0.3-0.7c5.4-10.2,4.4-18.5-2.9-25.6
	c-6.3-6-15.7-6.5-22.5-0.8c-2,1.7-3.9,2.3-6.4,2.2c-7-0.1-14,0-21.4,0C675.4,52.3,679.2,46.6,684.8,41.9z"/>
<path class="st6" d="M618.9,65.9c2.2-0.5,4.5-1.5,6.7-1.5c26.5-0.1,53.1-0.1,79.6-0.1c1,0,2,0,3.4,0c0-2.5,0-4.7,0-8
	c4.7,4.1,8.7,7.6,12.8,11.4c0.1,0.3-0.1,0.5-0.4,0.4c-3.3-2.4-6.4-4.9-9.9-7.6c-0.1,4.6-3.1,4.6-6.2,4.6c-20.8,0-41.5-0.1-62.3,0
	C634.7,65.3,626.8,65.8,618.9,65.9C618.9,66,618.9,65.9,618.9,65.9z"/>
<path class="st10" d="M295.4,52c0.5,1,1.6,2.3,1.6,3.6c0.1,16.3,0.2,32.5,0,48.8c0,3.7,1.1,4.8,4.7,4.5c3.7-0.3,7.5-0.3,11.3,0
	c3,0.2,3.8-0.9,3.8-3.8c-0.1-16.4-0.1-32.8,0-49.2c0-1.4,0.6-2.7,1.3-4.1c0.2,16.4,0.2,32.8,0.1,49.3c0,2.1,0,4.2-0.2,6.9
	c-0.3,1-0.3,1.4-0.4,1.8c-6.8,0.1-13.6,0.2-20.8,0c-0.6-0.5-0.8-0.7-0.9-0.9c0-0.3-0.1-0.7,0.1-1.3c0.1-0.5,0-0.7-0.1-0.9
	c0-0.6-0.1-1.1,0.1-2.1c0.1-1.1,0-1.7-0.1-2.4c0-0.6-0.1-1.1,0.1-2.1c0.1-1.1,0-1.7-0.1-2.4c0-3.8-0.1-7.6,0.1-11.9
	c0.1-1.9,0-3.3-0.1-4.6c0-1.1-0.1-2.1,0.1-3.7c0.1-2.9,0-5.2-0.1-7.6c0-3.3-0.1-6.6,0.1-10.4c0.1-2.2,0-3.8-0.1-5.4
	C295.6,53.4,295.5,52.9,295.4,52z"/>
<path class="st11" d="M230.7,144.9c-0.3,0.9-0.4,1.5-0.7,2c-0.6,0.9-1.3,1.6-2,2.4c-0.7-0.8-1.5-1.5-2-2.3c-0.6-1-0.9-2.2-2.1-3.3
	c-0.1,1.2,0,2.5-0.3,3.7c-0.2,0.8-1.1,1.3-1.7,2c-0.5-0.7-1.5-1.3-1.5-2c-0.2-3.6-0.1-7.2-0.1-10.8c6.9-2.6,5.1,4.4,7.6,6.6
	c2.6-2,0.8-8.8,7.8-6.7c0,3.6,0.1,7.4-0.1,11.2c0,0.6-0.9,1.2-1.4,1.8c-0.6-0.6-1.7-1.1-1.7-1.8c-0.2-1.9-0.1-3.9-0.6-6
	C231.6,142.7,231.2,143.7,230.7,144.9z"/>
<path class="st6" d="M245.1,89.3c-5.5,0-11,0.1-16.5-0.1c-2.9-0.1-3.4,0.9-2.5,3.6c3.1,9.9,11.3,16.2,21.6,17.6
	c7.8,1.1,15.1,0.3,22.3-2.5c2.3-0.9,4.3-2.3,6.8-3.3c-10.9,9.5-23.8,10.2-36.7,5.4c-9.5-3.6-15.2-11.4-16.4-22.3
	c7.4,0,14.6,0,21.8,0c0.2,0,0.5,0.5,0.5,1.1C245.5,89.3,245.3,89.3,245.1,89.3z"/>
<path class="st12" d="M111.2,52.4c0.2,1,0.7,2,0.7,3c0,16.4,0.1,32.8-0.1,49.1c0,3.6,1.1,4.5,4.4,4.3c3.7-0.3,7.5-0.3,11.2,0
	c3.1,0.2,4-0.8,4-4c-0.1-16.1-0.1-32.3,0-48.4c0-1.3,0.4-2.6,0.9-4c0.3,18.6,0.4,37.4,0.4,56.1c0,0.3-0.2,0.7-0.3,0.9
	c-7.4,0-14.7,0-21.8-0.6c0.3-1.8,0.4-3.1,0.4-4.3C111.2,87.2,111.2,69.8,111.2,52.4z"/>
<path class="st13" d="M265.7,143.4c0-2.6,0-4.8,0-7c6.5-1.9,6,4.7,9.7,7.2c0-2.2-0.2-3.9,0.1-5.6c0.1-0.7,1-1.3,1.6-2
	c0.5,0.7,1.5,1.3,1.6,2c0.2,3.6,0.1,7.2,0.1,11.2c-6.5,1.4-5.9-5.4-9.7-7.7c0,1.9,0.2,3.6-0.1,5.2c-0.2,1-1,1.9-1.5,2.8
	c-0.6-0.9-1.4-1.7-1.7-2.7C265.5,145.8,265.7,144.7,265.7,143.4z"/>
<path class="st6" d="M726.1,83.8c0.2,0,0.3,0.2,0.3,0.7c-3.3,7.1-14.8,11.1-22.4,6.5c-4.2-2.6-8.3-3.4-13-3.2c-4.8,0.2-9.7,0-15.6,0
	c2.2,3.6,4,6.4,5.7,9.2c0.6,1,1.1,2.1,1.7,3.4c-4.4-3.5-7.1-8.3-9.5-14.3c3.3,0,6.1,0,8.9,0c3.6,0,7.3,0.1,10.9,0
	c3.7-0.1,6.8,0.5,10.1,2.7C710.6,93.6,719.7,91.4,726.1,83.8z"/>
<path class="st13" d="M131.4,142.8c-0.6-0.3-1.1-0.4-1.5-0.5c0,1.8,0.2,3.5-0.1,5.3c-0.1,0.7-1.1,1.2-1.7,1.8
	c-0.5-0.6-1.4-1.1-1.4-1.7c-0.1-3.7-0.1-7.5-0.1-11.3c6.3-1.8,5.9,4.7,9.7,7.2c0-2.2-0.2-4,0.1-5.7c0.1-0.7,1-1.3,1.6-2
	c0.5,0.7,1.5,1.3,1.6,2c0.2,3.6,0.1,7.2,0.1,10.9c-2.5,1.1-4.2,0.7-5.4-1.7C133.4,145.7,132.4,144.4,131.4,142.8z"/>
<path class="st14" d="M708.4,80.9c-27.6,0-55.2,0-82.9,0c-1.2,0-2.5-0.1-4.1-0.5c-0.4-0.5-0.4-0.7,0-0.9c27.9,0,55.4,0,82.9,0.1
	C705.7,79.6,707.1,80.5,708.4,80.9C708.4,81,708.4,80.9,708.4,80.9z"/>
<path class="st6" d="M736.1,104.6c0.8-1.4,1.7-3.1,3-4.2c13.4-11.5,15.2-36.4,4.8-50.8c-1.4-2-3-3.9-4.5-6.1
	c12.6,8,18,31.9,7.6,49.1C744.2,97.1,739.9,100.6,736.1,104.6z"/>
<path class="st13" d="M212.2,149.6c-3.8,0.6-7.2-0.3-8.3-3.7c-0.7-2.3-0.4-5.5,0.8-7.6c1.6-2.8,4.9-3.2,8-2.2c2.9,0.9,4.5,3,4.7,6.1
	C217.5,145.8,216,148.3,212.2,149.6 M207.2,145.5c1.5,0.4,3.1,1.3,4.4,1c2.7-0.7,3.3-3,2.5-5.4c-0.8-2.2-2.7-3.5-5.1-2.5
	C206,139.9,205.4,142.2,207.2,145.5z"/>
<path class="st15" d="M643,35.9c-0.4,2-0.8,3.9-1.1,5.9c-1.6-0.9-3.3-1.8-4.7-2.9c-6.5-4.8-13.7-5.7-21.5-4.9
	c-9.4,0.9-16.4,6-23.5,11.6c10.7-14.6,29.9-17,48.5-6c0.7-1.6,1.4-3.2,2.3-4.5C643,35.6,643,35.8,643,35.9z"/>
<path class="st16" d="M239.2,146.2c0-3.4,0-6.5,0-9.5c5.5-1.6,9.4-0.6,10.2,2.4c0.7,3-1.1,4.6-5.7,5.3c-1.1,1.8-2,3.4-3,5
	C240.2,148.5,239.7,147.5,239.2,146.2z"/>
<path class="st15" d="M591.6,45.7c-1.3,3.2-3.1,6.5-4.4,9.9c-5.3,14.5-4.7,28.5,4.1,41.6c0.5,0.7,0.8,1.5,1.1,2.6
	c-9.8-10.3-11.5-22.9-9.1-36.4C584.4,56.9,587.2,51,591.6,45.7z"/>
<path class="st11" d="M111.2,147.1c1.4-3.3,2.7-6.4,4.1-9.5c1-2.3,2.6-2.5,3.8-0.3c1.9,3.7,3.4,7.6,5.3,12.2c-1.7-0.3-3-0.1-3.4-0.7
	c-2.5-3.3-4.9-3.9-7.4,0c-0.3,0.5-1.6,0.3-2.4,0.5C111.2,148.7,111.2,148,111.2,147.1z"/>
<path class="st11" d="M259.2,147.3c-2.4-0.8-4.7-1.9-6.2,1.3c-0.3,0.6-1.8,0.7-3.9,1.5c2.2-5,3.8-9,5.7-12.8
	c1.1-2.1,2.7-1.6,3.6,0.3c1.7,3.7,3.2,7.5,4.8,11.2c-0.3,0.3-0.5,0.6-0.8,0.9C261.5,148.9,260.4,148.2,259.2,147.3z"/>
<path class="st10" d="M317.9,34c-0.5-0.8-1.3-1.9-1.3-3c-0.1-5.5-0.2-11,0-16.5c0.1-2.5-0.6-3.6-3.3-3.5c-4.4,0.2-8.7,0.2-13.1,0
	c-2.4-0.1-3.3,0.7-3.2,3.2c0.1,6.5,0.1,13,0,19.5c0,0.2-0.1,0.4-0.2,0.7c-0.3-0.1-0.6-0.3-1-0.6c-0.2-7.2-0.3-14.2-0.1-21.8
	c0.4-1.1,0.5-1.6,0.6-2.1c6.8,0,13.6-0.1,20.7,0.2c0.5,0.8,0.7,1.3,0.9,1.7C317.9,19.1,317.9,26.4,317.9,34z"/>
<path class="st13" d="M172.9,146.2c1.4,0.2,2.4,0.2,4.5,0.3c-2.3-3.6-9.8-3.4-5.7-9.1c1.9-2.6,5-2.3,7.9,0.4
	c-1.7,0.5-3.5,0.9-5.8,1.6c2.5,2.7,9.3,3.5,4.7,8.9c-2.1,2.5-5.2,1.9-8.3-0.4C171.2,147.2,171.9,146.6,172.9,146.2z"/>
<path class="st11" d="M194.3,146.3c1.4,0,2.4-0.2,3.5-0.2c1,0.1,2,0.5,3.4,0.8c-3.8,3.5-7.1,3.6-10.1,0.8c-2.7-2.6-3-6.7-0.7-9.5
	c2.5-3.1,6.3-3.5,10.5-0.5c-1.3,0.5-2.3,0.9-3.3,1.2c-1.6,0.5-4.5,0.7-4.6,1.5C192.7,142.3,193.6,144.3,194.3,146.3z"/>
<path class="st6" d="M688.6,105.4c3.9,1.2,7.9,3,12.1,3.9c10.2,2.1,20.3,1.7,30-2.6c0.9-0.4,1.9-0.6,3.1-0.9
	C723.5,113.9,701.6,115.2,688.6,105.4z"/>
<path class="st8" d="M566,10.3c0.3,11.4,0.3,22.7,0.3,34.1c0,1.1-0.8,2.3-1.5,3.5c-0.3-11.8-0.4-23.6-0.4-35.5
	C564.3,11.7,565.2,11,566,10.3z"/>
<path class="st15" d="M149.3,49.5c-0.1,1.1-0.3,2.5-0.9,3.7c-7.2,14.2-6.3,28,1.7,41.5c0.4,0.7,0.6,1.6,1,2.6
	C139.8,84.7,139,65.4,149.3,49.5z"/>
<path class="st15" d="M159.4,105.3c2.8,0.8,5.7,1.8,8.5,2.9c12.1,4.8,23.6,3.3,34.6-3.3c0.9-0.6,2-0.9,3.3-1.4
	C193.6,114.7,175.3,115.5,159.4,105.3z"/>
<path class="st15" d="M595.7,136.2c1.1,0.2,2.4,0.6,3.7,1c5.3,1.6,10.5,4,15.9,4.6c8.1,0.9,16.4,0.5,24.3-2.5
	c0.7-0.3,1.5-0.2,2.5-0.2c-4.2,1.4-8.7,3.4-13.4,4C617.1,144.7,605.8,143.3,595.7,136.2z"/>
<path class="st15" d="M207.5,41.6c-2.1-0.8-4.3-1.8-6.4-3c-13.9-7.7-27.4-6.7-40.7,1.3c-0.8,0.5-1.8,0.8-2.9,1.2
	c12.2-9.9,25.9-11.5,40.4-5.5C201.2,37.1,204.2,39.5,207.5,41.6z"/>
<path class="st12" d="M132.8,34c-0.5-0.8-1.2-2-1.3-3.1c-0.1-5.6-0.1-11.2,0-16.9c0.1-2.3-0.8-3.1-3.1-3c-4.5,0.1-9,0.2-13.5,0
	c-2.6-0.1-3.1,1-3.1,3.3c0.1,6.6,0,13.2,0,19.8c-0.3,0-0.7,0-1,0c0-7.5,0-15.1-0.2-22.9c-0.2-0.4-0.3-0.5,0.1-0.9
	c0.6-0.3,0.8-0.4,0.9-0.5c6.8,0,13.7,0,21.1,0C132.9,17.8,132.9,25.7,132.8,34z"/>
<path class="st16" d="M165.1,140.6c0,2.5,0.1,4.6-0.1,6.7c-0.1,0.7-1,1.4-1.5,2.1c-0.6-0.7-1.6-1.4-1.7-2.2c-0.2-2.6-0.1-5.2-0.1-8
	c-1-0.2-1.9-0.2-2.6-0.5c-0.5-0.3-0.9-1-1-1.6c0-0.3,0.8-1,1.2-1c2.6-0.1,5.2-0.1,7.9,0c0.6,0,1.1,0.7,1.6,1.1
	c-0.5,0.5-1,1.1-1.5,1.6C166.6,139.3,165.9,139.8,165.1,140.6z"/>
<path class="st6" d="M243.1,34c-1.4,1.1-2.9,2.6-4.8,3.3c-10.4,3.9-15.9,19.9-9.3,29c0.3,0.4,0.2,1,0.3,1.7
	c-8-8.6-5.3-23.7,5.4-30.1C237.2,36.4,240.1,35.3,243.1,34z"/>
<path class="st11" d="M288.7,145.8c-0.5,1.4-1,2.4-1.5,3.5c-0.5-1.1-1-2.1-1.5-3.2c-0.9-2-1.6-4.1-2.5-6c-0.6-1.2-1.4-2.3-2.1-3.5
	c3.2-0.8,3.2-0.8,5.8,3.6c2.4-0.8,2.1-5.8,6-3.9C291.5,139.3,290.1,142.4,288.7,145.8z"/>
<path class="st6" d="M737,40.8c-2.6-1-5.3-2.3-8-3.5c-10.8-4.7-21.7-5.1-32.7-0.8c-0.9,0.4-1.9,0.5-3.2,0.6
	C705,29.6,725.6,31.3,737,40.8z"/>
<path class="st15" d="M600.7,107.2c1.4,0.1,3,0.3,4.4,0.8c10.4,3.6,20.7,4.8,30.5-1.8c0.3-0.2,0.7-0.1,1.3,0
	c-7.2,7-16.2,7.3-25.4,5.3C607.9,110.7,604.5,108.8,600.7,107.2z"/>
<path class="st13" d="M154.1,146.4c1.1,0.1,1.9-0.1,2.6,0.2c0.7,0.3,1.2,0.9,1.8,1.4c-0.6,0.5-1.2,1.3-1.8,1.3
	c-2.1,0.2-4.2,0.1-6.8,0.1c0-4.1-0.1-7.9,0.1-11.8c0-0.6,1-1.1,1.5-1.6c0.6,0.6,1.5,1.2,1.6,1.9
	C153.4,140.7,153.6,143.5,154.1,146.4z"/>
<path class="st7" d="M210.1,99.9c1.1-2.1,2.4-4.3,3.7-6.5c0.9-1.6,1.8-3.2,3.4-5.8c-9,1.4-17.6-2.9-25.5,3.8c-0.7,0-0.9,0-1,0
	c3.3-4.5,7.7-5.6,13.1-5.2c4.8,0.4,9.7,0.1,16,0.1C216.2,91.3,213.3,95.6,210.1,99.9z"/>
<path class="st9" d="M609.9,119.4c-2.9-0.3-5.9-0.7-8.8-0.7c-4.1-0.1-8.2-0.2-12.3,0.1c-1.1,0.1-2.1,1.4-3.3,2.5
	c-0.8-0.9-1.4-2.2-2.4-4.3c3.5,0,6.3,0,9.1,0c5,0,9.9-0.1,14.9,0.1c1.2,0,2.4,1.1,3.4,2C610.2,119.4,610,119.4,609.9,119.4z"/>
<path class="st15" d="M236.6,73.8c8.2,1.6,16.6,3.8,23.7,8.7c5,3.4,4.9,8.1,0.1,10.6c3.3-4.2,2.9-7.7-2-10.2
	c-3.5-1.8-7.3-2.9-11-4.4C243.8,77,240.3,75.5,236.6,73.8z"/>
<path class="st9" d="M190.4,91.4c0.5,0,0.6,0,1.1,0.1c-4.1,5.1-16.5,4.4-22.1-1c-2.3-2.3-4.1-5.2-5.7-8.1c-0.4-0.8,0.5-2.4,1.2-3.6
	c-0.7,4.8,2.2,7.9,5.4,10.4C176.3,94,182.9,95.6,190.4,91.4z"/>
<path class="st6" d="M638.5,103.6c1.1-0.7,2.1-1.4,3.2-2.2c0.4,1,1.2,2,1.3,3c0.2,5.8-1.7,11-5.4,15.4c-0.9,1.1-2.6,1.7-4.2,2.4
	c5.1-4.7,8.2-10.4,7.4-17.7c0-0.3-0.3-0.6-1.1-0.9C638.9,103.6,638.7,103.6,638.5,103.6z"/>
<path class="st7" d="M280.8,100.6c-0.2-0.6-0.3-1.4,0-2.1c4.6-9.2,3.9-17.9-2.5-26.4c7.1,5,9.1,16.1,4.5,25.4
	C282.3,98.6,281.6,99.5,280.8,100.6z"/>
<path class="st14" d="M110.1,34.8c-1.9,0.3-4.1,1-6.3,1c-2.5,0-3.5,0.9-3.2,3.3c0.1,0.5,0,1,0,1.5c0.1,2.9-0.9,6.6,0.5,8.4
	c1.2,1.5,5.2,0.9,7.9,1.2c0.3,0,0.5,0.6,0.7,1.1c-3.4,0.2-6.8,0.2-10.6,0.2c0-5.1,0-10,0.2-15.4c0.4-0.6,0.5-0.8,0.5-1
	C103.2,35,106.5,34.9,110.1,34.8z"/>
<path class="st12" d="M295.1,34.8c-1.9,0.3-4,1-6.2,1c-2.4,0-3.3,0.8-3.2,3.2c0.2,2.7,0.2,5.5,0,8.2c-0.1,2.4,0.9,2.9,3.1,3
	c2.2,0,4.4,0.6,6.6,1.3c-3.6,0.3-7.2,0.3-11.1,0.3c0-5.3,0-10.3,0.2-15.7c0.4-0.6,0.4-0.8,0.5-1C288.2,35,291.5,34.9,295.1,34.8z"/>
<path class="st10" d="M318.5,51.8c0.5-3,3-1.6,4.7-1.5c3.1,0.1,4.3-0.8,4-4c-0.3-3.1,0.9-6.9-0.6-9.1c-1.1-1.6-5.3-1.2-8.3-2
	c3.3-0.3,6.7-0.3,10.4-0.3c0,5.7,0,11,0,16.9C325.4,51.8,322.1,51.8,318.5,51.8z"/>
<path class="st15" d="M220.3,68.2c-2.1-5.8-3.9-11.7-6.5-17.2c-1.5-3.2-4.1-5.8-6.2-8.9c8.1,6.4,12.1,15.3,13.3,25.8
	C220.6,68.2,220.3,68.2,220.3,68.2z"/>
<path class="st10" d="M133.4,51.8c0.5-3,3-1.5,4.7-1.5c3.1,0.1,4.3-0.9,4-4c-0.3-3.1,0.9-6.9-0.6-9.1c-1.1-1.6-5.3-1.2-8.3-2
	c3.2-0.3,6.6-0.3,10.5-0.3c0,5.2,0,10.3-0.3,15.8c-0.5,0.5-0.6,0.7-0.7,0.9C139.8,51.6,136.8,51.7,133.4,51.8z"/>
<path class="st6" d="M632.8,122.3c0.2,0.4,0.2,1-0.1,1.3c-4.7,4.1-16.1,3.2-20.4-1.8C618.9,125.2,625.6,125.5,632.8,122.3z"/>
<path class="st6" d="M111,52.4c0.2,17.4,0.2,34.8,0.2,52.2c0,1.2-0.2,2.5-0.5,3.9c-0.3-18.3-0.3-36.9-0.3-55.8
	C110.5,52.4,110.9,52.4,111,52.4z"/>
<path class="st12" d="M165.7,79c1-0.4,2.4-1,3.8-1c16.5-0.1,32.9,0,49.7,0.2c0.3,0.4,0.3,0.6,0.3,0.7C201.7,79,183.8,79,165.7,79z"
	/>
<path class="st6" d="M619.4,79.7c-5.3-2.1-5.9-10.5-0.8-13.8c0.2-0.1,0.3,0,0.3,0.3c-3.4,4.8-3,9.1,0.7,13.3
	C619.6,79.6,619.4,79.7,619.4,79.7z"/>
<path class="st15" d="M259.8,93.1c-1.9,4.4-8.5,4.3-11.7-0.6C251.7,94.8,255.5,95.2,259.8,93.1z"/>
<path class="st15" d="M643.3,139c4.1-3.3,8.6-6.5,13.3-9.6C652.4,132.6,648,135.8,643.3,139z"/>
<path class="st6" d="M724.3,75c-3.8,3.3-7.6,6.5-11.7,9.8c-0.3,0-0.4-0.1-0.3-0.3c1.6-1.8,3.1-3.5,4.8-4.8
	C719.3,77.9,721.8,76.5,724.3,75C724.2,75,724.3,75,724.3,75z"/>
<path class="st15" d="M662.3,113.5c0.2-0.2,0.5-0.2,0.7-0.2c-1.4,4.7-3,9.4-4.7,14.2C659.4,123.1,660.8,118.4,662.3,113.5z"/>
<path class="st7" d="M664,35.9c0,7.7,0,15.4-0.3,22.9c-0.3-7.8-0.3-15.3-0.1-22.9C663.6,35.9,664,35.9,664,35.9z"/>
<path class="st12" d="M663.3,35.9c0,7.5,0,15.1,0,23c-0.1,0.4-0.3,0.4-0.6,0.4c-0.2-7.6-0.2-15.1-0.2-23.1c0-0.4,0-0.4,0.2-0.4
	C663.1,35.9,663.2,35.9,663.3,35.9z"/>
<path class="st15" d="M587.9,127.9c2.5,2.3,5.1,4.9,7.6,7.8C593,133.4,590.5,130.8,587.9,127.9z"/>
<path class="st6" d="M712.3,84.9c-0.9,1.1-1.9,2.1-3.7,4.1c0-3.1,0-5.2-0.1-7.6c-0.1-0.3-0.1-0.3,0.2-0.3c0.8,0.7,1.4,1.3,2,2
	c0.5,0.6,1,1.2,1.5,1.8C712.2,84.7,712.2,84.8,712.3,84.9z"/>
<path class="st12" d="M643.3,35.9c-0.4-0.1-0.4-0.3-0.3-0.7c6.3-0.3,12.6-0.3,19.2-0.1c0.4,0.4,0.4,0.5,0.4,0.7c0,0,0,0,0,0
	C656.3,35.9,650,35.9,643.3,35.9z"/>
<path class="st6" d="M722.7,68.9c1.4,1.1,2.8,2.2,4.5,3.6c-1,0.9-1.7,1.6-2.7,2.4c-0.2,0.1-0.3,0-0.3-0.3
	C723.7,72.6,723.2,70.8,722.7,68.9C722.7,69,722.7,68.9,722.7,68.9z"/>
<path class="st15" d="M156.9,41.2c-1.4,1.7-3,3.4-4.8,5.2C153.4,44.7,155,43,156.9,41.2z"/>
<path class="st15" d="M151.8,98.6c1.4,1.1,3,2.4,4.5,4.1C154.9,101.5,153.4,100.2,151.8,98.6z"/>
<path class="st6" d="M230.9,70c1.6,0.8,3.4,1.9,5.2,3.2C234.4,72.4,232.7,71.3,230.9,70z"/>
<path class="st15" d="M593.5,101.5c1.5,1,3.2,2.2,4.7,3.7C596.7,104.2,595.1,103,593.5,101.5z"/>
<path class="st6" d="M683.6,101.6c1.4,0.8,2.9,1.9,4.5,3.2C686.7,104,685.2,102.9,683.6,101.6z"/>
<path class="st12" d="M220.3,68.6c0-0.3,0.3-0.3,0.5-0.3c0.2,3,0.3,6.1,0.1,9.4c-0.3,0.3-0.6,0.3-0.6,0.3
	C220.3,75,220.3,71.9,220.3,68.6z"/>
<path class="st5" d="M295.5,70.1c0.2,2,0.3,4.4,0.3,6.9C295.6,74.9,295.5,72.7,295.5,70.1z"/>
<path class="st6" d="M692.4,37c-1.1,0.8-2.4,1.7-4.1,2.5C689.4,38.8,690.8,37.9,692.4,37z"/>
<path class="st15" d="M151.6,46.4c-0.4,0.9-0.9,1.9-1.8,2.9C150.1,48.4,150.7,47.5,151.6,46.4z"/>
<path class="st6" d="M609.9,119.7c0.1-0.3,0.2-0.3,0.6-0.3c0.7,0.6,1.2,1.1,1.7,1.9C611.5,121,610.7,120.4,609.9,119.7z"/>
<path class="st5" d="M295.5,54.3c0.2,1.3,0.3,2.9,0.3,4.7C295.6,57.6,295.5,56.1,295.5,54.3z"/>
<path class="st6" d="M278.8,103c0.3-0.7,0.7-1.5,1.5-2.4C280.1,101.4,279.6,102.2,278.8,103z"/>
<path class="st5" d="M295.5,81.3c0.2,1.1,0.3,2.4,0.3,4C295.6,84.2,295.5,82.9,295.5,81.3z"/>
<path class="st15" d="M245.2,89.5c0.1-0.3,0.3-0.3,0.8-0.3c0.6,0.6,1,1.2,1.4,2.1C246.7,90.9,246,90.3,245.2,89.5z"/>
<path class="st9" d="M687,40.2c-0.3,0.5-0.8,1.1-1.7,1.6C685.6,41.3,686.2,40.8,687,40.2z"/>
<path class="st15" d="M157.2,103.8c0.6,0.2,1.3,0.5,2.1,1.1C158.7,104.8,158,104.4,157.2,103.8z"/>
<path class="st15" d="M598.5,105.7c0.6,0.1,1.4,0.4,2.1,1C599.9,106.6,599.2,106.2,598.5,105.7z"/>
<path class="st15" d="M662.8,35.9c-0.2-0.1-0.2-0.3-0.2-0.6c0.5-0.1,1,0.1,1.5,0.4c0,0.2-0.4,0.2-0.5,0.2
	C663.2,35.9,663.1,35.9,662.8,35.9z"/>
<path class="st15" d="M657,129.3c0.1-0.5,0.3-1,0.8-1.6C657.8,128.2,657.5,128.7,657,129.3z"/>
<path class="st15" d="M638.3,103.7c0.4-0.2,0.6-0.1,1.1-0.1c-0.1,0.5-0.4,1-0.9,1.6C638.2,104.9,638.1,104.4,638.3,103.7z"/>
<path class="st6" d="M734.3,105.9c0.2-0.4,0.6-0.9,1.3-1.2C735.4,105.1,734.9,105.5,734.3,105.9z"/>
<path class="st9" d="M220.1,78c0.2,0,0.5,0,0.7,0c-0.2,0.4-0.6,0.8-1.1,1.1c-0.1-0.3-0.1-0.4-0.1-0.8C219.6,78,219.9,78,220.1,78z"
	/>
<path class="st6" d="M621.1,79.5c0,0.2,0,0.4,0.1,0.8c-0.5,0-1-0.1-1.7-0.3c-0.1-0.2,0-0.3,0.3-0.4
	C620.5,79.5,620.8,79.5,621.1,79.5z"/>
<path class="st5" d="M296.1,9.8c0.1,0.6,0,1.1-0.3,1.8C295.7,11.1,295.8,10.4,296.1,9.8z"/>
<path class="st5" d="M317.9,11.6c-0.3-0.3-0.5-0.7-0.7-1.5C317.5,10.4,317.8,10.9,317.9,11.6z"/>
<path class="st5" d="M295.5,102.4c0.2,0.4,0.3,1,0.2,1.8C295.6,103.7,295.5,103.2,295.5,102.4z"/>
<path class="st5" d="M295.5,97.8c0.2,0.4,0.3,1,0.2,1.8C295.6,99.2,295.5,98.7,295.5,97.8z"/>
<path class="st5" d="M317.6,109.7c-0.2-0.4-0.1-0.8,0.1-1.4C317.9,108.6,317.9,109.1,317.6,109.7z"/>
<path class="st6" d="M721.4,68c0.4,0.1,0.8,0.4,1.2,0.8c0.1,0.2,0,0.2-0.2,0.2c-0.6-0.3-0.9-0.5-1.2-0.8
	C721.2,68.2,721.4,68,721.4,68z"/>
<path class="st15" d="M592.4,100.2c0.3,0.1,0.6,0.3,1,0.8C593.1,101,592.7,100.7,592.4,100.2z"/>
<path class="st5" d="M111.6,9.8c0,0.2-0.2,0.3-0.7,0.5C110.9,10.1,111.1,9.9,111.6,9.8z"/>
<path class="st5" d="M99.7,35.1c0.2,0.2,0.1,0.4-0.2,0.7C99.4,35.6,99.5,35.4,99.7,35.1z"/>
<path class="st5" d="M284.8,35.1c0.2,0.2,0.1,0.4-0.2,0.7C284.4,35.6,284.5,35.4,284.8,35.1z"/>
<path class="st12" d="M637.2,59.3c-0.2-0.2-0.2-0.4-0.2-0.7c0.2,0,0.4,0.1,0.7,0.5C637.6,59.3,637.5,59.3,637.2,59.3z"/>
<path class="st5" d="M143,51.6c-0.1-0.3,0-0.4,0.4-0.6C143.5,51.2,143.3,51.4,143,51.6z"/>
<path class="st6" d="M739.4,43.1c-0.2,0.1-0.4-0.1-0.7-0.4C738.8,42.6,739.1,42.8,739.4,43.1z"/>
<path class="st6" d="M687.9,39.6c0,0.2-0.1,0.4-0.5,0.6C687.3,40,687.5,39.8,687.9,39.6z"/>
<path class="st6" d="M278,103.8c-0.1-0.2,0-0.4,0.3-0.7C278.5,103.4,278.4,103.6,278,103.8z"/>
<path class="st6" d="M738.6,42.4c-0.2,0.1-0.4-0.1-0.7-0.4C738.1,41.9,738.3,42,738.6,42.4z"/>
<path class="st6" d="M277.2,104.6c-0.1-0.2,0-0.5,0.4-0.7C277.7,104.2,277.6,104.4,277.2,104.6z"/>
<path class="st15" d="M637.6,106.1c-0.1-0.2,0-0.4,0.3-0.6C638,105.7,637.9,105.9,637.6,106.1z"/>
<path class="st6" d="M737.8,41.6c-0.2,0.1-0.4-0.1-0.7-0.4C737.3,41.2,737.5,41.3,737.8,41.6z"/>
<path class="st5" d="M295.6,106.8c0.1,0,0.2,0.2,0.2,0.5C295.6,107.2,295.5,107.1,295.6,106.8z"/>
<path class="st5" d="M295.5,109.1c0.2,0,0.4,0.1,0.6,0.5C296,109.6,295.7,109.5,295.5,109.1z"/>
<path class="st17" d="M164.6,63.7c3.1-8.4,9.1-12.7,17.5-12.5c8.1,0.2,14.2,4.7,16.1,12.5C186.8,63.9,175.7,63.8,164.6,63.7z"/>
<path class="st12" d="M164.7,64c11-0.2,22-0.1,33.5,0c-0.5,0.4-1.3,1.2-2.1,1.2c-9.7,0.1-19.4,0.1-29.1,0
	C166.3,65.2,165.5,64.6,164.7,64z"/>
<path class="st18" d="M374.9,102.8c-18.1,1.7-27.8-8-32-17.2c-5.2-11.4-2-27.2,7.1-35.3c10.1-9,24.7-10.3,36.3-3.2
	c10,6.1,15.9,18.9,13.7,30.8c-2.4,12.5-9.6,20.9-22.1,24.4C377,102.4,376.1,102.6,374.9,102.8z"/>
<path class="st18" d="M507.5,85.6c-7.7-18.7,2.3-38.8,21.4-42.5c11.7-2.3,21.9,1.2,29.4,10.7c7.8,10,8.9,21.1,3.5,32.4
	c-5.2,10.9-14.1,16.6-26.3,16.7C522.7,103.1,513.2,97.6,507.5,85.6z"/>
<path class="st19" d="M720.9,68.2c0.6,0.3,0.9,0.5,1.5,0.8c0.7,1.8,1.3,3.6,1.8,5.7c-2.4,1.8-4.9,3.3-7.2,5c-1.7,1.3-3.2,3-4.8,4.8
	c-0.5-0.3-1-0.9-1.5-1.5c-0.6-0.7-1.1-1.3-2-2c-1.7-0.5-3-1.4-4.4-1.4c-27.5-0.1-55-0.1-82.9-0.1c-0.7,0-1,0-1.6,0
	c-4-4.1-4.5-8.4-1-13.2c7.9-0.5,15.7-1,23.6-1.1c20.8-0.1,41.5,0,62.3,0c3.1,0,6.1,0.1,6.2-4.6C714.5,63.3,717.6,65.8,720.9,68.2z"
	/>
<path class="st17" d="M207,145.3c-1.7-3.1-1-5.4,2-6.7c2.4-1,4.3,0.3,5.1,2.5c0.8,2.4,0.1,4.7-2.5,5.4
	C210.3,146.9,208.7,145.9,207,145.3z"/>
</svg>
