<?xml version="1.0" encoding="utf-8"?>
<!-- Generator: Adobe Illustrator 26.3.1, SVG Export Plug-In . SVG Version: 6.00 Build 0)  -->
<svg version="1.1" id="Layer_1" xmlns="http://www.w3.org/2000/svg" xmlns:xlink="http://www.w3.org/1999/xlink" x="0px" y="0px"
	 viewBox="0 0 855.7 163.8" style="enable-background:new 0 0 855.7 163.8;" xml:space="preserve">
<style type="text/css">
	.st0{fill:#FFFEFE;}
	.st1{fill:#E72429;}
	.st2{fill:#E7252B;}
	.st3{fill:#A7A7AA;}
	.st4{fill:#A6A6A9;}
	.st5{fill:#E7262B;}
	.st6{fill:#E1212A;}
	.st7{fill:#E32E38;}
	.st8{fill:#A2A2A4;}
	.st9{fill:#E11E26;}
	.st10{fill:#E4141B;}
	.st11{fill:#959799;}
	.st12{fill:#E10E18;}
	.st13{fill:#929597;}
	.st14{fill:#E20712;}
	.st15{fill:#E2232D;}
	.st16{fill:#989A9C;}
	.st17{fill:#FEF8F9;}
	.st18{fill:#FEFEFE;}
	.st19{fill:#E72329;}
</style>
<path class="st0" d="M586.2,231.3c-185,0-369.7,0-554.3,0c0-97.8,0-195.6,0-293.3c264,0,528,0,792,0c0,97.8,0,195.6,0,293.3
	C744.8,231.3,665.7,231.3,586.2,231.3 M739.6,46.6c-0.2-0.1-0.5-0.3-0.7-0.3c0,0,0.1,0-0.1-0.5c-11.3-9.3-31.9-11-44.2-3.6
	c0,0,0,0-0.6,0.1c-1.4,0.8-2.7,1.6-4.1,2.5c0,0,0-0.1-0.4,0c-0.2,0.2-0.3,0.4-0.4,0.6c0,0,0-0.1-0.5,0c-0.6,0.5-1.1,1-1.7,1.6
	c0,0,0-0.1-0.5,0.1c-5.4,4.6-9.2,10.3-11.5,17.5c7.5,0,14.5-0.1,21.4,0c2.5,0,4.4-0.5,6.4-2.2c6.8-5.7,16.2-5.2,22.5,0.8
	c7.4,7.1,8.3,15.4,2.5,25.8c-6.2,7.4-15.4,9.6-22.7,4.8c-3.3-2.2-6.4-2.8-10.1-2.7c-3.6,0.1-7.3,0-10.9,0c-2.8,0-5.6,0-8.9,0
	c2.4,6,5.1,10.8,9.6,14.9c0.1,0.2,0.3,0.3,0.8,0.8c1.5,1.1,2.9,2.2,4.5,3.4c0,0,0.2,0,0.5,0.4c12.9,9.6,34.8,8.2,45.3,0.2
	c0,0,0,0.1,0.5,0c0.4-0.4,0.9-0.7,1.3-1.2c0,0,0.1,0.1,0.5-0.1c3.6-4,7.9-7.5,10.6-11.9c10.5-17.2,5-41-7.6-49.3c0,0,0.1,0-0.1-0.4
	c-0.2-0.1-0.5-0.3-0.7-0.3c0,0,0.1,0-0.1-0.4c-0.2-0.1-0.5-0.3-0.7-0.3C739.7,47,739.8,47,739.6,46.6 M279.7,109c0,0,0.1,0,0.4-0.1
	c0.2-0.1,0.3-0.3,0.4-0.6c0,0,0.1,0,0.5-0.2c0.5-0.7,1.1-1.5,1.5-2.2c0,0,0.1,0,0.5-0.2c0.6-1,1.2-1.9,1.7-2.9
	c4.6-9.3,2.6-20.4-4.5-25.6c0,0,0.1,0-0.2-0.5c-5.9-2.6-11.8-5.3-17.7-7.8c-3.4-1.5-7.1-2.4-10.4-4.1c-3-1.6-3.4-4.8-1.6-7
	c2.4-3,9.6-3.3,10.9,0c1.7,4.2,4.6,3.4,7.5,3.4c5.3,0,10.6,0,16.1,0c-0.6-7.2-3-13-8.2-17c-9.4-7.2-20-8.6-31.3-4.9c0,0,0-0.1-0.5,0
	c-2.7,1.3-5.5,2.3-8.1,3.9c-10.7,6.4-13.4,21.5-5.3,30.8c0.4,0.3,0.9,0.7,1.6,1.4c1.7,1.1,3.4,2.2,5.2,3.5c0,0,0.2,0,0.6,0.4
	c3.6,1.5,7.1,2.9,10.7,4.4c3.7,1.5,7.5,2.6,11,4.4c4.8,2.5,5.2,6,1.7,10.2c0,0,0,0-0.6,0.1c-4,2-7.8,1.6-11.5-1.3
	c-0.1-0.2-0.3-0.4-0.7-0.8c-0.3-0.6-0.7-1.3-1.1-2.5c-0.2-0.3-0.5-0.8-0.7-0.8c-7.2,0-14.4,0-21.8,0c1.2,10.9,6.8,18.7,16.4,22.3
	c12.9,4.9,25.7,4.1,36.9-5.4c0,0,0.1,0,0.4-0.1C279.5,109.5,279.6,109.4,279.7,109 M640,110.6c0,0,0.1,0,0.5-0.3
	c0.3-0.5,0.7-1,1.6-1.5c0.2,0.3,0.5,0.6,0.5,0.9c0.8,7.3-2.3,13-7.5,17.7c0,0-0.1-0.1-0.6,0c-6.9,3.2-13.6,2.9-20.3-0.8
	c0,0,0.1-0.1-0.1-0.5c-0.5-0.6-1-1.1-1.5-2.3c-1.2-0.6-2.4-1.7-3.6-1.7c-5-0.2-9.9-0.1-14.9-0.1c-2.8,0-5.6,0-9.1,0
	c1,2.1,1.6,3.3,2.1,5.1c0.9,1.8,1.8,3.7,2.7,6.1c2.6,2.6,5.1,5.2,7.7,7.7c0,0-0.1,0,0.2,0.5c10,6.9,21.2,8.3,32.9,6.6
	c4.7-0.7,9.1-2.6,14-4c0,0,0.3-0.1,0.9,0c4.4-3.2,8.8-6.4,13-9.8c0,0,0.3,0.2,0.7-0.1c0.3-0.5,0.6-1,0.8-1.5c0,0,0,0.1,0.5-0.2
	c1.6-4.7,3.1-9.4,4.9-14.7c0-8.8,0-17.6,0-26.6c-0.9,0-2,0-3.2,0c-7.5,0-15-0.1-22.5,0.1c-1.1,0-2.3,0.8-3.3,1.5
	c-6.3,4.6-15.1,5.1-21.3,0.7c-7.2-5.1-9.3-12.6-7.5-22.8c1-5.6,9.3-11.6,16.1-12.2c6-0.5,10.8,2,15.6,5.9c0.1,0,0.3-0.1,1,0.1
	c8.1-0.1,16.1-0.1,24.6-0.1c0.1,0,0.3-0.1,1-0.4c0-7.7,0-15.4,0.1-23.5c-0.5-0.2-1-0.3-2.2-0.6c-6.3,0-12.5,0.1-19.2-0.1
	c-0.7,1.6-1.4,3.2-2.1,4.8c-18.6-11-37.8-8.6-48.7,6c0,0,0-0.1-0.5,0.2c-4.2,5.2-7,11-8.1,17.5c-2.4,13.5-0.7,26.1,9.3,36.6
	c0,0-0.2,0.1-0.1,0.5c0.3,0.3,0.6,0.5,0.9,0.9c0,0,0,0,0.3,0.4c1.5,1.2,3,2.5,4.7,3.7c0,0,0,0.1,0.3,0.4c0.6,0.4,1.3,0.7,2.1,0.9
	c0,0-0.1,0.2,0.2,0.6c3.6,1.4,7,3.4,10.8,4.2c9.2,2,18.2,1.7,25.7-5.3c0,0,0.1-0.1,0.4-0.2C639.8,111,639.9,110.9,640,110.6
	 M223,82.5c-0.1-3-0.1-6.1-0.1-9.7c-1.4-10.2-5.4-19.1-13.5-25.7c0,0,0.1,0-0.2-0.5c-3.2-1.9-6.2-4.3-9.6-5.7
	c-14.5-6-28.2-4.4-40.7,5.5c0,0,0,0-0.5,0.1c-1.6,1.7-3.2,3.4-4.8,5.1c0,0,0-0.1-0.5,0.2c-0.6,0.9-1.2,1.9-1.8,2.8
	c0,0,0-0.1-0.5,0.2c-10.1,15.8-9.3,35.1,2.1,48.3c0.1,0.2,0.3,0.4,0.8,0.9c1.5,1.4,2.9,2.7,4.5,4.4c0.2,0.2,0.4,0.3,0.9,0.7
	c0.6,0.4,1.3,0.8,2,1.1c0,0-0.1,0,0.2,0.5c15.8,10,34.1,9.2,46.9-2.1c1.1-1.1,2.2-2.3,3.8-3.6c3-4.2,5.9-8.5,9.5-13.5
	c-6.3,0-11.2,0.3-16-0.1c-5.4-0.4-9.8,0.7-13.6,5.2c-7.2,4.2-13.8,2.6-19.9-2.1c-3.2-2.5-6-5.7-5-10.3c0,0,0.1,0,0.8,0.1
	c17.8,0,35.7-0.1,53.8,0.1C222.1,83.9,222.4,83.5,223,82.5 M724.4,73.7c-0.3-0.2-0.7-0.5-1.3-1.1c-4-3.5-8-7-12.7-11.1
	c0,3.2,0,5.5,0,8c-1.4,0-2.4,0-3.4,0c-26.5,0-53.1,0-79.6,0.1c-2.2,0-4.5,1-7.2,1.7c-4.9,3.2-4.3,11.6,1.3,14
	c0.5,0.1,1.1,0.2,2.2,0.7c1.2,0.1,2.5,0.2,3.7,0.2c27.6,0,55.2,0,83,0.7c0,2.1,0,4.2,0,7.3c1.8-1.9,2.8-3,4.3-4.1
	c3.8-3.3,7.6-6.5,11.9-10c0.8-0.7,1.5-1.5,2.5-2.3C727.4,76.3,726,75.2,724.4,73.7 M145.1,56.8c0.1-0.2,0.2-0.5,0.5-1.4
	c0-5.1,0-10.1,0-15.4c-3.9,0-7.3,0-10.7-0.3c0,0-0.3-0.2-0.2-0.9c0-7.9,0-15.8,0-23.8c-7.5,0-14.3,0-21.5-0.2c-0.3,0.2-0.5,0.4-1,1
	c0,0.1,0.1,0.3,0,1.1c0,7.6,0,15.3-0.6,23.1c-3.3,0.1-6.5,0.2-10.3,0.3c0,0.3-0.1,0.5-0.3,1.5c0,5,0,9.9,0,15c3.8,0,7.2,0,10.7,0.3
	c0.2,0.2,0.4,0.4,0.4,1.2c0,18.6,0.1,37.1,0.2,56.4c7.3,0,14.6,0,22,0c0.1-0.2,0.3-0.5,0.3-0.9c0-18.7-0.1-37.5,0.1-56.5
	c0-0.1,0-0.3,0.8-0.4C138.6,56.8,141.7,56.8,145.1,56.8 M286.4,40.2c0,0.3-0.1,0.5-0.2,1.5c0,5,0,9.9,0,15.3c3.9,0,7.5,0,11.1-0.1
	c0,0-0.1,0,0,0.6c0.1,0.5,0.1,1.1,0.1,2.3c0.1,1.5,0.1,3.1,0,5.3c0,3.3,0.1,6.6,0,10.5c0.1,2.3,0.1,4.5,0,7.4c0,1.1,0.1,2.1,0,3.8
	c0.1,1.3,0.1,2.6,0,4.5c0,3.8,0.1,7.6,0,11.9c0.1,0.6,0.1,1.1,0,2.2c0,0.6,0.1,1.1,0,2.3c0.1,0.6,0.1,1.1,0,2.2c0,0.6,0.1,1.1,0,2.1
	c0,0.1,0.1,0.2,0,0.9c0,0.3,0.1,0.7,0,1.5c0.2,0.2,0.5,0.3,1.4,0.7c6.8-0.1,13.6-0.2,20.9-0.4c0-0.5,0-1,0.1-2.2c0-2.1,0-4.2,0-6.4
	c0.1-16.4,0.1-32.9,0.1-49.3c0,0,0,0.1,0.7,0c3.3,0,6.6,0,9.8,0c0-5.9,0-11.2,0-16.9c-3.6,0-7.1,0-10.5-0.3c0,0-0.2-0.2-0.1-0.9
	c0-7.3-0.1-14.6,0-22.3c-0.2-0.5-0.5-1-1.4-1.7c-6.8,0-13.6,0.1-20.8,0.1c-0.1,0.7-0.2,1.3-0.4,2.7c0,7,0.1,14.1,0,21.5
	c0,0.3,0,0.5-0.7,0.9C293.4,40.1,290.1,40.2,286.4,40.2 M565.8,52.9c-12.9-16.2-34.4-17.2-49.5-8.3c-23.7,13.9-25.9,46.2-4.7,63.6
	c13.7,11.2,33.8,11.7,47.7,1c2.5-2,4.7-4.4,6.8-6c0,1.4-0.1,2.7-0.1,4.1c0,8.5,0,8.5,8.6,7.8c0.2,0,0.4-0.2,0.7-0.4
	c0.1-0.3,0.3-0.7,0.3-1c0-32,0-64,0-96c0-0.8-1-1.5-2.2-2.3c-1.8,0-3.6,0-6,0c-0.5,0.7-1.4,1.4-1.4,2.1
	C566.2,29.4,566.3,41.3,565.8,52.9 M332.7,75.4c0,0.9,0,1.8,0,2.6c0,16.4,9.5,30.4,25,36.3c14.6,5.5,31.4,3.3,42.3-10
	c0.4-0.5,1-0.8,2-1.5c0,4.4,0,8.3,0,12.6c1.6,0,2.9,0,4.3,0c5.3,0,5.3,0,5.3-5.3c0-21.5,0-43.1,0-64.6c0-1.3,0-2.7,0-4.2
	c-3.4,0-6.3,0-9.7,0c0,4,0,7.7,0,12.3c-13.4-15.6-29.3-17.8-46.6-10.6C341.6,48.7,334.2,59.8,332.7,75.4 M432.7,75.3
	c0.5-3.8,0.5-7.8,1.5-11.5c3.1-11.9,15.4-18.7,27.3-15.6c10.2,2.7,16.9,11.2,17.1,22.5c0.2,12.3,0.1,24.6,0.1,36.8
	c0,8.3,0,8.4,8.4,7.7c0.3,0,0.7-0.3,1.3-0.5c0-1,0-2.1,0-3.2c0-12.3,0.1-24.6,0-36.8c0-3.6-0.2-7.3-0.9-10.8
	c-3.4-16.1-16-25.8-34.3-24.5c-8.1,0.6-14.9,3.8-20.5,11c0-3.6,0-6.3,0-9c-3.4,0-6.5,0-9.3,0c0,24.8,0,49.3,0,73.7
	c3.3,0,6.2,0,9.4,0C432.7,101.8,432.7,88.9,432.7,75.3 M232.7,149.8c0.4-1,0.7-2,1.1-3c0.6,2.1,0.4,4,0.6,6c0.1,0.7,1.1,1.2,1.7,1.8
	c0.5-0.6,1.4-1.2,1.4-1.8c0.1-3.8,0.1-7.6,0.1-11.2c-7-2.1-5.1,4.7-7.8,6.7c-2.6-2.2-0.7-9.1-7.6-6.6c0,3.6-0.1,7.2,0.1,10.8
	c0,0.7,1,1.3,1.5,2c0.6-0.7,1.4-1.2,1.7-2c0.3-1.2,0.2-2.4,0.3-3.7c1.2,1.1,1.5,2.3,2.1,3.3c0.5,0.9,1.3,1.6,2,2.3
	c0.7-0.8,1.4-1.6,2-2.4C232.2,151.6,232.3,151,232.7,149.8 M267.6,148.9c0,1-0.2,2.1,0.1,3c0.3,1,1.1,1.8,1.7,2.7
	c0.5-0.9,1.4-1.8,1.5-2.8c0.3-1.6,0.1-3.3,0.1-5.2c3.7,2.3,3.2,9.1,9.7,7.7c0-3.9,0.1-7.6-0.1-11.2c0-0.7-1-1.3-1.6-2
	c-0.5,0.7-1.5,1.3-1.6,2c-0.2,1.7-0.1,3.5-0.1,5.6c-3.8-2.5-3.2-9.1-9.7-7.2C267.6,143.7,267.6,145.9,267.6,148.9 M133.4,148.2
	c0.9,1.4,1.8,2.7,2.6,4.1c1.2,2.3,2.9,2.8,5.4,1.7c0-3.7,0.1-7.3-0.1-10.9c0-0.7-1-1.3-1.6-2c-0.6,0.7-1.5,1.3-1.6,2
	c-0.2,1.7-0.1,3.5-0.1,5.7c-3.7-2.6-3.3-9-9.7-7.2c0,3.8-0.1,7.5,0.1,11.3c0,0.6,0.9,1.2,1.4,1.7c0.6-0.6,1.6-1.2,1.7-1.8
	c0.2-1.7,0.1-3.5,0.1-5.3C132.2,147.5,132.7,147.6,133.4,148.2 M214.3,154.6c3.6-1.2,5.1-3.7,4.9-7.4c-0.1-3.1-1.8-5.1-4.7-6.1
	c-3.1-1-6.4-0.6-8,2.2c-1.2,2.1-1.5,5.3-0.8,7.6C206.8,154.4,210.2,155.3,214.3,154.6 M241.1,151.7c0.5,0.9,1,1.9,1.5,2.8
	c0.9-1.6,1.9-3.1,3-5c4.6-0.7,6.4-2.3,5.7-5.3c-0.8-3.1-4.7-4.1-10.2-2.4C241.1,144.8,241.1,147.9,241.1,151.7 M113,152.5
	c0.1,0.6,0.1,1.3,0.2,1.9c0.8-0.1,2.1,0,2.4-0.5c2.6-3.9,4.9-3.3,7.4,0c0.4,0.5,1.7,0.4,3.4,0.7c-2-4.6-3.5-8.5-5.3-12.2
	c-1.1-2.2-2.7-2-3.8,0.3C115.8,145.8,114.5,148.9,113,152.5 M261.2,152.7c1.1,0.7,2.1,1.4,3.2,2.1c0.3-0.3,0.5-0.6,0.8-0.9
	c-1.6-3.7-3.1-7.5-4.8-11.2c-0.9-1.9-2.5-2.4-3.6-0.3c-1.9,3.8-3.5,7.8-5.7,12.8c2.1-0.8,3.6-0.8,3.9-1.5
	C256.3,150.5,258.6,151.6,261.2,152.7 M174.5,151.2c-0.8,0.6-1.5,1.1-2.5,1.9c3.2,2.3,6.2,2.8,8.3,0.4c4.6-5.3-2.2-6.1-4.7-8.9
	c2.4-0.7,4.1-1.1,5.8-1.6c-2.9-2.8-6-3-7.9-0.4c-4.1,5.7,3.3,5.5,5.7,9.1C177.2,151.5,176.1,151.5,174.5,151.2 M195.9,151.3
	c-0.4-1.9-1.4-3.9-1-5.7c0.2-0.8,3-1,4.6-1.5c1-0.3,1.9-0.7,3.3-1.2c-4.2-3-8-2.6-10.5,0.5c-2.3,2.8-2,6.9,0.7,9.5
	c2.9,2.8,6.3,2.7,10.1-0.8c-1.4-0.4-2.4-0.7-3.4-0.8C198.6,151.3,197.6,151.5,195.9,151.3 M167,145.4c0.7-0.5,1.5-0.9,2.1-1.5
	c0.6-0.5,1-1.1,1.5-1.6c-0.5-0.4-1.1-1.1-1.6-1.1c-2.6-0.1-5.2-0.1-7.9,0c-0.5,0-1.3,0.7-1.2,1c0.1,0.6,0.5,1.4,1,1.6
	c0.7,0.4,1.6,0.3,2.6,0.5c0,2.8-0.1,5.4,0.1,8c0.1,0.8,1.1,1.5,1.7,2.2c0.5-0.7,1.4-1.3,1.5-2.1C167.1,150.4,167,148.2,167,145.4
	 M290.5,150.7c1.4-3.1,2.8-6.2,4.2-9.3c-3.9-1.8-3.7,3.2-6,3.9c-2.7-4.3-2.7-4.3-5.8-3.6c0.7,1.2,1.6,2.3,2.1,3.5c0.9,2,1.7,4,2.5,6
	c0.5,1.1,1,2.1,1.5,3.2C289.5,153.4,290,152.4,290.5,150.7 M155.7,151.4c-0.2-2.8-0.4-5.6-0.8-8.4c-0.1-0.7-1-1.3-1.6-1.9
	c-0.5,0.5-1.5,1.1-1.5,1.6c-0.1,3.8-0.1,7.7-0.1,11.8c2.6,0,4.7,0.1,6.8-0.1c0.6-0.1,1.2-0.9,1.8-1.3c-0.6-0.5-1.1-1.1-1.8-1.4
	C157.9,151.5,157.1,151.6,155.7,151.4z"/>
<path class="st1" d="M664.4,64.4c-8.1,0.1-16.1,0.1-24.6-0.1c-0.6-0.4-0.8-0.6-1.1-1c-2.6-2-4.8-4.6-7.6-5.6
	c-8.4-2.9-15.4,0-21.1,6.5c-6.5,7.3-6.7,18.6-0.4,26.1c7.2,8.6,17.4,10.3,26.4,4.5c1.4-0.9,3.1-1.8,4.7-1.8c6.9-0.2,13.8,0,20.7-0.1
	c2.3,0,3,0.8,3,3.1c-0.1,7.5,0,15-0.3,22.8c-1.6,4.9-2.9,9.5-4.2,14.2c0,0,0-0.1-0.3,0c-0.5,0.6-0.7,1.2-1,1.7c0,0-0.3-0.2-0.4-0.1
	c-4.5,3.2-9,6.4-13.4,9.6c0,0-0.3,0.1-0.8,0.1c-1.2,0.1-2,0-2.7,0.2c-7.9,3-16.1,3.4-24.3,2.5c-5.4-0.6-10.6-3-15.9-4.6
	c-1.3-0.4-2.6-0.8-3.8-1.2c0,0,0.1,0,0-0.3c-2.6-2.8-5.1-5.4-7.6-8.1c-0.9-1.8-1.8-3.7-2.5-6.1c1.2-1.4,2.2-2.7,3.3-2.8
	c4.1-0.3,8.2-0.2,12.3-0.1c2.9,0.1,5.9,0.5,8.9,1c0.8,0.8,1.6,1.3,2.4,1.8c0,0-0.1,0.1-0.1,0.3c4.3,5,15.7,5.9,20.4,1.8
	c0.3-0.3,0.3-0.9,0.4-1.4c0,0,0.1,0.1,0.3,0.1c1.6-0.8,3.2-1.3,4.1-2.5c3.7-4.4,5.6-9.6,5.4-15.4c0-1-0.8-2-1.3-3
	c-1.1,0.7-2.1,1.4-3.4,2.4c-0.2,0.7-0.1,1.2-0.1,1.7c0,0-0.1,0-0.3,0c-0.3,0.2-0.4,0.5-0.4,0.7c0,0-0.1,0.1-0.4,0
	c-0.7,0-1.1-0.1-1.4,0.1c-9.8,6.6-20.1,5.4-30.5,1.8c-1.5-0.5-3.1-0.7-4.6-1c0,0,0.1-0.2,0-0.4c-0.8-0.5-1.5-0.7-2.3-1
	c0,0,0-0.1,0-0.3c-1.6-1.5-3.3-2.7-4.9-3.9c0,0,0,0-0.1-0.2c-0.4-0.5-0.7-0.8-1-1c0,0,0.2-0.1,0.2-0.3c-0.4-1-0.7-1.8-1.2-2.5
	c-8.8-13.1-9.4-27.1-4.1-41.6c1.3-3.4,3-6.7,4.6-10c0,0,0,0.1,0.3,0c7.1-5.7,14.1-10.7,23.5-11.6c7.9-0.8,15.1,0.1,21.5,4.9
	c1.5,1.1,3.2,1.9,4.7,2.9c0.4-2,0.8-3.9,1.5-5.9c6.6,0,12.9,0,19.2,0.3C664.4,49.3,664.4,56.8,664.4,64.4z"/>
<path class="st2" d="M159,108.7c-0.3,0-0.5-0.1-0.7-0.8c-1.6-1.8-3.1-3.1-4.7-4.5c-0.3,0-0.5-0.2-0.6-0.9c-0.4-1.2-0.6-2.1-1-2.8
	c-8-13.5-8.9-27.3-1.7-41.5c0.6-1.2,0.8-2.6,1.1-3.9c0,0,0,0.1,0.3,0c0.8-1,1.4-2,2-3c0,0,0,0.1,0.3,0c1.8-1.8,3.4-3.5,5-5.3
	c0,0,0,0,0.3,0c1.2-0.4,2.1-0.7,2.9-1.2c13.3-8,26.9-9,40.7-1.3c2.1,1.2,4.4,2.1,6.5,3.2c0,0-0.1,0,0,0.3c2.1,3.1,4.8,5.7,6.3,8.9
	c2.6,5.6,4.4,11.5,6.5,17.6c0,3.4,0,6.4-0.2,9.4c-0.2,0-0.5,0-0.9,0c-16.8,0-33.3,0-49.7,0c-1.4,0-2.8,0.6-4.2,0.9c0,0-0.1,0-0.5,0
	c-0.7,1.2-1.7,2.8-1.2,3.5c1.6,2.9,3.4,5.8,5.7,8.1c5.6,5.4,18,6.1,22.6,0.9c7.6-6.7,16.2-2.4,25.2-3.9c-1.6,2.7-2.5,4.3-3.4,5.8
	c-1.3,2.2-2.6,4.4-3.9,6.6c-1.1,1.1-2.2,2.3-3.9,3.5c-1.5,0.5-2.6,0.9-3.5,1.5c-11,6.7-22.5,8.1-34.6,3.3c-2.9-1.1-5.8-2.1-8.7-3.2
	c0,0,0.1,0,0-0.3C160.4,109.4,159.7,109.1,159,108.7 M200.5,68.5C198.2,61,192,56.5,184,56.3c-8.4-0.2-14.4,4.1-17.3,13.1
	c0.7,0.3,1.5,0.9,2.2,0.9c9.7,0.1,19.4,0.1,29.1,0C198.8,70.3,199.6,69.5,200.5,68.5z"/>
<path class="st1" d="M694.6,42.1c0,0,0,0,0.4,0.1c1.3-0.1,2.3-0.2,3.2-0.6c11-4.3,21.9-3.9,32.7,0.8c2.7,1.2,5.4,2.5,8.1,3.7
	c0,0-0.1,0,0,0.2c0.3,0.3,0.5,0.4,0.8,0.6c0,0-0.1,0,0,0.2c0.3,0.3,0.5,0.4,0.8,0.6c0,0-0.1,0,0,0.2c0.3,0.3,0.5,0.4,0.8,0.6
	c0,0-0.1,0-0.1,0.2c1.5,2.2,3.1,4.1,4.5,6.1c10.5,14.4,8.6,39.3-4.8,50.8c-1.3,1.1-2.2,2.8-3.2,4.3c0,0-0.1-0.1-0.3-0.1
	c-0.7,0.4-1.1,0.8-1.5,1.3c0,0,0-0.1-0.3-0.1c-1.2,0.3-2.2,0.5-3.1,0.9c-9.7,4.3-19.8,4.7-30,2.6c-4.2-0.9-8.2-2.7-12.3-4.1
	c0,0-0.2,0-0.3-0.3c-1.6-1.4-3.1-2.5-4.6-3.5c-0.3,0-0.5-0.1-0.6-0.8c-0.6-1.5-1.1-2.6-1.8-3.6c-1.7-2.8-3.5-5.6-5.7-9.2
	c6,0,10.8,0.2,15.6,0c4.7-0.2,8.8,0.7,13,3.2c7.6,4.6,19.1,0.6,22.7-6.3c6.3-8.7,5.6-20.2-1.9-27.5c-6.6-6.4-16-8.3-25.3-0.7
	c-0.7,0.6-1.7,1.2-2.6,1.2c-7,0.1-13.9,0.1-21.7,0.1c2-3.5,3.6-6.4,5.3-9.2c1.4-2.3,3-4.4,4.6-6.6c0,0,0,0.1,0.3,0.1
	c0.8-0.6,1.3-1.1,1.9-1.7c0,0,0,0.1,0.2,0c0.3-0.3,0.5-0.5,0.7-0.7c0,0,0,0.1,0.3,0.1C691.8,43.9,693.2,43,694.6,42.1z"/>
<path class="st1" d="M249.3,96.6c0.2,0.1,0.4,0.2,0.7,0.8c3.2,5.1,9.8,5.2,12,0.6c0,0,0,0,0.3,0c4.8-2.5,4.8-7.2-0.1-10.6
	c-7.2-4.9-15.5-7.1-23.9-8.9c0,0-0.2,0-0.3-0.3c-1.8-1.4-3.6-2.5-5.3-3.5c-0.4-0.3-0.9-0.7-1.4-1.5c-0.2-1-0.1-1.6-0.3-1.9
	c-6.7-9.1-1.1-25.1,9.3-29c1.8-0.7,3.4-2.2,5.1-3.4c0,0,0,0.1,0.3,0.2c1.6,0,2.9,0.1,4.1-0.1c5.9-0.9,11.7-1,17.3,1
	c8.7,3.2,14.4,8.9,15.9,18.8c-5.5,0-10.8,0.2-16-0.1c-1.6-0.1-3.5-1.1-4.5-2.2c-3.6-4-10-4.3-13.1-0.2c-1.9,2.5-2.5,5.4,0.4,7.6
	c2.3,1.8,4.8,3.7,7.6,4.5c7.4,2.2,14.9,3.9,21.5,8.3c0.4,0.2,1,0.1,1.5,0.1c0,0-0.1,0,0,0.3c6.4,8.4,7.2,17.1,2.6,26.3
	c-0.3,0.6-0.1,1.5-0.2,2.2c0,0-0.1,0-0.3-0.1c-0.7,0.8-1.2,1.7-1.6,2.5c0,0-0.1,0-0.3,0c-0.3,0.3-0.4,0.5-0.5,0.8c0,0-0.1,0-0.3,0
	c-0.3,0.2-0.4,0.5-0.5,0.8c0,0-0.1,0-0.3-0.1c-2.4,1.1-4.5,2.5-6.8,3.4c-7.2,2.9-14.5,3.6-22.3,2.5c-10.3-1.5-18.4-7.8-21.6-17.6
	c-0.9-2.7-0.4-3.7,2.5-3.6c5.5,0.1,11,0.1,16.6,0.3C247.9,95.5,248.6,96.1,249.3,96.6z"/>
<path class="st3" d="M332.7,75c1.5-15.2,8.9-26.3,22.5-32.1c17.2-7.3,33.2-5.1,46.6,10.6c0-4.5,0-8.3,0-12.3c3.4,0,6.3,0,9.7,0
	c0,1.5,0,2.9,0,4.2c0,21.5,0,43.1,0,64.6c0,5.3,0,5.3-5.3,5.3c-1.3,0-2.7,0-4.3,0c0-4.3,0-8.2,0-12.6c-1,0.7-1.6,1-2,1.5
	c-11,13.3-27.8,15.5-42.3,10c-15.5-5.9-24.9-19.8-25-36.3C332.7,77.1,332.7,76.2,332.7,75 M377.1,107.9c0.9-0.2,1.7-0.4,2.6-0.6
	c12.5-3.4,19.8-11.8,22.1-24.4c2.2-11.9-3.7-24.7-13.7-30.8c-11.6-7.1-26.2-5.8-36.3,3.2c-9.1,8.2-12.3,23.9-7.1,35.3
	C349,100,358.7,109.7,377.1,107.9z"/>
<path class="st4" d="M566.3,102.6c-2.3,2.2-4.5,4.7-7,6.7c-13.9,10.7-34,10.2-47.7-1c-21.3-17.5-19.1-49.7,4.7-63.6
	c15.1-8.9,36.7-7.9,50,8.4c0.9-1.1,1.7-2.3,1.7-3.4c0.1-11.4,0.1-22.7,0.1-34.1c1.8,0,3.6,0,5.7,0.3c0.3,31.8,0.3,63.2,0.4,94.5
	c0,2.3-0.2,3.7-3.1,3.7c-2.8,0-3-1.4-2.9-3.5c0.1-1.7,0.2-3.5-0.1-5.2C567.9,104.3,566.9,103.5,566.3,102.6 M509.4,91
	c5.6,11.7,15.1,17.2,28,17.1c12.2-0.1,21.1-5.9,26.3-16.7c5.4-11.4,4.3-22.5-3.5-32.4c-7.5-9.6-17.7-13-29.4-10.7
	C511.6,52,501.6,72,509.4,91z"/>
<path class="st5" d="M134.9,56.9c0,0.1,0,0.3-0.5,0.6c-0.6,1.5-1,2.8-1,4.1c0,16.1-0.1,32.3,0,48.4c0,3.2-0.9,4.2-4,4
	c-3.7-0.2-7.5-0.3-11.2,0c-3.4,0.2-4.5-0.7-4.4-4.3c0.2-16.4,0.1-32.8,0.1-49.1c0-1-0.5-2-0.9-3c-0.2,0-0.6,0-0.6,0
	c-0.2-0.2-0.4-0.3-0.6-0.9c-0.3-0.7-0.5-1.2-0.8-1.3c-2.7-0.4-6.7,0.3-7.9-1.2c-1.4-1.8-0.4-5.5-0.5-8.4c0-0.5,0.1-1,0-1.5
	c-0.3-2.4,0.7-3.3,3.2-3.3c2.2,0,4.4-0.7,6.6-1.1c0-7.6,0-15.3,0.2-23c0.3,7.4,0.3,15,0.3,22.5c0.3,0,0.7,0,1,0
	c0-6.6,0.1-13.2,0-19.8c0-2.3,0.5-3.4,3.1-3.3c4.5,0.2,9,0.1,13.5,0c2.3-0.1,3.1,0.7,3.1,3c-0.1,5.6-0.1,11.2,0,16.9
	c0,1.2,0.8,2.3,1.2,3.5c0,0,0.3,0.2,0.4,0.6c3,0.9,7.2,0.5,8.3,2.1c1.4,2.2,0.3,6,0.6,9.1c0.3,3.2-0.9,4.1-4,4
	C138.3,55.4,135.8,53.9,134.9,56.9z"/>
<path class="st5" d="M297.3,39.9c0-0.3,0-0.5,0.3-0.8c0.5,0.1,0.8,0.2,1.1,0.4c0.1-0.2,0.2-0.4,0.2-0.7c0-6.5,0.1-13,0-19.5
	c-0.1-2.5,0.8-3.3,3.2-3.2c4.4,0.2,8.7,0.2,13.1,0c2.7-0.1,3.4,1,3.3,3.5c-0.1,5.5-0.1,11,0,16.5c0,1.1,0.8,2.3,1.3,3.4
	c0,0,0.2,0.2,0.4,0.6c3,0.9,7.2,0.5,8.3,2.1c1.4,2.2,0.3,6,0.6,9.1c0.3,3.2-0.9,4.1-4,4c-1.6-0.1-4.2-1.5-5,1.5c0,0,0-0.1-0.3,0
	c-0.6,1.4-1.2,2.8-1.2,4.1c-0.1,16.4-0.1,32.8,0,49.2c0,2.9-0.8,4-3.8,3.8c-3.7-0.2-7.5-0.3-11.3,0c-3.5,0.3-4.7-0.8-4.7-4.5
	c0.2-16.3,0.1-32.5,0-48.8c0-1.3-1-2.6-1.6-3.8c0,0,0.1,0,0.1-0.3c-2.2-0.6-4.4-1.2-6.6-1.2c-2.2,0-3.2-0.6-3.1-3
	c0.2-2.7,0.2-5.5,0-8.2c-0.1-2.4,0.7-3.2,3.2-3.2C292.9,40.9,295.1,40.3,297.3,39.9z"/>
<path class="st3" d="M432.7,75.7c0,13.3,0,26.2,0,39.4c-3.2,0-6.1,0-9.4,0c0-24.4,0-48.9,0-73.7c2.9,0,5.9,0,9.3,0c0,2.7,0,5.4,0,9
	c5.6-7.3,12.5-10.5,20.5-11c18.3-1.3,31,8.4,34.3,24.5c0.7,3.5,0.9,7.2,0.9,10.8c0.1,12.3,0,24.6,0,36.8c0,1.1,0,2.2,0,3.2
	c-0.6,0.3-1,0.5-1.3,0.5c-8.4,0.6-8.4,0.6-8.4-7.7c0-12.3,0.1-24.6-0.1-36.8c-0.2-11.2-6.9-19.8-17.1-22.5
	c-11.9-3.2-24.2,3.7-27.3,15.6C433.3,67.5,433.2,71.5,432.7,75.7z"/>
<path class="st6" d="M664.4,118.5c0-7.5-0.1-15,0-22.6c0-2.3-0.7-3.1-3-3.1c-6.9,0.1-13.8-0.1-20.7,0.1c-1.6,0-3.3,0.9-4.7,1.8
	c-9.1,5.8-19.2,4.2-26.4-4.5c-6.3-7.6-6.1-18.8,0.4-26.1c5.8-6.5,12.7-9.4,21.1-6.5c2.8,1,5,3.5,7.6,5.8c0.1,0.6,0.1,0.7,0.1,0.8
	c-4.4-3.7-9.2-6.3-15.2-5.8c-6.8,0.6-15.1,6.6-16.1,12.2c-1.8,10.2,0.3,17.7,7.5,22.8c6.2,4.4,15,3.9,21.3-0.7
	c1-0.7,2.2-1.5,3.3-1.5c7.5-0.1,15-0.1,22.5-0.1c1.1,0,2.2,0,3.2,0c0,9,0,17.8-0.3,26.9C664.7,118.5,664.4,118.5,664.4,118.5z"/>
<path class="st7" d="M280,76.8c-0.4,0.2-1,0.4-1.4,0.1c-6.6-4.4-14.1-6.1-21.5-8.3c-2.7-0.8-5.3-2.8-7.6-4.5
	c-2.9-2.2-2.3-5.1-0.4-7.6c3.1-4.1,9.5-3.9,13.1,0.2c1.1,1.2,3,2.2,4.5,2.2c5.2,0.3,10.4,0.1,16,0.1c-1.5-9.9-7.2-15.7-15.9-18.8
	c-5.7-2.1-11.5-1.9-17.3-1c-1.2,0.2-2.5,0.1-4,0c10.9-3.8,21.5-2.3,30.9,4.9c5.2,4,7.6,9.8,8.2,17c-5.5,0-10.8,0-16.1,0
	c-2.9,0-5.8,0.8-7.5-3.4c-1.4-3.4-8.5-3-10.9,0c-1.8,2.3-1.4,5.4,1.6,7c3.3,1.7,7,2.7,10.4,4.1C268.1,71.3,274,74,280,76.8z"/>
<path class="st8" d="M566.2,103c0.7,0.5,1.7,1.4,1.8,2.3c0.3,1.7,0.2,3.5,0.1,5.2c-0.1,2.1,0.1,3.5,2.9,3.5c3,0,3.1-1.4,3.1-3.7
	c0-31.4,0-62.8,0-94.5c0.5,0.4,1.5,1.2,1.5,1.9c0.1,32,0.1,64,0,96c0,0.3-0.2,0.7-0.3,1c-0.3,0.2-0.5,0.4-0.7,0.4
	c-8.6,0.7-8.6,0.7-8.6-7.8C566.1,106.1,566.1,104.7,566.2,103z"/>
<path class="st9" d="M686.7,47c-1.3,2.1-2.9,4.3-4.3,6.6c-1.7,2.8-3.3,5.7-5.3,9.2c7.8,0,14.7,0,21.7-0.1c0.9,0,1.9-0.6,2.6-1.2
	c9.3-7.6,18.7-5.7,25.3,0.7c7.5,7.3,8.3,18.8,1.9,27.2c-0.3-0.3-0.3-0.5-0.3-0.7c5.4-10.2,4.4-18.5-2.9-25.6
	c-6.3-6-15.7-6.5-22.5-0.8c-2,1.7-3.9,2.3-6.4,2.2c-7-0.1-14,0-21.4,0C677.3,57.4,681.1,51.8,686.7,47z"/>
<path class="st6" d="M620.7,71.1c2.2-0.5,4.5-1.5,6.7-1.5c26.5-0.1,53.1-0.1,79.6-0.1c1,0,2,0,3.4,0c0-2.5,0-4.7,0-8
	c4.7,4.1,8.7,7.6,12.8,11.4c0.1,0.3-0.1,0.5-0.4,0.4c-3.3-2.4-6.4-4.9-9.9-7.6c-0.1,4.6-3.1,4.6-6.2,4.6c-20.8,0-41.5-0.1-62.3,0
	C636.5,70.4,628.7,70.9,620.7,71.1C620.8,71.1,620.7,71.1,620.7,71.1z"/>
<path class="st10" d="M297.2,57.2c0.5,1,1.6,2.3,1.6,3.6c0.1,16.3,0.2,32.5,0,48.8c0,3.7,1.1,4.8,4.7,4.5c3.7-0.3,7.5-0.3,11.3,0
	c3,0.2,3.8-0.9,3.8-3.8c-0.1-16.4-0.1-32.8,0-49.2c0-1.4,0.6-2.7,1.3-4.1c0.2,16.4,0.2,32.8,0.1,49.3c0,2.1,0,4.2-0.2,6.9
	c-0.3,1-0.3,1.4-0.4,1.8c-6.8,0.1-13.6,0.2-20.8,0c-0.6-0.5-0.8-0.7-0.9-0.9c0-0.3-0.1-0.7,0.1-1.3c0.1-0.5,0-0.7-0.1-0.9
	c0-0.6-0.1-1.1,0.1-2.1c0.1-1.1,0-1.7-0.1-2.4c0-0.6-0.1-1.1,0.1-2.1c0.1-1.1,0-1.7-0.1-2.4c0-3.8-0.1-7.6,0.1-11.9
	c0.1-1.9,0-3.3-0.1-4.6c0-1.1-0.1-2.1,0.1-3.7c0.1-2.9,0-5.2-0.1-7.6c0-3.3-0.1-6.6,0.1-10.4c0.1-2.2,0-3.8-0.1-5.4
	C297.4,58.5,297.3,58,297.2,57.2z"/>
<path class="st11" d="M232.6,150.1c-0.3,0.9-0.4,1.5-0.7,2c-0.6,0.9-1.3,1.6-2,2.4c-0.7-0.8-1.5-1.5-2-2.3c-0.6-1-0.9-2.2-2.1-3.3
	c-0.1,1.2,0,2.5-0.3,3.7c-0.2,0.8-1.1,1.3-1.7,2c-0.5-0.7-1.5-1.3-1.5-2c-0.2-3.6-0.1-7.2-0.1-10.8c6.9-2.6,5.1,4.4,7.6,6.6
	c2.6-2,0.8-8.8,7.8-6.7c0,3.6,0.1,7.4-0.1,11.2c0,0.6-0.9,1.2-1.4,1.8c-0.6-0.6-1.7-1.1-1.7-1.8c-0.2-1.9-0.1-3.9-0.6-6
	C233.4,147.8,233.1,148.8,232.6,150.1z"/>
<path class="st6" d="M247,94.5c-5.5,0-11,0.1-16.5-0.1c-2.9-0.1-3.4,0.9-2.5,3.6c3.1,9.9,11.3,16.2,21.6,17.6
	c7.8,1.1,15.1,0.3,22.3-2.5c2.3-0.9,4.3-2.3,6.8-3.3c-10.9,9.5-23.8,10.2-36.7,5.4c-9.5-3.6-15.2-11.4-16.4-22.3
	c7.4,0,14.6,0,21.8,0c0.2,0,0.5,0.5,0.5,1.1C247.4,94.4,247.2,94.4,247,94.5z"/>
<path class="st12" d="M113.1,57.6c0.2,1,0.7,2,0.7,3c0,16.4,0.1,32.8-0.1,49.1c0,3.6,1.1,4.5,4.4,4.3c3.7-0.3,7.5-0.3,11.2,0
	c3.1,0.2,4-0.8,4-4c-0.1-16.1-0.1-32.3,0-48.4c0-1.3,0.4-2.6,0.9-4c0.3,18.6,0.4,37.4,0.4,56.1c0,0.3-0.2,0.7-0.3,0.9
	c-7.4,0-14.7,0-21.8-0.6c0.3-1.8,0.4-3.1,0.4-4.3C113.1,92.4,113.1,75,113.1,57.6z"/>
<path class="st13" d="M267.6,148.5c0-2.6,0-4.8,0-7c6.5-1.9,6,4.7,9.7,7.2c0-2.2-0.2-3.9,0.1-5.6c0.1-0.7,1-1.3,1.6-2
	c0.5,0.7,1.5,1.3,1.6,2c0.2,3.6,0.1,7.2,0.1,11.2c-6.5,1.4-5.9-5.4-9.7-7.7c0,1.9,0.2,3.6-0.1,5.2c-0.2,1-1,1.9-1.5,2.8
	c-0.6-0.9-1.4-1.7-1.7-2.7C267.4,151,267.6,149.9,267.6,148.5z"/>
<path class="st6" d="M728,89c0.2,0,0.3,0.2,0.3,0.7c-3.3,7.1-14.8,11.1-22.4,6.5c-4.2-2.6-8.3-3.4-13-3.2c-4.8,0.2-9.7,0-15.6,0
	c2.2,3.6,4,6.4,5.7,9.2c0.6,1,1.1,2.1,1.7,3.4c-4.4-3.5-7.1-8.3-9.5-14.3c3.3,0,6.1,0,8.9,0c3.6,0,7.3,0.1,10.9,0
	c3.7-0.1,6.8,0.5,10.1,2.7C712.4,98.7,721.6,96.5,728,89z"/>
<path class="st13" d="M133.3,147.9c-0.6-0.3-1.1-0.4-1.5-0.5c0,1.8,0.2,3.5-0.1,5.3c-0.1,0.7-1.1,1.2-1.7,1.8
	c-0.5-0.6-1.4-1.1-1.4-1.7c-0.1-3.7-0.1-7.5-0.1-11.3c6.3-1.8,5.9,4.7,9.7,7.2c0-2.2-0.2-4,0.1-5.7c0.1-0.7,1-1.3,1.6-2
	c0.5,0.7,1.5,1.3,1.6,2c0.2,3.6,0.1,7.2,0.1,10.9c-2.5,1.1-4.2,0.7-5.4-1.7C135.3,150.9,134.3,149.6,133.3,147.9z"/>
<path class="st14" d="M710.3,86.1c-27.6,0-55.2,0-82.9,0c-1.2,0-2.5-0.1-4.1-0.5c-0.4-0.5-0.4-0.7,0-0.9c27.9,0,55.4,0,82.9,0.1
	C707.6,84.7,708.9,85.6,710.3,86.1C710.3,86.1,710.3,86.1,710.3,86.1z"/>
<path class="st6" d="M738,109.8c0.8-1.4,1.7-3.1,3-4.2c13.4-11.5,15.2-36.4,4.8-50.8c-1.4-2-3-3.9-4.5-6.1c12.6,8,18,31.9,7.6,49.1
	C746.1,102.2,741.8,105.7,738,109.8z"/>
<path class="st13" d="M214,154.7c-3.8,0.6-7.2-0.3-8.3-3.7c-0.7-2.3-0.4-5.5,0.8-7.6c1.6-2.8,4.9-3.2,8-2.2c2.9,0.9,4.5,3,4.7,6.1
	C219.4,150.9,217.9,153.5,214,154.7 M209,150.7c1.5,0.4,3.1,1.3,4.4,1c2.7-0.7,3.3-3,2.5-5.4c-0.8-2.2-2.7-3.5-5.1-2.5
	C207.9,145,207.2,147.3,209,150.7z"/>
<path class="st15" d="M644.9,41.1c-0.4,2-0.8,3.9-1.1,5.9c-1.6-0.9-3.3-1.8-4.7-2.9c-6.5-4.8-13.7-5.7-21.5-4.9
	c-9.4,0.9-16.4,6-23.5,11.6c10.7-14.6,29.9-17,48.5-6c0.7-1.6,1.4-3.2,2.3-4.5C644.9,40.8,644.9,40.9,644.9,41.1z"/>
<path class="st16" d="M241.1,151.4c0-3.4,0-6.5,0-9.5c5.5-1.6,9.4-0.6,10.2,2.4c0.7,3-1.1,4.6-5.7,5.3c-1.1,1.8-2,3.4-3,5
	C242.1,153.6,241.6,152.7,241.1,151.4z"/>
<path class="st15" d="M593.4,50.9c-1.3,3.2-3.1,6.5-4.4,9.9c-5.3,14.5-4.7,28.5,4.1,41.6c0.5,0.7,0.8,1.5,1.1,2.6
	c-9.8-10.3-11.5-22.9-9.1-36.4C586.2,62,589,56.1,593.4,50.9z"/>
<path class="st11" d="M113.1,152.3c1.4-3.3,2.7-6.4,4.1-9.5c1-2.3,2.6-2.5,3.8-0.3c1.9,3.7,3.4,7.6,5.3,12.2c-1.7-0.3-3-0.1-3.4-0.7
	c-2.5-3.3-4.9-3.9-7.4,0c-0.3,0.5-1.6,0.3-2.4,0.5C113.1,153.8,113,153.2,113.1,152.3z"/>
<path class="st11" d="M261,152.4c-2.4-0.8-4.7-1.9-6.2,1.3c-0.3,0.6-1.8,0.7-3.9,1.5c2.2-5,3.8-9,5.7-12.8c1.1-2.1,2.7-1.6,3.6,0.3
	c1.7,3.7,3.2,7.5,4.8,11.2c-0.3,0.3-0.5,0.6-0.8,0.9C263.3,154.1,262.3,153.4,261,152.4z"/>
<path class="st10" d="M319.8,39.1c-0.5-0.8-1.3-1.9-1.3-3c-0.1-5.5-0.2-11,0-16.5c0.1-2.5-0.6-3.6-3.3-3.5c-4.4,0.2-8.7,0.2-13.1,0
	c-2.4-0.1-3.3,0.7-3.2,3.2c0.1,6.5,0.1,13,0,19.5c0,0.2-0.1,0.4-0.2,0.7c-0.3-0.1-0.6-0.3-1-0.6c-0.2-7.2-0.3-14.2-0.1-21.8
	c0.4-1.1,0.5-1.6,0.6-2.1c6.8,0,13.6-0.1,20.7,0.2c0.5,0.8,0.7,1.3,0.9,1.7C319.8,24.2,319.8,31.5,319.8,39.1z"/>
<path class="st13" d="M174.8,151.3c1.4,0.2,2.4,0.2,4.5,0.3c-2.3-3.6-9.8-3.4-5.7-9.1c1.9-2.6,5-2.3,7.9,0.4
	c-1.7,0.5-3.5,0.9-5.8,1.6c2.5,2.7,9.3,3.5,4.7,8.9c-2.1,2.5-5.2,1.9-8.3-0.4C173,152.3,173.8,151.8,174.8,151.3z"/>
<path class="st11" d="M196.2,151.5c1.4,0,2.4-0.2,3.5-0.2c1,0.1,2,0.5,3.4,0.8c-3.8,3.5-7.1,3.6-10.1,0.8c-2.7-2.6-3-6.7-0.7-9.5
	c2.5-3.1,6.3-3.5,10.5-0.5c-1.3,0.5-2.3,0.9-3.3,1.2c-1.6,0.5-4.5,0.7-4.6,1.5C194.5,147.4,195.5,149.4,196.2,151.5z"/>
<path class="st6" d="M690.4,110.6c3.9,1.2,7.9,3,12.1,3.9c10.2,2.1,20.3,1.7,30-2.6c0.9-0.4,1.9-0.6,3.1-0.9
	C725.4,119,703.4,120.4,690.4,110.6z"/>
<path class="st8" d="M567.8,15.5c0.3,11.4,0.3,22.7,0.3,34.1c0,1.1-0.8,2.3-1.5,3.5c-0.3-11.8-0.4-23.6-0.4-35.5
	C566.2,16.9,567,16.1,567.8,15.5z"/>
<path class="st15" d="M151.2,54.6c-0.1,1.1-0.3,2.5-0.9,3.7c-7.2,14.2-6.3,28,1.7,41.5c0.4,0.7,0.6,1.6,1,2.6
	C141.6,89.8,140.8,70.5,151.2,54.6z"/>
<path class="st15" d="M161.3,110.5c2.8,0.8,5.7,1.8,8.5,2.9c12.1,4.8,23.6,3.3,34.6-3.3c0.9-0.6,2-0.9,3.3-1.4
	C195.5,119.9,177.2,120.7,161.3,110.5z"/>
<path class="st15" d="M597.5,141.3c1.1,0.2,2.4,0.6,3.7,1c5.3,1.6,10.5,4,15.9,4.6c8.1,0.9,16.4,0.5,24.3-2.5
	c0.7-0.3,1.5-0.2,2.5-0.2c-4.2,1.4-8.7,3.4-13.4,4C618.9,149.8,607.7,148.4,597.5,141.3z"/>
<path class="st15" d="M209.3,46.8c-2.1-0.8-4.3-1.8-6.4-3c-13.9-7.7-27.4-6.7-40.7,1.3c-0.8,0.5-1.8,0.8-2.9,1.2
	c12.2-9.9,25.9-11.5,40.4-5.5C203,42.2,206,44.6,209.3,46.8z"/>
<path class="st12" d="M134.7,39.1c-0.5-0.8-1.2-2-1.3-3.1c-0.1-5.6-0.1-11.2,0-16.9c0.1-2.3-0.8-3.1-3.1-3c-4.5,0.1-9,0.2-13.5,0
	c-2.6-0.1-3.1,1-3.1,3.3c0.1,6.6,0,13.2,0,19.8c-0.3,0-0.7,0-1,0c0-7.5,0-15.1-0.2-22.9c-0.2-0.4-0.3-0.5,0.1-0.9
	c0.6-0.3,0.8-0.4,0.9-0.5c6.8,0,13.7,0,21.1,0C134.8,23,134.8,30.9,134.7,39.1z"/>
<path class="st16" d="M167,145.8c0,2.5,0.1,4.6-0.1,6.7c-0.1,0.7-1,1.4-1.5,2.1c-0.6-0.7-1.6-1.4-1.7-2.2c-0.2-2.6-0.1-5.2-0.1-8
	c-1-0.2-1.9-0.2-2.6-0.5c-0.5-0.3-0.9-1-1-1.6c0-0.3,0.8-1,1.2-1c2.6-0.1,5.2-0.1,7.9,0c0.6,0,1.1,0.7,1.6,1.1
	c-0.5,0.5-1,1.1-1.5,1.6C168.5,144.5,167.7,144.9,167,145.8z"/>
<path class="st6" d="M244.9,39.2c-1.4,1.1-2.9,2.6-4.8,3.3c-10.4,3.9-15.9,19.9-9.3,29c0.3,0.4,0.2,1,0.3,1.7
	c-8-8.6-5.3-23.7,5.4-30.1C239.1,41.5,241.9,40.5,244.9,39.2z"/>
<path class="st11" d="M290.5,151c-0.5,1.4-1,2.4-1.5,3.5c-0.5-1.1-1-2.1-1.5-3.2c-0.9-2-1.6-4.1-2.5-6c-0.6-1.2-1.4-2.3-2.1-3.5
	c3.2-0.8,3.2-0.8,5.8,3.6c2.4-0.8,2.1-5.8,6-3.9C293.4,144.5,291.9,147.6,290.5,151z"/>
<path class="st6" d="M738.9,46c-2.6-1-5.3-2.3-8-3.5c-10.8-4.7-21.7-5.1-32.7-0.8c-0.9,0.4-1.9,0.5-3.2,0.6
	C706.9,34.7,727.5,36.4,738.9,46z"/>
<path class="st15" d="M602.6,112.3c1.4,0.1,3,0.3,4.4,0.8c10.4,3.6,20.7,4.8,30.5-1.8c0.3-0.2,0.7-0.1,1.3,0
	c-7.2,7-16.2,7.3-25.4,5.3C609.8,115.9,606.3,113.9,602.6,112.3z"/>
<path class="st13" d="M156,151.5c1.1,0.1,1.9-0.1,2.6,0.2c0.7,0.3,1.2,0.9,1.8,1.4c-0.6,0.5-1.2,1.3-1.8,1.3
	c-2.1,0.2-4.2,0.1-6.8,0.1c0-4.1-0.1-7.9,0.1-11.8c0-0.6,1-1.1,1.5-1.6c0.6,0.6,1.5,1.2,1.6,1.9C155.3,145.8,155.4,148.6,156,151.5z
	"/>
<path class="st7" d="M211.9,105c1.1-2.1,2.4-4.3,3.7-6.5c0.9-1.6,1.8-3.2,3.4-5.8c-9,1.4-17.6-2.9-25.5,3.8c-0.7,0-0.9,0-1,0
	c3.3-4.5,7.7-5.6,13.1-5.2c4.8,0.4,9.7,0.1,16,0.1C218.1,96.5,215.1,100.7,211.9,105z"/>
<path class="st9" d="M611.8,124.5c-2.9-0.3-5.9-0.7-8.8-0.7c-4.1-0.1-8.2-0.2-12.3,0.1c-1.1,0.1-2.1,1.4-3.3,2.5
	c-0.8-0.9-1.4-2.2-2.4-4.3c3.5,0,6.3,0,9.1,0c5,0,9.9-0.1,14.9,0.1c1.2,0,2.4,1.1,3.4,2C612,124.5,611.9,124.5,611.8,124.5z"/>
<path class="st15" d="M238.4,79c8.2,1.6,16.6,3.8,23.7,8.7c5,3.4,4.9,8.1,0.1,10.6c3.3-4.2,2.9-7.7-2-10.2c-3.5-1.8-7.3-2.9-11-4.4
	C245.7,82.1,242.2,80.6,238.4,79z"/>
<path class="st9" d="M192.2,96.5c0.5,0,0.6,0,1.1,0.1c-4.1,5.1-16.5,4.4-22.1-1c-2.3-2.3-4.1-5.2-5.7-8.1c-0.4-0.8,0.5-2.4,1.2-3.6
	c-0.7,4.8,2.2,7.9,5.4,10.4C178.1,99.2,184.8,100.8,192.2,96.5z"/>
<path class="st6" d="M640.3,108.7c1.1-0.7,2.1-1.4,3.2-2.2c0.4,1,1.2,2,1.3,3c0.2,5.8-1.7,11-5.4,15.4c-0.9,1.1-2.6,1.7-4.2,2.4
	c5.1-4.7,8.2-10.4,7.4-17.7c0-0.3-0.3-0.6-1.1-0.9C640.7,108.7,640.5,108.7,640.3,108.7z"/>
<path class="st7" d="M282.7,105.7c-0.2-0.6-0.3-1.4,0-2.1c4.6-9.2,3.9-17.9-2.5-26.4c7.1,5,9.1,16.1,4.5,25.4
	C284.1,103.7,283.5,104.7,282.7,105.7z"/>
<path class="st14" d="M112,39.9c-1.9,0.3-4.1,1-6.3,1c-2.5,0-3.5,0.9-3.2,3.3c0.1,0.5,0,1,0,1.5c0.1,2.9-0.9,6.6,0.5,8.4
	c1.2,1.5,5.2,0.9,7.9,1.2c0.3,0,0.5,0.6,0.7,1.1c-3.4,0.2-6.8,0.2-10.6,0.2c0-5.1,0-10,0.2-15.4c0.4-0.6,0.5-0.8,0.5-1
	C105.1,40.2,108.4,40.1,112,39.9z"/>
<path class="st12" d="M297,39.9c-1.9,0.3-4,1-6.2,1c-2.4,0-3.3,0.8-3.2,3.2c0.2,2.7,0.2,5.5,0,8.2c-0.1,2.4,0.9,2.9,3.1,3
	c2.2,0,4.4,0.6,6.6,1.3c-3.6,0.3-7.2,0.3-11.1,0.3c0-5.3,0-10.3,0.2-15.7c0.4-0.6,0.4-0.8,0.5-1C290.1,40.2,293.4,40.1,297,39.9z"/>
<path class="st10" d="M320.3,56.9c0.5-3,3-1.6,4.7-1.5c3.1,0.1,4.3-0.8,4-4c-0.3-3.1,0.9-6.9-0.6-9.1c-1.1-1.6-5.3-1.2-8.3-2
	c3.3-0.3,6.7-0.3,10.4-0.3c0,5.7,0,11,0,16.9C327.3,56.9,324,56.9,320.3,56.9z"/>
<path class="st15" d="M222.2,73.4c-2.1-5.8-3.9-11.7-6.5-17.2c-1.5-3.2-4.1-5.8-6.2-8.9c8.1,6.4,12.1,15.3,13.3,25.8
	C222.5,73.4,222.2,73.4,222.2,73.4z"/>
<path class="st10" d="M135.3,56.9c0.5-3,3-1.5,4.7-1.5c3.1,0.1,4.3-0.9,4-4c-0.3-3.1,0.9-6.9-0.6-9.1c-1.1-1.6-5.3-1.2-8.3-2
	c3.2-0.3,6.6-0.3,10.5-0.3c0,5.2,0,10.3-0.3,15.8c-0.5,0.5-0.6,0.7-0.7,0.9C141.7,56.8,138.6,56.8,135.3,56.9z"/>
<path class="st6" d="M634.7,127.4c0.2,0.4,0.2,1-0.1,1.3c-4.7,4.1-16.1,3.2-20.4-1.8C620.7,130.4,627.5,130.6,634.7,127.4z"/>
<path class="st6" d="M112.9,57.6c0.2,17.4,0.2,34.8,0.2,52.2c0,1.2-0.2,2.5-0.5,3.9c-0.3-18.3-0.3-36.9-0.3-55.8
	C112.4,57.6,112.7,57.6,112.9,57.6z"/>
<path class="st12" d="M167.5,84.1c1-0.4,2.4-1,3.8-1c16.5-0.1,32.9,0,49.7,0.2c0.3,0.4,0.3,0.6,0.3,0.7
	C203.5,84.1,185.7,84.2,167.5,84.1z"/>
<path class="st6" d="M621.3,84.9c-5.3-2.1-5.9-10.5-0.8-13.8c0.2-0.1,0.3,0,0.3,0.3c-3.4,4.8-3,9.1,0.7,13.3
	C621.4,84.7,621.3,84.9,621.3,84.9z"/>
<path class="st15" d="M261.7,98.2c-1.9,4.4-8.5,4.3-11.7-0.6C253.6,100,257.4,100.3,261.7,98.2z"/>
<path class="st15" d="M645.1,144.1c4.1-3.3,8.6-6.5,13.3-9.6C654.3,137.8,649.8,141,645.1,144.1z"/>
<path class="st6" d="M726.1,80.2c-3.8,3.3-7.6,6.5-11.7,9.8c-0.3,0-0.4-0.1-0.3-0.3c1.6-1.8,3.1-3.5,4.8-4.8
	C721.1,83.1,723.6,81.6,726.1,80.2C726.1,80.1,726.1,80.2,726.1,80.2z"/>
<path class="st15" d="M664.2,118.7c0.2-0.2,0.5-0.2,0.7-0.2c-1.4,4.7-3,9.4-4.7,14.2C661.3,128.2,662.6,123.5,664.2,118.7z"/>
<path class="st7" d="M665.8,41c0,7.7,0,15.4-0.3,22.9c-0.3-7.8-0.3-15.3-0.1-22.9C665.5,41,665.8,41,665.8,41z"/>
<path class="st12" d="M665.2,41c0,7.5,0,15.1,0,23c-0.1,0.4-0.3,0.4-0.6,0.4c-0.2-7.6-0.2-15.1-0.2-23.1c0-0.4,0-0.4,0.2-0.4
	C664.9,41,665.1,41,665.2,41z"/>
<path class="st15" d="M589.8,133c2.5,2.3,5.1,4.9,7.6,7.8C594.9,138.5,592.3,135.9,589.8,133z"/>
<path class="st6" d="M714.1,90c-0.9,1.1-1.9,2.1-3.7,4.1c0-3.1,0-5.2-0.1-7.6c-0.1-0.3-0.1-0.3,0.2-0.3c0.8,0.7,1.4,1.3,2,2
	c0.5,0.6,1,1.2,1.5,1.8C714,89.9,714.1,90,714.1,90z"/>
<path class="st12" d="M645.2,41.1c-0.4-0.1-0.4-0.3-0.3-0.7c6.3-0.3,12.6-0.3,19.2-0.1c0.4,0.4,0.4,0.5,0.4,0.7c0,0,0,0,0,0
	C658.1,41,651.8,41,645.2,41.1z"/>
<path class="st6" d="M724.6,74.1c1.4,1.1,2.8,2.2,4.5,3.6c-1,0.9-1.7,1.6-2.7,2.4c-0.2,0.1-0.3,0-0.3-0.3
	C725.6,77.8,725,76,724.6,74.1C724.6,74.1,724.6,74.1,724.6,74.1z"/>
<path class="st15" d="M158.7,46.3c-1.4,1.7-3,3.4-4.8,5.2C155.2,49.8,156.9,48.1,158.7,46.3z"/>
<path class="st15" d="M153.7,103.7c1.4,1.1,3,2.4,4.5,4.1C156.7,106.7,155.3,105.3,153.7,103.7z"/>
<path class="st6" d="M232.8,75.1c1.6,0.8,3.4,1.9,5.2,3.2C236.3,77.5,234.6,76.4,232.8,75.1z"/>
<path class="st15" d="M595.4,106.7c1.5,1,3.2,2.2,4.7,3.7C598.5,109.4,597,108.1,595.4,106.7z"/>
<path class="st6" d="M685.5,106.7c1.4,0.8,2.9,1.9,4.5,3.2C688.5,109.1,687.1,108,685.5,106.7z"/>
<path class="st12" d="M222.2,73.7c0-0.3,0.3-0.3,0.5-0.3c0.2,3,0.3,6.1,0.1,9.4c-0.3,0.3-0.6,0.3-0.6,0.3
	C222.1,80.1,222.1,77.1,222.2,73.7z"/>
<path class="st5" d="M297.4,75.2c0.2,2,0.3,4.4,0.3,6.9C297.4,80.1,297.4,77.8,297.4,75.2z"/>
<path class="st6" d="M694.3,42.2c-1.1,0.8-2.4,1.7-4.1,2.5C691.3,43.9,692.6,43.1,694.3,42.2z"/>
<path class="st15" d="M153.4,51.6c-0.4,0.9-0.9,1.9-1.8,2.9C152,53.6,152.6,52.6,153.4,51.6z"/>
<path class="st6" d="M611.8,124.8c0.1-0.3,0.2-0.3,0.6-0.3c0.7,0.6,1.2,1.1,1.7,1.9C613.4,126.1,612.6,125.6,611.8,124.8z"/>
<path class="st5" d="M297.4,59.4c0.2,1.3,0.3,2.9,0.3,4.7C297.4,62.8,297.4,61.3,297.4,59.4z"/>
<path class="st6" d="M280.7,108.2c0.3-0.7,0.7-1.5,1.5-2.4C281.9,106.6,281.4,107.3,280.7,108.2z"/>
<path class="st5" d="M297.4,86.5c0.2,1.1,0.3,2.4,0.3,4C297.4,89.4,297.4,88.1,297.4,86.5z"/>
<path class="st15" d="M247.1,94.7c0.1-0.3,0.3-0.3,0.8-0.3c0.6,0.6,1,1.2,1.4,2.1C248.6,96.1,247.9,95.5,247.1,94.7z"/>
<path class="st9" d="M688.8,45.4c-0.3,0.5-0.8,1.1-1.7,1.6C687.5,46.5,688,46,688.8,45.4z"/>
<path class="st15" d="M159.1,108.9c0.6,0.2,1.3,0.5,2.1,1.1C160.5,109.9,159.9,109.5,159.1,108.9z"/>
<path class="st15" d="M600.3,110.9c0.6,0.1,1.4,0.4,2.1,1C601.7,111.7,601.1,111.4,600.3,110.9z"/>
<path class="st15" d="M664.6,41c-0.2-0.1-0.2-0.3-0.2-0.6c0.5-0.1,1,0.1,1.5,0.4c0,0.2-0.4,0.2-0.5,0.2C665.1,41,664.9,41,664.6,41z
	"/>
<path class="st15" d="M658.9,134.4c0.1-0.5,0.3-1,0.8-1.6C659.7,133.3,659.4,133.8,658.9,134.4z"/>
<path class="st15" d="M640.1,108.9c0.4-0.2,0.6-0.1,1.1-0.1c-0.1,0.5-0.4,1-0.9,1.6C640,110.1,640,109.6,640.1,108.9z"/>
<path class="st6" d="M736.1,111c0.2-0.4,0.6-0.9,1.3-1.2C737.2,110.2,736.8,110.6,736.1,111z"/>
<path class="st9" d="M221.9,83.1c0.2,0,0.5,0,0.7,0c-0.2,0.4-0.6,0.8-1.1,1.1c-0.1-0.3-0.1-0.4-0.1-0.8
	C221.4,83.1,221.8,83.1,221.9,83.1z"/>
<path class="st6" d="M623,84.6c0,0.2,0,0.4,0.1,0.8c-0.5,0-1-0.1-1.7-0.3c-0.1-0.2,0-0.3,0.3-0.4C622.4,84.6,622.7,84.6,623,84.6z"
	/>
<path class="st5" d="M298,14.9c0.1,0.6,0,1.1-0.3,1.8C297.6,16.3,297.7,15.6,298,14.9z"/>
<path class="st5" d="M319.8,16.7c-0.3-0.3-0.5-0.7-0.7-1.5C319.4,15.5,319.6,16,319.8,16.7z"/>
<path class="st5" d="M297.4,107.5c0.2,0.4,0.3,1,0.2,1.8C297.4,108.9,297.4,108.3,297.4,107.5z"/>
<path class="st5" d="M297.4,103c0.2,0.4,0.3,1,0.2,1.8C297.4,104.4,297.4,103.8,297.4,103z"/>
<path class="st5" d="M319.5,114.8c-0.2-0.4-0.1-0.8,0.1-1.4C319.7,113.7,319.7,114.2,319.5,114.8z"/>
<path class="st6" d="M723.3,73.1c0.4,0.1,0.8,0.4,1.2,0.8c0.1,0.2,0,0.2-0.2,0.2c-0.6-0.3-0.9-0.5-1.2-0.8
	C723.1,73.4,723.2,73.2,723.3,73.1z"/>
<path class="st15" d="M594.2,105.4c0.3,0.1,0.6,0.3,1,0.8C594.9,106.1,594.6,105.9,594.2,105.4z"/>
<path class="st5" d="M113.4,14.9c0,0.2-0.2,0.3-0.7,0.5C112.7,15.2,113,15,113.4,14.9z"/>
<path class="st5" d="M101.6,40.3c0.2,0.2,0.1,0.4-0.2,0.7C101.3,40.8,101.3,40.5,101.6,40.3z"/>
<path class="st5" d="M286.6,40.2c0.2,0.2,0.1,0.4-0.2,0.7C286.3,40.8,286.4,40.5,286.6,40.2z"/>
<path class="st12" d="M639,64.4c-0.2-0.2-0.2-0.4-0.2-0.7c0.2,0,0.4,0.1,0.7,0.5C639.5,64.4,639.3,64.5,639,64.4z"/>
<path class="st5" d="M144.9,56.7c-0.1-0.3,0-0.4,0.4-0.6C145.3,56.3,145.2,56.5,144.9,56.7z"/>
<path class="st6" d="M741.2,48.2c-0.2,0.1-0.4-0.1-0.7-0.4C740.7,47.8,740.9,47.9,741.2,48.2z"/>
<path class="st6" d="M689.7,44.7c0,0.2-0.1,0.4-0.5,0.6C689.2,45.2,689.4,45,689.7,44.7z"/>
<path class="st6" d="M279.9,109c-0.1-0.2,0-0.4,0.3-0.7C280.4,108.6,280.3,108.8,279.9,109z"/>
<path class="st6" d="M740.5,47.5c-0.2,0.1-0.4-0.1-0.7-0.4C739.9,47,740.1,47.2,740.5,47.5z"/>
<path class="st6" d="M279.1,109.7c-0.1-0.2,0-0.5,0.4-0.7C279.6,109.4,279.5,109.5,279.1,109.7z"/>
<path class="st15" d="M639.4,111.2c-0.1-0.2,0-0.4,0.3-0.6C639.9,110.9,639.8,111,639.4,111.2z"/>
<path class="st6" d="M739.7,46.8c-0.2,0.1-0.4-0.1-0.7-0.4C739.1,46.3,739.4,46.4,739.7,46.8z"/>
<path class="st5" d="M297.4,111.9c0.1,0,0.2,0.2,0.2,0.5C297.4,112.3,297.4,112.2,297.4,111.9z"/>
<path class="st5" d="M297.4,114.2c0.2,0,0.4,0.1,0.6,0.5C297.9,114.8,297.6,114.6,297.4,114.2z"/>
<path class="st17" d="M166.5,68.8c3.1-8.4,9.1-12.7,17.5-12.5c8.1,0.2,14.2,4.7,16.1,12.5C188.6,69,177.6,68.9,166.5,68.8z"/>
<path class="st12" d="M166.6,69.1c11-0.2,22-0.1,33.5,0c-0.5,0.4-1.3,1.2-2.1,1.2c-9.7,0.1-19.4,0.1-29.1,0
	C168.1,70.3,167.4,69.7,166.6,69.1z"/>
<path class="st18" d="M376.8,108c-18.1,1.7-27.8-8-32-17.2c-5.2-11.4-2-27.2,7.1-35.3c10.1-9,24.7-10.3,36.3-3.2
	c10,6.1,15.9,18.9,13.7,30.8c-2.4,12.5-9.6,20.9-22.1,24.4C378.8,107.6,378,107.7,376.8,108z"/>
<path class="st18" d="M509.3,90.7c-7.7-18.7,2.3-38.8,21.4-42.5c11.7-2.3,21.9,1.2,29.4,10.7c7.8,10,8.9,21.1,3.5,32.4
	c-5.2,10.9-14.1,16.6-26.3,16.7C524.5,108.2,515,102.7,509.3,90.7z"/>
<path class="st19" d="M722.8,73.3c0.6,0.3,0.9,0.5,1.5,0.8c0.7,1.8,1.3,3.6,1.8,5.7c-2.4,1.8-4.9,3.3-7.2,5c-1.7,1.3-3.2,3-4.8,4.8
	c-0.5-0.3-1-0.9-1.5-1.5c-0.6-0.7-1.1-1.3-2-2c-1.7-0.5-3-1.4-4.4-1.4c-27.5-0.1-55-0.1-82.9-0.1c-0.7,0-1,0-1.6,0
	c-4-4.1-4.5-8.4-1-13.2c7.9-0.5,15.7-1,23.6-1.1c20.8-0.1,41.5,0,62.3,0c3.1,0,6.1,0.1,6.2-4.6C716.4,68.5,719.5,70.9,722.8,73.3z"
	/>
<path class="st17" d="M208.9,150.5c-1.7-3.1-1-5.4,2-6.7c2.4-1,4.3,0.3,5.1,2.5c0.8,2.4,0.1,4.7-2.5,5.4
	C212.1,152,210.5,151.1,208.9,150.5z"/>
</svg>
