<?xml version="1.0" encoding="utf-8"?>
<!-- Generator: Adobe Illustrator 26.3.1, SVG Export Plug-In . SVG Version: 6.00 Build 0)  -->
<svg version="1.1" id="Layer_1" xmlns="http://www.w3.org/2000/svg" xmlns:xlink="http://www.w3.org/1999/xlink" x="0px" y="0px"
	 viewBox="0 0 855.7 163.8" style="enable-background:new 0 0 855.7 163.8;" xml:space="preserve">
<style type="text/css">
	.st0{fill:#E72429;}
	.st1{fill:#E7252B;}
	.st2{fill:#A7A7AA;}
	.st3{fill:#A6A6A9;}
	.st4{fill:#E7262B;}
	.st5{fill:#E1212A;}
	.st6{fill:#E32E38;}
	.st7{fill:#A2A2A4;}
	.st8{fill:#E11E26;}
	.st9{fill:#E4141B;}
	.st10{fill:#959799;}
	.st11{fill:#E10E18;}
	.st12{fill:#929597;}
	.st13{fill:#E20712;}
	.st14{fill:#E2232D;}
	.st15{fill:#989A9C;}
	.st16{fill:#FEF8F9;}
	.st17{fill:#FEFEFE;}
	.st18{fill:#E72329;}
</style>
<path class="st0" d="M685.5,63.8c-8.1,0.1-16.1,0.1-24.6-0.1c-0.6-0.4-0.8-0.6-1.1-1c-2.6-2-4.8-4.6-7.6-5.6
	c-8.4-2.9-15.4,0-21.1,6.5c-6.5,7.3-6.7,18.6-0.4,26.1c7.2,8.6,17.4,10.3,26.4,4.5c1.4-0.9,3.1-1.8,4.7-1.8c6.9-0.2,13.8,0,20.7-0.1
	c2.3,0,3,0.8,3,3.1c-0.1,7.5,0,15-0.3,22.8c-1.6,4.9-2.9,9.5-4.2,14.2c0,0,0-0.1-0.3,0c-0.5,0.6-0.7,1.2-1,1.7c0,0-0.3-0.2-0.4-0.1
	c-4.5,3.2-9,6.4-13.4,9.6c0,0-0.3,0.1-0.8,0.1c-1.2,0.1-2,0-2.7,0.2c-7.9,3-16.1,3.4-24.3,2.5c-5.4-0.6-10.6-3-15.9-4.6
	c-1.3-0.4-2.6-0.8-3.8-1.2c0,0,0.1,0,0-0.3c-2.6-2.8-5.1-5.4-7.6-8.1c-0.9-1.8-1.8-3.7-2.5-6.1c1.2-1.4,2.2-2.7,3.3-2.8
	c4.1-0.3,8.2-0.2,12.3-0.1c2.9,0.1,5.9,0.5,8.9,1c0.8,0.8,1.6,1.3,2.4,1.8c0,0-0.1,0.1-0.1,0.3c4.3,5,15.7,5.9,20.4,1.8
	c0.3-0.3,0.3-0.9,0.4-1.4c0,0,0.1,0.1,0.3,0.1c1.6-0.8,3.2-1.3,4.1-2.5c3.7-4.4,5.6-9.6,5.4-15.4c0-1-0.8-2-1.3-3
	c-1.1,0.7-2.1,1.4-3.4,2.4c-0.2,0.7-0.1,1.2-0.1,1.7c0,0-0.1,0-0.3,0c-0.3,0.2-0.4,0.5-0.4,0.7c0,0-0.1,0.1-0.4,0
	c-0.7,0-1.1-0.1-1.4,0.1c-9.8,6.6-20.1,5.4-30.5,1.8c-1.5-0.5-3.1-0.7-4.6-1c0,0,0.1-0.2,0-0.4c-0.8-0.5-1.5-0.7-2.3-1
	c0,0,0-0.1,0-0.3c-1.6-1.5-3.3-2.7-4.9-3.9c0,0,0,0-0.1-0.2c-0.4-0.5-0.7-0.8-1-1c0,0,0.2-0.1,0.2-0.3c-0.4-1-0.7-1.8-1.2-2.5
	c-8.8-13.1-9.4-27.1-4.1-41.6c1.3-3.4,3-6.7,4.6-10c0,0,0,0.1,0.3,0c7.1-5.7,14.1-10.7,23.5-11.6c7.9-0.8,15.1,0.1,21.5,4.9
	c1.5,1.1,3.2,1.9,4.7,2.9c0.4-2,0.8-3.9,1.5-5.9c6.6,0,12.9,0,19.2,0.3C685.5,48.7,685.5,56.2,685.5,63.8z"/>
<path class="st1" d="M180.1,108.1c-0.3,0-0.5-0.1-0.7-0.8c-1.6-1.8-3.1-3.1-4.7-4.5c-0.3,0-0.5-0.2-0.6-0.9c-0.4-1.2-0.6-2.1-1-2.8
	c-8-13.5-8.9-27.3-1.7-41.5c0.6-1.2,0.8-2.6,1.1-3.9c0,0,0,0.1,0.3,0c0.8-1,1.4-2,2-3c0,0,0,0.1,0.3,0c1.8-1.8,3.4-3.5,5-5.3
	c0,0,0,0,0.3,0c1.2-0.4,2.1-0.7,2.9-1.2c13.3-8,26.9-9,40.7-1.3c2.1,1.2,4.4,2.1,6.5,3.2c0,0-0.1,0,0,0.3c2.1,3.1,4.8,5.7,6.3,8.9
	c2.6,5.6,4.4,11.5,6.5,17.6c0,3.4,0,6.4-0.2,9.4c-0.2,0-0.5,0-0.9,0c-16.8,0-33.3,0-49.7,0c-1.4,0-2.8,0.6-4.2,0.9c0,0-0.1,0-0.5,0
	c-0.7,1.2-1.7,2.8-1.2,3.5c1.6,2.9,3.4,5.8,5.7,8.1c5.6,5.4,18,6.1,22.6,0.9c7.6-6.7,16.2-2.4,25.2-3.9c-1.6,2.7-2.5,4.3-3.4,5.8
	c-1.3,2.2-2.6,4.4-3.9,6.6c-1.1,1.1-2.2,2.3-3.9,3.5c-1.5,0.5-2.6,0.9-3.5,1.5c-11,6.7-22.5,8.1-34.6,3.3c-2.9-1.1-5.8-2.1-8.7-3.2
	c0,0,0.1,0,0-0.3C181.5,108.8,180.8,108.5,180.1,108.1 M221.6,67.9c-2.3-7.5-8.5-12-16.5-12.2c-8.4-0.2-14.4,4.1-17.3,13.1
	c0.7,0.3,1.5,0.9,2.2,0.9c9.7,0.1,19.4,0.1,29.1,0C219.9,69.7,220.7,68.9,221.6,67.9z"/>
<path class="st0" d="M715.7,41.5c0,0,0,0,0.4,0.1c1.3-0.1,2.3-0.2,3.2-0.6c11-4.3,21.9-3.9,32.7,0.8c2.7,1.2,5.4,2.5,8.1,3.7
	c0,0-0.1,0,0,0.2c0.3,0.3,0.5,0.4,0.8,0.6c0,0-0.1,0,0,0.2c0.3,0.3,0.5,0.4,0.8,0.6c0,0-0.1,0,0,0.2c0.3,0.3,0.5,0.4,0.8,0.6
	c0,0-0.1,0-0.1,0.2c1.5,2.2,3.1,4.1,4.5,6.1c10.5,14.4,8.6,39.3-4.8,50.8c-1.3,1.1-2.2,2.8-3.2,4.3c0,0-0.1-0.1-0.3-0.1
	c-0.7,0.4-1.1,0.8-1.5,1.3c0,0,0-0.1-0.3-0.1c-1.2,0.3-2.2,0.5-3.1,0.9c-9.7,4.3-19.8,4.7-30,2.6c-4.2-0.9-8.2-2.7-12.3-4.1
	c0,0-0.2,0-0.3-0.3c-1.6-1.4-3.1-2.5-4.6-3.5c-0.3,0-0.5-0.1-0.6-0.8c-0.6-1.5-1.1-2.6-1.8-3.6c-1.7-2.8-3.5-5.6-5.7-9.2
	c6,0,10.8,0.2,15.6,0c4.7-0.2,8.8,0.7,13,3.2c7.6,4.6,19.1,0.6,22.7-6.3c6.3-8.7,5.6-20.2-1.9-27.5c-6.6-6.4-16-8.3-25.3-0.7
	c-0.7,0.6-1.7,1.2-2.6,1.2c-7,0.1-13.9,0.1-21.7,0.1c2-3.5,3.6-6.4,5.3-9.2c1.4-2.3,3-4.4,4.6-6.6c0,0,0,0.1,0.3,0.1
	c0.8-0.6,1.3-1.1,1.9-1.7c0,0,0,0.1,0.2,0c0.3-0.3,0.5-0.5,0.7-0.7c0,0,0,0.1,0.3,0.1C712.9,43.3,714.3,42.4,715.7,41.5z"/>
<path class="st0" d="M270.4,96c0.2,0.1,0.4,0.2,0.7,0.8c3.2,5.1,9.8,5.2,12,0.6c0,0,0,0,0.3,0c4.8-2.5,4.8-7.2-0.1-10.6
	c-7.2-4.9-15.5-7.1-23.9-8.9c0,0-0.2,0-0.3-0.3c-1.8-1.4-3.6-2.5-5.3-3.5c-0.4-0.3-0.9-0.7-1.4-1.5c-0.2-1-0.1-1.6-0.3-1.9
	c-6.7-9.1-1.1-25.1,9.3-29c1.8-0.7,3.4-2.2,5.1-3.4c0,0,0,0.1,0.3,0.2c1.6,0,2.9,0.1,4.1-0.1c5.9-0.9,11.7-1,17.3,1
	c8.7,3.2,14.4,8.9,15.9,18.8c-5.5,0-10.8,0.2-16-0.1c-1.6-0.1-3.5-1.1-4.5-2.2c-3.6-4-10-4.3-13.1-0.2c-1.9,2.5-2.5,5.4,0.4,7.6
	c2.3,1.8,4.8,3.7,7.6,4.5c7.4,2.2,14.9,3.9,21.5,8.3c0.4,0.2,1,0.1,1.5,0.1c0,0-0.1,0,0,0.3c6.4,8.4,7.2,17.1,2.6,26.3
	c-0.3,0.6-0.1,1.5-0.2,2.2c0,0-0.1,0-0.3-0.1c-0.7,0.8-1.2,1.7-1.6,2.5c0,0-0.1,0-0.3,0c-0.3,0.3-0.4,0.5-0.5,0.8c0,0-0.1,0-0.3,0
	c-0.3,0.2-0.4,0.5-0.5,0.8c0,0-0.1,0-0.3-0.1c-2.4,1.1-4.5,2.5-6.8,3.4c-7.2,2.9-14.5,3.6-22.3,2.5c-10.3-1.5-18.4-7.8-21.6-17.6
	c-0.9-2.7-0.4-3.7,2.5-3.6c5.5,0.1,11,0.1,16.6,0.3C269,94.9,269.7,95.5,270.4,96z"/>
<path class="st2" d="M353.8,74.4c1.5-15.2,8.9-26.3,22.5-32.1c17.2-7.3,33.2-5.1,46.6,10.6c0-4.5,0-8.3,0-12.3c3.4,0,6.3,0,9.7,0
	c0,1.5,0,2.9,0,4.2c0,21.5,0,43.1,0,64.6c0,5.3,0,5.3-5.3,5.3c-1.3,0-2.7,0-4.3,0c0-4.3,0-8.2,0-12.6c-1,0.7-1.6,1-2,1.5
	c-11,13.3-27.8,15.5-42.3,10c-15.5-5.9-24.9-19.8-25-36.3C353.8,76.5,353.8,75.6,353.8,74.4 M398.2,107.3c0.9-0.2,1.7-0.4,2.6-0.6
	c12.5-3.4,19.8-11.8,22.1-24.4c2.2-11.9-3.7-24.7-13.7-30.8c-11.6-7.1-26.2-5.8-36.3,3.2c-9.1,8.2-12.3,23.9-7.1,35.3
	C370.1,99.4,379.8,109.1,398.2,107.3z"/>
<path class="st3" d="M587.4,102c-2.3,2.2-4.5,4.7-7,6.7c-13.9,10.7-34,10.2-47.7-1c-21.3-17.5-19.1-49.7,4.7-63.6
	c15.1-8.9,36.7-7.9,50,8.4c0.9-1.1,1.7-2.3,1.7-3.4c0.1-11.4,0.1-22.7,0.1-34.1c1.8,0,3.6,0,5.7,0.3c0.3,31.8,0.3,63.2,0.4,94.5
	c0,2.3-0.2,3.7-3.1,3.7c-2.8,0-3-1.4-2.9-3.5c0.1-1.7,0.2-3.5-0.1-5.2C589,103.7,588,102.9,587.4,102 M530.5,90.4
	c5.6,11.7,15.1,17.2,28,17.1c12.2-0.1,21.1-5.9,26.3-16.7c5.4-11.4,4.3-22.5-3.5-32.4c-7.5-9.6-17.7-13-29.4-10.7
	C532.7,51.4,522.7,71.4,530.5,90.4z"/>
<path class="st4" d="M156,56.3c0,0.1,0,0.3-0.5,0.6c-0.6,1.5-1,2.8-1,4.1c0,16.1-0.1,32.3,0,48.4c0,3.2-0.9,4.2-4,4
	c-3.7-0.2-7.5-0.3-11.2,0c-3.4,0.2-4.5-0.7-4.4-4.3c0.2-16.4,0.1-32.8,0.1-49.1c0-1-0.5-2-0.9-3c-0.2,0-0.6,0-0.6,0
	c-0.2-0.2-0.4-0.3-0.6-0.9c-0.3-0.7-0.5-1.2-0.8-1.3c-2.7-0.4-6.7,0.3-7.9-1.2c-1.4-1.8-0.4-5.5-0.5-8.4c0-0.5,0.1-1,0-1.5
	c-0.3-2.4,0.7-3.3,3.2-3.3c2.2,0,4.4-0.7,6.6-1.1c0-7.6,0-15.3,0.2-23c0.3,7.4,0.3,15,0.3,22.5c0.3,0,0.7,0,1,0
	c0-6.6,0.1-13.2,0-19.8c0-2.3,0.5-3.4,3.1-3.3c4.5,0.2,9,0.1,13.5,0c2.3-0.1,3.1,0.7,3.1,3c-0.1,5.6-0.1,11.2,0,16.9
	c0,1.2,0.8,2.3,1.2,3.5c0,0,0.3,0.2,0.4,0.6c3,0.9,7.2,0.5,8.3,2.1c1.4,2.2,0.3,6,0.6,9.1c0.3,3.2-0.9,4.1-4,4
	C159.4,54.8,156.9,53.3,156,56.3z"/>
<path class="st4" d="M318.4,39.3c0-0.3,0-0.5,0.3-0.8c0.5,0.1,0.8,0.2,1.1,0.4c0.1-0.2,0.2-0.4,0.2-0.7c0-6.5,0.1-13,0-19.5
	c-0.1-2.5,0.8-3.3,3.2-3.2c4.4,0.2,8.7,0.2,13.1,0c2.7-0.1,3.4,1,3.3,3.5c-0.1,5.5-0.1,11,0,16.5c0,1.1,0.8,2.3,1.3,3.4
	c0,0,0.2,0.2,0.4,0.6c3,0.9,7.2,0.5,8.3,2.1c1.4,2.2,0.3,6,0.6,9.1c0.3,3.2-0.9,4.1-4,4c-1.6-0.1-4.2-1.5-5,1.5c0,0,0-0.1-0.3,0
	c-0.6,1.4-1.2,2.8-1.2,4.1c-0.1,16.4-0.1,32.8,0,49.2c0,2.9-0.8,4-3.8,3.8c-3.7-0.2-7.5-0.3-11.3,0c-3.5,0.3-4.7-0.8-4.7-4.5
	c0.2-16.3,0.1-32.5,0-48.8c0-1.3-1-2.6-1.6-3.8c0,0,0.1,0,0.1-0.3c-2.2-0.6-4.4-1.2-6.6-1.2s-3.2-0.6-3.1-3c0.2-2.7,0.2-5.5,0-8.2
	c-0.1-2.4,0.7-3.2,3.2-3.2C314,40.3,316.2,39.7,318.4,39.3z"/>
<path class="st2" d="M453.8,75.1c0,13.3,0,26.2,0,39.4c-3.2,0-6.1,0-9.4,0c0-24.4,0-48.9,0-73.7c2.9,0,5.9,0,9.3,0c0,2.7,0,5.4,0,9
	c5.6-7.3,12.5-10.5,20.5-11c18.3-1.3,31,8.4,34.3,24.5c0.7,3.5,0.9,7.2,0.9,10.8c0.1,12.3,0,24.6,0,36.8c0,1.1,0,2.2,0,3.2
	c-0.6,0.3-1,0.5-1.3,0.5c-8.4,0.6-8.4,0.6-8.4-7.7c0-12.3,0.1-24.6-0.1-36.8c-0.2-11.2-6.9-19.8-17.1-22.5
	c-11.9-3.2-24.2,3.7-27.3,15.6C454.4,66.9,454.3,70.9,453.8,75.1z"/>
<path class="st5" d="M685.5,117.9c0-7.5-0.1-15,0-22.6c0-2.3-0.7-3.1-3-3.1c-6.9,0.1-13.8-0.1-20.7,0.1c-1.6,0-3.3,0.9-4.7,1.8
	c-9.1,5.8-19.2,4.2-26.4-4.5c-6.3-7.6-6.1-18.8,0.4-26.1c5.8-6.5,12.7-9.4,21.1-6.5c2.8,1,5,3.5,7.6,5.8c0.1,0.6,0.1,0.7,0.1,0.8
	c-4.4-3.7-9.2-6.3-15.2-5.8c-6.8,0.6-15.1,6.6-16.1,12.2c-1.8,10.2,0.3,17.7,7.5,22.8c6.2,4.4,15,3.9,21.3-0.7
	c1-0.7,2.2-1.5,3.3-1.5c7.5-0.1,15-0.1,22.5-0.1c1.1,0,2.2,0,3.2,0c0,9,0,17.8-0.3,26.9C685.8,117.9,685.5,117.9,685.5,117.9z"/>
<path class="st6" d="M301.1,76.2c-0.4,0.2-1,0.4-1.4,0.1c-6.6-4.4-14.1-6.1-21.5-8.3c-2.7-0.8-5.3-2.8-7.6-4.5
	c-2.9-2.2-2.3-5.1-0.4-7.6c3.1-4.1,9.5-3.9,13.1,0.2c1.1,1.2,3,2.2,4.5,2.2c5.2,0.3,10.4,0.1,16,0.1c-1.5-9.9-7.2-15.7-15.9-18.8
	c-5.7-2.1-11.5-1.9-17.3-1c-1.2,0.2-2.5,0.1-4,0c10.9-3.8,21.5-2.3,30.9,4.9c5.2,4,7.6,9.8,8.2,17c-5.5,0-10.8,0-16.1,0
	c-2.9,0-5.8,0.8-7.5-3.4c-1.4-3.4-8.5-3-10.9,0c-1.8,2.3-1.4,5.4,1.6,7c3.3,1.7,7,2.7,10.4,4.1C289.2,70.7,295.1,73.4,301.1,76.2z"
	/>
<path class="st7" d="M587.3,102.4c0.7,0.5,1.7,1.4,1.8,2.3c0.3,1.7,0.2,3.5,0.1,5.2c-0.1,2.1,0.1,3.5,2.9,3.5c3,0,3.1-1.4,3.1-3.7
	c0-31.4,0-62.8,0-94.5c0.5,0.4,1.5,1.2,1.5,1.9c0.1,32,0.1,64,0,96c0,0.3-0.2,0.7-0.3,1c-0.3,0.2-0.5,0.4-0.7,0.4
	c-8.6,0.7-8.6,0.7-8.6-7.8C587.2,105.5,587.2,104.1,587.3,102.4z"/>
<path class="st8" d="M707.8,46.4c-1.3,2.1-2.9,4.3-4.3,6.6c-1.7,2.8-3.3,5.7-5.3,9.2c7.8,0,14.7,0,21.7-0.1c0.9,0,1.9-0.6,2.6-1.2
	c9.3-7.6,18.7-5.7,25.3,0.7c7.5,7.3,8.3,18.8,1.9,27.2c-0.3-0.3-0.3-0.5-0.3-0.7c5.4-10.2,4.4-18.5-2.9-25.6
	c-6.3-6-15.7-6.5-22.5-0.8c-2,1.7-3.9,2.3-6.4,2.2c-7-0.1-14,0-21.4,0C698.4,56.8,702.2,51.2,707.8,46.4z"/>
<path class="st5" d="M641.8,70.5c2.2-0.5,4.5-1.5,6.7-1.5c26.5-0.1,53.1-0.1,79.6-0.1c1,0,2,0,3.4,0c0-2.5,0-4.7,0-8
	c4.7,4.1,8.7,7.6,12.8,11.4c0.1,0.3-0.1,0.5-0.4,0.4c-3.3-2.4-6.4-4.9-9.9-7.6c-0.1,4.6-3.1,4.6-6.2,4.6c-20.8,0-41.5-0.1-62.3,0
	C657.6,69.8,649.8,70.3,641.8,70.5C641.9,70.5,641.8,70.5,641.8,70.5z"/>
<path class="st9" d="M318.3,56.6c0.5,1,1.6,2.3,1.6,3.6c0.1,16.3,0.2,32.5,0,48.8c0,3.7,1.1,4.8,4.7,4.5c3.7-0.3,7.5-0.3,11.3,0
	c3,0.2,3.8-0.9,3.8-3.8c-0.1-16.4-0.1-32.8,0-49.2c0-1.4,0.6-2.7,1.3-4.1c0.2,16.4,0.2,32.8,0.1,49.3c0,2.1,0,4.2-0.2,6.9
	c-0.3,1-0.3,1.4-0.4,1.8c-6.8,0.1-13.6,0.2-20.8,0c-0.6-0.5-0.8-0.7-0.9-0.9c0-0.3-0.1-0.7,0.1-1.3c0.1-0.5,0-0.7-0.1-0.9
	c0-0.6-0.1-1.1,0.1-2.1c0.1-1.1,0-1.7-0.1-2.4c0-0.6-0.1-1.1,0.1-2.1c0.1-1.1,0-1.7-0.1-2.4c0-3.8-0.1-7.6,0.1-11.9
	c0.1-1.9,0-3.3-0.1-4.6c0-1.1-0.1-2.1,0.1-3.7c0.1-2.9,0-5.2-0.1-7.6c0-3.3-0.1-6.6,0.1-10.4c0.1-2.2,0-3.8-0.1-5.4
	C318.5,57.9,318.4,57.4,318.3,56.6z"/>
<path class="st10" d="M253.7,149.5c-0.3,0.9-0.4,1.5-0.7,2c-0.6,0.9-1.3,1.6-2,2.4c-0.7-0.8-1.5-1.5-2-2.3c-0.6-1-0.9-2.2-2.1-3.3
	c-0.1,1.2,0,2.5-0.3,3.7c-0.2,0.8-1.1,1.3-1.7,2c-0.5-0.7-1.5-1.3-1.5-2c-0.2-3.6-0.1-7.2-0.1-10.8c6.9-2.6,5.1,4.4,7.6,6.6
	c2.6-2,0.8-8.8,7.8-6.7c0,3.6,0.1,7.4-0.1,11.2c0,0.6-0.9,1.2-1.4,1.8c-0.6-0.6-1.7-1.1-1.7-1.8c-0.2-1.9-0.1-3.9-0.6-6
	C254.5,147.2,254.2,148.2,253.7,149.5z"/>
<path class="st5" d="M268.1,93.9c-5.5,0-11,0.1-16.5-0.1c-2.9-0.1-3.4,0.9-2.5,3.6c3.1,9.9,11.3,16.2,21.6,17.6
	c7.8,1.1,15.1,0.3,22.3-2.5c2.3-0.9,4.3-2.3,6.8-3.3c-10.9,9.5-23.8,10.2-36.7,5.4c-9.5-3.6-15.2-11.4-16.4-22.3
	c7.4,0,14.6,0,21.8,0c0.2,0,0.5,0.5,0.5,1.1C268.5,93.8,268.3,93.8,268.1,93.9z"/>
<path class="st11" d="M134.2,57c0.2,1,0.7,2,0.7,3c0,16.4,0.1,32.8-0.1,49.1c0,3.6,1.1,4.5,4.4,4.3c3.7-0.3,7.5-0.3,11.2,0
	c3.1,0.2,4-0.8,4-4c-0.1-16.1-0.1-32.3,0-48.4c0-1.3,0.4-2.6,0.9-4c0.3,18.6,0.4,37.4,0.4,56.1c0,0.3-0.2,0.7-0.3,0.9
	c-7.4,0-14.7,0-21.8-0.6c0.3-1.8,0.4-3.1,0.4-4.3C134.2,91.8,134.2,74.4,134.2,57z"/>
<path class="st12" d="M288.7,147.9c0-2.6,0-4.8,0-7c6.5-1.9,6,4.7,9.7,7.2c0-2.2-0.2-3.9,0.1-5.6c0.1-0.7,1-1.3,1.6-2
	c0.5,0.7,1.5,1.3,1.6,2c0.2,3.6,0.1,7.2,0.1,11.2c-6.5,1.4-5.9-5.4-9.7-7.7c0,1.9,0.2,3.6-0.1,5.2c-0.2,1-1,1.9-1.5,2.8
	c-0.6-0.9-1.4-1.7-1.7-2.7C288.5,150.4,288.7,149.3,288.7,147.9z"/>
<path class="st5" d="M749.1,88.4c0.2,0,0.3,0.2,0.3,0.7c-3.3,7.1-14.8,11.1-22.4,6.5c-4.2-2.6-8.3-3.4-13-3.2c-4.8,0.2-9.7,0-15.6,0
	c2.2,3.6,4,6.4,5.7,9.2c0.6,1,1.1,2.1,1.7,3.4c-4.4-3.5-7.1-8.3-9.5-14.3c3.3,0,6.1,0,8.9,0c3.6,0,7.3,0.1,10.9,0
	c3.7-0.1,6.8,0.5,10.1,2.7C733.5,98.1,742.7,95.9,749.1,88.4z"/>
<path class="st12" d="M154.4,147.3c-0.6-0.3-1.1-0.4-1.5-0.5c0,1.8,0.2,3.5-0.1,5.3c-0.1,0.7-1.1,1.2-1.7,1.8
	c-0.5-0.6-1.4-1.1-1.4-1.7c-0.1-3.7-0.1-7.5-0.1-11.3c6.3-1.8,5.9,4.7,9.7,7.2c0-2.2-0.2-4,0.1-5.7c0.1-0.7,1-1.3,1.6-2
	c0.5,0.7,1.5,1.3,1.6,2c0.2,3.6,0.1,7.2,0.1,10.9c-2.5,1.1-4.2,0.7-5.4-1.7C156.4,150.3,155.4,149,154.4,147.3z"/>
<path class="st13" d="M731.4,85.5c-27.6,0-55.2,0-82.9,0c-1.2,0-2.5-0.1-4.1-0.5c-0.4-0.5-0.4-0.7,0-0.9c27.9,0,55.4,0,82.9,0.1
	C728.7,84.1,730,85,731.4,85.5L731.4,85.5z"/>
<path class="st5" d="M759.1,109.2c0.8-1.4,1.7-3.1,3-4.2c13.4-11.5,15.2-36.4,4.8-50.8c-1.4-2-3-3.9-4.5-6.1
	c12.6,8,18,31.9,7.6,49.1C767.2,101.6,762.9,105.1,759.1,109.2z"/>
<path class="st12" d="M235.1,154.1c-3.8,0.6-7.2-0.3-8.3-3.7c-0.7-2.3-0.4-5.5,0.8-7.6c1.6-2.8,4.9-3.2,8-2.2c2.9,0.9,4.5,3,4.7,6.1
	C240.5,150.3,239,152.9,235.1,154.1 M230.1,150.1c1.5,0.4,3.1,1.3,4.4,1c2.7-0.7,3.3-3,2.5-5.4c-0.8-2.2-2.7-3.5-5.1-2.5
	C229,144.4,228.3,146.7,230.1,150.1z"/>
<path class="st14" d="M666,40.5c-0.4,2-0.8,3.9-1.1,5.9c-1.6-0.9-3.3-1.8-4.7-2.9c-6.5-4.8-13.7-5.7-21.5-4.9
	c-9.4,0.9-16.4,6-23.5,11.6c10.7-14.6,29.9-17,48.5-6c0.7-1.6,1.4-3.2,2.3-4.5C666,40.2,666,40.3,666,40.5z"/>
<path class="st15" d="M262.2,150.8c0-3.4,0-6.5,0-9.5c5.5-1.6,9.4-0.6,10.2,2.4c0.7,3-1.1,4.6-5.7,5.3c-1.1,1.8-2,3.4-3,5
	C263.2,153,262.7,152.1,262.2,150.8z"/>
<path class="st14" d="M614.5,50.3c-1.3,3.2-3.1,6.5-4.4,9.9c-5.3,14.5-4.7,28.5,4.1,41.6c0.5,0.7,0.8,1.5,1.1,2.6
	c-9.8-10.3-11.5-22.9-9.1-36.4C607.3,61.4,610.1,55.5,614.5,50.3z"/>
<path class="st10" d="M134.2,151.7c1.4-3.3,2.7-6.4,4.1-9.5c1-2.3,2.6-2.5,3.8-0.3c1.9,3.7,3.4,7.6,5.3,12.2c-1.7-0.3-3-0.1-3.4-0.7
	c-2.5-3.3-4.9-3.9-7.4,0c-0.3,0.5-1.6,0.3-2.4,0.5C134.2,153.2,134.1,152.6,134.2,151.7z"/>
<path class="st10" d="M282.1,151.8c-2.4-0.8-4.7-1.9-6.2,1.3c-0.3,0.6-1.8,0.7-3.9,1.5c2.2-5,3.8-9,5.7-12.8
	c1.1-2.1,2.7-1.6,3.6,0.3c1.7,3.7,3.2,7.5,4.8,11.2c-0.3,0.3-0.5,0.6-0.8,0.9C284.4,153.5,283.4,152.8,282.1,151.8z"/>
<path class="st9" d="M340.9,38.5c-0.5-0.8-1.3-1.9-1.3-3c-0.1-5.5-0.2-11,0-16.5c0.1-2.5-0.6-3.6-3.3-3.5c-4.4,0.2-8.7,0.2-13.1,0
	c-2.4-0.1-3.3,0.7-3.2,3.2c0.1,6.5,0.1,13,0,19.5c0,0.2-0.1,0.4-0.2,0.7c-0.3-0.1-0.6-0.3-1-0.6c-0.2-7.2-0.3-14.2-0.1-21.8
	c0.4-1.1,0.5-1.6,0.6-2.1c6.8,0,13.6-0.1,20.7,0.2c0.5,0.8,0.7,1.3,0.9,1.7C340.9,23.6,340.9,30.9,340.9,38.5z"/>
<path class="st12" d="M195.9,150.7c1.4,0.2,2.4,0.2,4.5,0.3c-2.3-3.6-9.8-3.4-5.7-9.1c1.9-2.6,5-2.3,7.9,0.4
	c-1.7,0.5-3.5,0.9-5.8,1.6c2.5,2.7,9.3,3.5,4.7,8.9c-2.1,2.5-5.2,1.9-8.3-0.4C194.1,151.7,194.9,151.2,195.9,150.7z"/>
<path class="st10" d="M217.3,150.9c1.4,0,2.4-0.2,3.5-0.2c1,0.1,2,0.5,3.4,0.8c-3.8,3.5-7.1,3.6-10.1,0.8c-2.7-2.6-3-6.7-0.7-9.5
	c2.5-3.1,6.3-3.5,10.5-0.5c-1.3,0.5-2.3,0.9-3.3,1.2c-1.6,0.5-4.5,0.7-4.6,1.5C215.6,146.8,216.6,148.8,217.3,150.9z"/>
<path class="st5" d="M711.5,110c3.9,1.2,7.9,3,12.1,3.9c10.2,2.1,20.3,1.7,30-2.6c0.9-0.4,1.9-0.6,3.1-0.9
	C746.5,118.4,724.5,119.8,711.5,110z"/>
<path class="st7" d="M588.9,14.9c0.3,11.4,0.3,22.7,0.3,34.1c0,1.1-0.8,2.3-1.5,3.5c-0.3-11.8-0.4-23.6-0.4-35.5
	C587.3,16.3,588.1,15.5,588.9,14.9z"/>
<path class="st14" d="M172.3,54c-0.1,1.1-0.3,2.5-0.9,3.7c-7.2,14.2-6.3,28,1.7,41.5c0.4,0.7,0.6,1.6,1,2.6
	C162.7,89.2,161.9,69.9,172.3,54z"/>
<path class="st14" d="M182.4,109.9c2.8,0.8,5.7,1.8,8.5,2.9c12.1,4.8,23.6,3.3,34.6-3.3c0.9-0.6,2-0.9,3.3-1.4
	C216.6,119.3,198.3,120.1,182.4,109.9z"/>
<path class="st14" d="M618.6,140.7c1.1,0.2,2.4,0.6,3.7,1c5.3,1.6,10.5,4,15.9,4.6c8.1,0.9,16.4,0.5,24.3-2.5
	c0.7-0.3,1.5-0.2,2.5-0.2c-4.2,1.4-8.7,3.4-13.4,4C640,149.2,628.8,147.8,618.6,140.7z"/>
<path class="st14" d="M230.4,46.2c-2.1-0.8-4.3-1.8-6.4-3c-13.9-7.7-27.4-6.7-40.7,1.3c-0.8,0.5-1.8,0.8-2.9,1.2
	c12.2-9.9,25.9-11.5,40.4-5.5C224.1,41.6,227.1,44,230.4,46.2z"/>
<path class="st11" d="M155.8,38.5c-0.5-0.8-1.2-2-1.3-3.1c-0.1-5.6-0.1-11.2,0-16.9c0.1-2.3-0.8-3.1-3.1-3c-4.5,0.1-9,0.2-13.5,0
	c-2.6-0.1-3.1,1-3.1,3.3c0.1,6.6,0,13.2,0,19.8c-0.3,0-0.7,0-1,0c0-7.5,0-15.1-0.2-22.9c-0.2-0.4-0.3-0.5,0.1-0.9
	c0.6-0.3,0.8-0.4,0.9-0.5c6.8,0,13.7,0,21.1,0C155.9,22.4,155.9,30.3,155.8,38.5z"/>
<path class="st15" d="M188.1,145.2c0,2.5,0.1,4.6-0.1,6.7c-0.1,0.7-1,1.4-1.5,2.1c-0.6-0.7-1.6-1.4-1.7-2.2c-0.2-2.6-0.1-5.2-0.1-8
	c-1-0.2-1.9-0.2-2.6-0.5c-0.5-0.3-0.9-1-1-1.6c0-0.3,0.8-1,1.2-1c2.6-0.1,5.2-0.1,7.9,0c0.6,0,1.1,0.7,1.6,1.1
	c-0.5,0.5-1,1.1-1.5,1.6C189.6,143.9,188.8,144.3,188.1,145.2z"/>
<path class="st5" d="M266,38.6c-1.4,1.1-2.9,2.6-4.8,3.3c-10.4,3.9-15.9,19.9-9.3,29c0.3,0.4,0.2,1,0.3,1.7
	c-8-8.6-5.3-23.7,5.4-30.1C260.2,40.9,263,39.9,266,38.6z"/>
<path class="st10" d="M311.6,150.4c-0.5,1.4-1,2.4-1.5,3.5c-0.5-1.1-1-2.1-1.5-3.2c-0.9-2-1.6-4.1-2.5-6c-0.6-1.2-1.4-2.3-2.1-3.5
	c3.2-0.8,3.2-0.8,5.8,3.6c2.4-0.8,2.1-5.8,6-3.9C314.5,143.9,313,147,311.6,150.4z"/>
<path class="st5" d="M760,45.4c-2.6-1-5.3-2.3-8-3.5c-10.8-4.7-21.7-5.1-32.7-0.8c-0.9,0.4-1.9,0.5-3.2,0.6
	C728,34.1,748.6,35.8,760,45.4z"/>
<path class="st14" d="M623.7,111.7c1.4,0.1,3,0.3,4.4,0.8c10.4,3.6,20.7,4.8,30.5-1.8c0.3-0.2,0.7-0.1,1.3,0
	c-7.2,7-16.2,7.3-25.4,5.3C630.9,115.3,627.4,113.3,623.7,111.7z"/>
<path class="st12" d="M177.1,150.9c1.1,0.1,1.9-0.1,2.6,0.2c0.7,0.3,1.2,0.9,1.8,1.4c-0.6,0.5-1.2,1.3-1.8,1.3
	c-2.1,0.2-4.2,0.1-6.8,0.1c0-4.1-0.1-7.9,0.1-11.8c0-0.6,1-1.1,1.5-1.6c0.6,0.6,1.5,1.2,1.6,1.9C176.4,145.2,176.5,148,177.1,150.9z
	"/>
<path class="st6" d="M233,104.4c1.1-2.1,2.4-4.3,3.7-6.5c0.9-1.6,1.8-3.2,3.4-5.8c-9,1.4-17.6-2.9-25.5,3.8c-0.7,0-0.9,0-1,0
	c3.3-4.5,7.7-5.6,13.1-5.2c4.8,0.4,9.7,0.1,16,0.1C239.2,95.9,236.2,100.1,233,104.4z"/>
<path class="st8" d="M632.9,123.9c-2.9-0.3-5.9-0.7-8.8-0.7c-4.1-0.1-8.2-0.2-12.3,0.1c-1.1,0.1-2.1,1.4-3.3,2.5
	c-0.8-0.9-1.4-2.2-2.4-4.3c3.5,0,6.3,0,9.1,0c5,0,9.9-0.1,14.9,0.1c1.2,0,2.4,1.1,3.4,2C633.1,123.9,633,123.9,632.9,123.9z"/>
<path class="st14" d="M259.5,78.4c8.2,1.6,16.6,3.8,23.7,8.7c5,3.4,4.9,8.1,0.1,10.6c3.3-4.2,2.9-7.7-2-10.2
	c-3.5-1.8-7.3-2.9-11-4.4C266.8,81.5,263.3,80,259.5,78.4z"/>
<path class="st8" d="M213.3,95.9c0.5,0,0.6,0,1.1,0.1c-4.1,5.1-16.5,4.4-22.1-1c-2.3-2.3-4.1-5.2-5.7-8.1c-0.4-0.8,0.5-2.4,1.2-3.6
	c-0.7,4.8,2.2,7.9,5.4,10.4C199.2,98.6,205.9,100.2,213.3,95.9z"/>
<path class="st5" d="M661.4,108.1c1.1-0.7,2.1-1.4,3.2-2.2c0.4,1,1.2,2,1.3,3c0.2,5.8-1.7,11-5.4,15.4c-0.9,1.1-2.6,1.7-4.2,2.4
	c5.1-4.7,8.2-10.4,7.4-17.7c0-0.3-0.3-0.6-1.1-0.9C661.8,108.1,661.6,108.1,661.4,108.1z"/>
<path class="st6" d="M303.8,105.1c-0.2-0.6-0.3-1.4,0-2.1c4.6-9.2,3.9-17.9-2.5-26.4c7.1,5,9.1,16.1,4.5,25.4
	C305.2,103.1,304.6,104.1,303.8,105.1z"/>
<path class="st13" d="M133.1,39.3c-1.9,0.3-4.1,1-6.3,1c-2.5,0-3.5,0.9-3.2,3.3c0.1,0.5,0,1,0,1.5c0.1,2.9-0.9,6.6,0.5,8.4
	c1.2,1.5,5.2,0.9,7.9,1.2c0.3,0,0.5,0.6,0.7,1.1c-3.4,0.2-6.8,0.2-10.6,0.2c0-5.1,0-10,0.2-15.4c0.4-0.6,0.5-0.8,0.5-1
	C126.2,39.6,129.5,39.5,133.1,39.3z"/>
<path class="st11" d="M318.1,39.3c-1.9,0.3-4,1-6.2,1c-2.4,0-3.3,0.8-3.2,3.2c0.2,2.7,0.2,5.5,0,8.2c-0.1,2.4,0.9,2.9,3.1,3
	c2.2,0,4.4,0.6,6.6,1.3c-3.6,0.3-7.2,0.3-11.1,0.3c0-5.3,0-10.3,0.2-15.7c0.4-0.6,0.4-0.8,0.5-1C311.2,39.6,314.5,39.5,318.1,39.3z"
	/>
<path class="st9" d="M341.4,56.3c0.5-3,3-1.6,4.7-1.5c3.1,0.1,4.3-0.8,4-4c-0.3-3.1,0.9-6.9-0.6-9.1c-1.1-1.6-5.3-1.2-8.3-2
	c3.3-0.3,6.7-0.3,10.4-0.3c0,5.7,0,11,0,16.9C348.4,56.3,345.1,56.3,341.4,56.3z"/>
<path class="st14" d="M243.3,72.8c-2.1-5.8-3.9-11.7-6.5-17.2c-1.5-3.2-4.1-5.8-6.2-8.9c8.1,6.4,12.1,15.3,13.3,25.8
	C243.6,72.8,243.3,72.8,243.3,72.8z"/>
<path class="st9" d="M156.4,56.3c0.5-3,3-1.5,4.7-1.5c3.1,0.1,4.3-0.9,4-4s0.9-6.9-0.6-9.1c-1.1-1.6-5.3-1.2-8.3-2
	c3.2-0.3,6.6-0.3,10.5-0.3c0,5.2,0,10.3-0.3,15.8c-0.5,0.5-0.6,0.7-0.7,0.9C162.8,56.2,159.7,56.2,156.4,56.3z"/>
<path class="st5" d="M655.8,126.8c0.2,0.4,0.2,1-0.1,1.3c-4.7,4.1-16.1,3.2-20.4-1.8C641.8,129.8,648.6,130,655.8,126.8z"/>
<path class="st5" d="M134,57c0.2,17.4,0.2,34.8,0.2,52.2c0,1.2-0.2,2.5-0.5,3.9c-0.3-18.3-0.3-36.9-0.3-55.8
	C133.5,57,133.8,57,134,57z"/>
<path class="st11" d="M188.6,83.5c1-0.4,2.4-1,3.8-1c16.5-0.1,32.9,0,49.7,0.2c0.3,0.4,0.3,0.6,0.3,0.7
	C224.6,83.5,206.8,83.6,188.6,83.5z"/>
<path class="st5" d="M642.4,84.3c-5.3-2.1-5.9-10.5-0.8-13.8c0.2-0.1,0.3,0,0.3,0.3c-3.4,4.8-3,9.1,0.7,13.3
	C642.5,84.1,642.4,84.3,642.4,84.3z"/>
<path class="st14" d="M282.8,97.6c-1.9,4.4-8.5,4.3-11.7-0.6C274.7,99.4,278.5,99.7,282.8,97.6z"/>
<path class="st14" d="M666.2,143.5c4.1-3.3,8.6-6.5,13.3-9.6C675.4,137.2,670.9,140.4,666.2,143.5z"/>
<path class="st5" d="M747.2,79.6c-3.8,3.3-7.6,6.5-11.7,9.8c-0.3,0-0.4-0.1-0.3-0.3c1.6-1.8,3.1-3.5,4.8-4.8
	C742.2,82.5,744.7,81,747.2,79.6C747.2,79.5,747.2,79.6,747.2,79.6z"/>
<path class="st14" d="M685.3,118.1c0.2-0.2,0.5-0.2,0.7-0.2c-1.4,4.7-3,9.4-4.7,14.2C682.4,127.6,683.7,122.9,685.3,118.1z"/>
<path class="st6" d="M686.9,40.4c0,7.7,0,15.4-0.3,22.9c-0.3-7.8-0.3-15.3-0.1-22.9C686.6,40.4,686.9,40.4,686.9,40.4z"/>
<path class="st11" d="M686.3,40.4c0,7.5,0,15.1,0,23c-0.1,0.4-0.3,0.4-0.6,0.4c-0.2-7.6-0.2-15.1-0.2-23.1c0-0.4,0-0.4,0.2-0.4
	C686,40.4,686.2,40.4,686.3,40.4z"/>
<path class="st14" d="M610.9,132.4c2.5,2.3,5.1,4.9,7.6,7.8C616,137.9,613.4,135.3,610.9,132.4z"/>
<path class="st5" d="M735.2,89.4c-0.9,1.1-1.9,2.1-3.7,4.1c0-3.1,0-5.2-0.1-7.6c-0.1-0.3-0.1-0.3,0.2-0.3c0.8,0.7,1.4,1.3,2,2
	C734.1,88.2,734.6,88.8,735.2,89.4C735.1,89.3,735.2,89.4,735.2,89.4z"/>
<path class="st11" d="M666.3,40.5c-0.4-0.1-0.4-0.3-0.3-0.7c6.3-0.3,12.6-0.3,19.2-0.1c0.4,0.4,0.4,0.5,0.4,0.7l0,0
	C679.2,40.4,672.9,40.4,666.3,40.5z"/>
<path class="st5" d="M745.7,73.5c1.4,1.1,2.8,2.2,4.5,3.6c-1,0.9-1.7,1.6-2.7,2.4c-0.2,0.1-0.3,0-0.3-0.3
	C746.7,77.2,746.1,75.4,745.7,73.5L745.7,73.5z"/>
<path class="st14" d="M179.8,45.7c-1.4,1.7-3,3.4-4.8,5.2C176.3,49.2,178,47.5,179.8,45.7z"/>
<path class="st14" d="M174.8,103.1c1.4,1.1,3,2.4,4.5,4.1C177.8,106.1,176.4,104.7,174.8,103.1z"/>
<path class="st5" d="M253.9,74.5c1.6,0.8,3.4,1.9,5.2,3.2C257.4,76.9,255.7,75.8,253.9,74.5z"/>
<path class="st14" d="M616.5,106.1c1.5,1,3.2,2.2,4.7,3.7C619.6,108.8,618.1,107.5,616.5,106.1z"/>
<path class="st5" d="M706.6,106.1c1.4,0.8,2.9,1.9,4.5,3.2C709.6,108.5,708.2,107.4,706.6,106.1z"/>
<path class="st11" d="M243.3,73.1c0-0.3,0.3-0.3,0.5-0.3c0.2,3,0.3,6.1,0.1,9.4c-0.3,0.3-0.6,0.3-0.6,0.3
	C243.2,79.5,243.2,76.5,243.3,73.1z"/>
<path class="st4" d="M318.5,74.6c0.2,2,0.3,4.4,0.3,6.9C318.5,79.5,318.5,77.2,318.5,74.6z"/>
<path class="st5" d="M715.4,41.6c-1.1,0.8-2.4,1.7-4.1,2.5C712.4,43.3,713.7,42.5,715.4,41.6z"/>
<path class="st14" d="M174.5,51c-0.4,0.9-0.9,1.9-1.8,2.9C173.1,53,173.7,52,174.5,51z"/>
<path class="st5" d="M632.9,124.2c0.1-0.3,0.2-0.3,0.6-0.3c0.7,0.6,1.2,1.1,1.7,1.9C634.5,125.5,633.7,125,632.9,124.2z"/>
<path class="st4" d="M318.5,58.8c0.2,1.3,0.3,2.9,0.3,4.7C318.5,62.2,318.5,60.7,318.5,58.8z"/>
<path class="st5" d="M301.8,107.6c0.3-0.7,0.7-1.5,1.5-2.4C303,106,302.5,106.7,301.8,107.6z"/>
<path class="st4" d="M318.5,85.9c0.2,1.1,0.3,2.4,0.3,4C318.5,88.8,318.5,87.5,318.5,85.9z"/>
<path class="st14" d="M268.2,94.1c0.1-0.3,0.3-0.3,0.8-0.3c0.6,0.6,1,1.2,1.4,2.1C269.7,95.5,269,94.9,268.2,94.1z"/>
<path class="st8" d="M709.9,44.8c-0.3,0.5-0.8,1.1-1.7,1.6C708.6,45.9,709.1,45.4,709.9,44.8z"/>
<path class="st14" d="M180.2,108.3c0.6,0.2,1.3,0.5,2.1,1.1C181.6,109.3,181,108.9,180.2,108.3z"/>
<path class="st14" d="M621.4,110.3c0.6,0.1,1.4,0.4,2.1,1C622.8,111.1,622.2,110.8,621.4,110.3z"/>
<path class="st14" d="M685.7,40.4c-0.2-0.1-0.2-0.3-0.2-0.6c0.5-0.1,1,0.1,1.5,0.4c0,0.2-0.4,0.2-0.5,0.2
	C686.2,40.4,686,40.4,685.7,40.4z"/>
<path class="st14" d="M680,133.8c0.1-0.5,0.3-1,0.8-1.6C680.8,132.7,680.5,133.2,680,133.8z"/>
<path class="st14" d="M661.2,108.3c0.4-0.2,0.6-0.1,1.1-0.1c-0.1,0.5-0.4,1-0.9,1.6C661.1,109.5,661.1,109,661.2,108.3z"/>
<path class="st5" d="M757.2,110.4c0.2-0.4,0.6-0.9,1.3-1.2C758.3,109.6,757.9,110,757.2,110.4z"/>
<path class="st8" d="M243,82.5c0.2,0,0.5,0,0.7,0c-0.2,0.4-0.6,0.8-1.1,1.1c-0.1-0.3-0.1-0.4-0.1-0.8
	C242.5,82.5,242.9,82.5,243,82.5z"/>
<path class="st5" d="M644.1,84c0,0.2,0,0.4,0.1,0.8c-0.5,0-1-0.1-1.7-0.3c-0.1-0.2,0-0.3,0.3-0.4C643.5,84,643.8,84,644.1,84z"/>
<path class="st4" d="M319.1,14.3c0.1,0.6,0,1.1-0.3,1.8C318.7,15.7,318.8,15,319.1,14.3z"/>
<path class="st4" d="M340.9,16.1c-0.3-0.3-0.5-0.7-0.7-1.5C340.5,14.9,340.7,15.4,340.9,16.1z"/>
<path class="st4" d="M318.5,106.9c0.2,0.4,0.3,1,0.2,1.8C318.5,108.3,318.5,107.7,318.5,106.9z"/>
<path class="st4" d="M318.5,102.4c0.2,0.4,0.3,1,0.2,1.8C318.5,103.8,318.5,103.2,318.5,102.4z"/>
<path class="st4" d="M340.6,114.2c-0.2-0.4-0.1-0.8,0.1-1.4C340.8,113.1,340.8,113.6,340.6,114.2z"/>
<path class="st5" d="M744.4,72.5c0.4,0.1,0.8,0.4,1.2,0.8c0.1,0.2,0,0.2-0.2,0.2c-0.6-0.3-0.9-0.5-1.2-0.8
	C744.2,72.8,744.3,72.6,744.4,72.5z"/>
<path class="st14" d="M615.3,104.8c0.3,0.1,0.6,0.3,1,0.8C616,105.5,615.7,105.3,615.3,104.8z"/>
<path class="st4" d="M134.5,14.3c0,0.2-0.2,0.3-0.7,0.5C133.8,14.6,134.1,14.4,134.5,14.3z"/>
<path class="st4" d="M122.7,39.7c0.2,0.2,0.1,0.4-0.2,0.7C122.4,40.2,122.4,39.9,122.7,39.7z"/>
<path class="st4" d="M307.7,39.6c0.2,0.2,0.1,0.4-0.2,0.7C307.4,40.2,307.5,39.9,307.7,39.6z"/>
<path class="st11" d="M660.1,63.8c-0.2-0.2-0.2-0.4-0.2-0.7c0.2,0,0.4,0.1,0.7,0.5C660.6,63.8,660.4,63.9,660.1,63.8z"/>
<path class="st4" d="M166,56.1c-0.1-0.3,0-0.4,0.4-0.6C166.4,55.7,166.3,55.9,166,56.1z"/>
<path class="st5" d="M762.3,47.6c-0.2,0.1-0.4-0.1-0.7-0.4C761.8,47.2,762,47.3,762.3,47.6z"/>
<path class="st5" d="M710.8,44.1c0,0.2-0.1,0.4-0.5,0.6C710.3,44.6,710.5,44.4,710.8,44.1z"/>
<path class="st5" d="M301,108.4c-0.1-0.2,0-0.4,0.3-0.7C301.5,108,301.4,108.2,301,108.4z"/>
<path class="st5" d="M761.6,46.9c-0.2,0.1-0.4-0.1-0.7-0.4C761,46.4,761.2,46.6,761.6,46.9z"/>
<path class="st5" d="M300.2,109.1c-0.1-0.2,0-0.5,0.4-0.7C300.7,108.8,300.6,108.9,300.2,109.1z"/>
<path class="st14" d="M660.5,110.6c-0.1-0.2,0-0.4,0.3-0.6C661,110.3,660.9,110.4,660.5,110.6z"/>
<path class="st5" d="M760.8,46.2c-0.2,0.1-0.4-0.1-0.7-0.4C760.2,45.7,760.5,45.8,760.8,46.2z"/>
<path class="st4" d="M318.5,111.3c0.1,0,0.2,0.2,0.2,0.5C318.5,111.7,318.5,111.6,318.5,111.3z"/>
<path class="st4" d="M318.5,113.6c0.2,0,0.4,0.1,0.6,0.5C319,114.2,318.7,114,318.5,113.6z"/>
<path class="st16" d="M187.6,68.2c3.1-8.4,9.1-12.7,17.5-12.5c8.1,0.2,14.2,4.7,16.1,12.5C209.7,68.4,198.7,68.3,187.6,68.2z"/>
<path class="st11" d="M187.7,68.5c11-0.2,22-0.1,33.5,0c-0.5,0.4-1.3,1.2-2.1,1.2c-9.7,0.1-19.4,0.1-29.1,0
	C189.2,69.7,188.5,69.1,187.7,68.5z"/>
<path class="st17" d="M397.9,107.4c-18.1,1.7-27.8-8-32-17.2c-5.2-11.4-2-27.2,7.1-35.3c10.1-9,24.7-10.3,36.3-3.2
	c10,6.1,15.9,18.9,13.7,30.8c-2.4,12.5-9.6,20.9-22.1,24.4C399.9,107,399.1,107.1,397.9,107.4z"/>
<path class="st17" d="M530.4,90.1c-7.7-18.7,2.3-38.8,21.4-42.5c11.7-2.3,21.9,1.2,29.4,10.7c7.8,10,8.9,21.1,3.5,32.4
	c-5.2,10.9-14.1,16.6-26.3,16.7C545.6,107.6,536.1,102.1,530.4,90.1z"/>
<path class="st18" d="M743.9,72.7c0.6,0.3,0.9,0.5,1.5,0.8c0.7,1.8,1.3,3.6,1.8,5.7c-2.4,1.8-4.9,3.3-7.2,5c-1.7,1.3-3.2,3-4.8,4.8
	c-0.5-0.3-1-0.9-1.5-1.5c-0.6-0.7-1.1-1.3-2-2c-1.7-0.5-3-1.4-4.4-1.4c-27.5-0.1-55-0.1-82.9-0.1c-0.7,0-1,0-1.6,0
	c-4-4.1-4.5-8.4-1-13.2c7.9-0.5,15.7-1,23.6-1.1c20.8-0.1,41.5,0,62.3,0c3.1,0,6.1,0.1,6.2-4.6C737.5,67.9,740.6,70.3,743.9,72.7z"
	/>
<path class="st16" d="M230,149.9c-1.7-3.1-1-5.4,2-6.7c2.4-1,4.3,0.3,5.1,2.5c0.8,2.4,0.1,4.7-2.5,5.4
	C233.2,151.4,231.6,150.5,230,149.9z"/>
</svg>
