<?xml version="1.0" encoding="utf-8"?>
<!-- Generator: Adobe Illustrator 26.3.1, SVG Export Plug-In . SVG Version: 6.00 Build 0)  -->
<svg version="1.1" id="oemr_logo" xmlns="http://www.w3.org/2000/svg" xmlns:xlink="http://www.w3.org/1999/xlink" x="0px" y="0px"
	 viewBox="0 0 287 287" style="enable-background:new 0 0 287 287;" xml:space="preserve">
<g transform="translate(0.000000,287.000000) scale(0.100000,-0.100000)">
	<path d="M1238.6,2854.6c-125-14-289-56-387-99c-224-96-321-160-464-303c-136-135-210-245-294-436c-12-27-26-58-31-68s-7-22-4-27
		s195-9,445-9h439l28,30c43,46,182,136,248,161c50,18,81,22,190,22c110,0,140-3,198-23c200-68,370-247,433-456c25-85,25-297,0-380
		c-67-219-246-407-441-463c-218-62-410-19-598,134l-27,23h-445c-305,0-446-3-451-10c-3-6-2-21,4-32c6-12,27-56,46-97
		c74-156,131-236,260-366c61-61,143-131,181-156c82-53,213-128,225-128c4,0,38-13,75-30c68-30,121-46,255-75c99-22,394-31,486-16
		c185,31,249,47,364,94c204,83,325,163,480,316c177,175,314,428,364,671c56,273,43,551-35,785c-107,318-344,609-608,748
		c-195,103-361,158-558,187C1550.6,2860.6,1308.6,2863.6,1238.6,2854.6z"/>
	<path d="M1313.6,1861.6v-130h-650h-650v-290v-290h650h650v-130c0-71,3-130,8-130c4,0,57,43,117,96c61,53,173,150,250,217
		c214,184,265,230,265,237c0,3-59,57-132,120c-320,279-396,345-442,386c-27,24-53,44-57,44
		C1317.6,1991.6,1313.6,1933.6,1313.6,1861.6z"/>
</g>
</svg>
